<svg width="38" height="38" viewBox="0 0 38 38" fill="none" xmlns="http://www.w3.org/2000/svg">
<g clip-path="url(#clip0_6189_59253)">
<path d="M7.73975 1.04694C7.79764 0.756004 8.09822 0.56823 8.38619 0.594207C12.296 0.594207 16.2059 0.594207 20.1157 0.594207C20.4022 0.56823 20.7013 0.754519 20.7607 1.04397C20.8 1.28741 20.7792 1.53604 20.7815 1.78171C22.9605 1.78468 25.1388 1.77651 27.3172 1.78542C27.666 1.77354 27.9436 2.10975 27.9065 2.44819C27.9079 8.47698 27.9057 14.5058 27.908 20.5346C30.1323 18.3147 32.3522 16.0911 34.575 13.869C34.7131 13.7235 34.9127 13.627 35.1176 13.6641C35.3187 13.6864 35.4634 13.8415 35.6007 13.9751C36.1403 14.5258 36.6947 15.0632 37.2328 15.6153C37.4777 15.8484 37.451 16.2685 37.1987 16.4859C34.1022 19.5823 31.0066 22.6802 27.9087 25.7751C27.9028 29.4549 27.9131 33.1354 27.9035 36.8159C27.9146 37.164 27.5799 37.4423 27.2407 37.4067C18.5809 37.4067 9.92029 37.4067 1.26045 37.4067C0.974707 37.4312 0.67709 37.2464 0.61623 36.9592C0.574668 36.689 0.599902 36.4144 0.594707 36.1435C0.593965 25.0352 0.596191 13.9276 0.593223 2.81928C0.606582 2.54393 0.537558 2.22257 0.734238 1.99397C0.859668 1.83514 1.06674 1.77428 1.26268 1.78171C3.41502 1.78096 5.56736 1.78245 7.72045 1.78171C7.72193 1.53678 7.70264 1.28964 7.73975 1.04694ZM8.90721 1.78171C8.90721 2.96921 8.90721 4.15671 8.90721 5.34421C12.4697 5.34421 16.0322 5.34421 19.5947 5.34421C19.5947 4.15671 19.5947 2.96921 19.5947 1.78171C16.0322 1.78171 12.4697 1.78171 8.90721 1.78171ZM1.78221 2.96921C1.78221 14.0523 1.78221 25.1361 1.78221 36.2192C10.0947 36.2192 18.4072 36.2192 26.7197 36.2192C26.7197 33.1347 26.7204 30.0501 26.719 26.9664C26.3234 27.3605 25.9308 27.7568 25.5337 28.1494C25.527 29.852 25.5389 31.5553 25.5278 33.2579C25.5374 33.606 25.2005 33.8813 24.8628 33.8442C17.7867 33.8442 10.7115 33.8449 3.63545 33.8435C3.44025 33.8509 3.23393 33.7885 3.10924 33.6305C2.91256 33.4026 2.98158 33.0805 2.96822 32.8051C2.97119 23.4773 2.96822 14.1495 2.97045 4.82171C2.9326 4.48401 3.21092 4.14928 3.55752 4.16042C4.94467 4.15077 6.33256 4.15968 7.71971 4.15671C7.71971 3.76112 7.71971 3.36479 7.71971 2.96921C5.74029 2.96921 3.76162 2.96921 1.78221 2.96921ZM20.7822 2.96921C20.7822 3.36479 20.7822 3.76112 20.7822 4.15671C21.9957 4.15671 23.2092 4.15745 24.4226 4.15596C24.6438 4.15893 24.868 4.14112 25.0876 4.17897C25.3741 4.24132 25.556 4.53745 25.5315 4.82245C25.5329 10.8512 25.5307 16.8808 25.533 22.9103C25.93 22.5169 26.3234 22.1199 26.719 21.7258C26.7204 15.4736 26.719 9.22139 26.7197 2.96921C24.7403 2.96921 22.7616 2.96921 20.7822 2.96921ZM4.15721 5.34421C4.15721 14.4486 4.15721 23.5523 4.15721 32.6567C10.8866 32.6567 17.6153 32.6567 24.3447 32.6567C24.3447 31.3668 24.3447 30.0769 24.3447 28.7869C23.6337 29.0653 22.9264 29.354 22.2161 29.6338C21.9452 29.7592 21.5971 29.6516 21.4539 29.3874C21.3418 29.2085 21.3663 28.9836 21.4472 28.7973C21.8153 27.88 22.1849 26.9619 22.5486 26.0423C22.6058 25.8887 22.6896 25.7447 22.8106 25.6319C23.3235 25.1235 23.8326 24.6107 24.344 24.1015C24.3454 17.8486 24.344 11.5964 24.3447 5.34421C23.1572 5.34421 21.9697 5.34421 20.7815 5.34421C20.7711 5.62178 20.8223 5.91272 20.7288 6.17991C20.6286 6.41815 20.3673 6.54952 20.1157 6.53171C16.2051 6.53171 12.2953 6.53171 8.38545 6.53171C8.10045 6.5562 7.80432 6.37288 7.74123 6.08639C7.70189 5.84147 7.72268 5.59136 7.72045 5.34421C6.53221 5.34421 5.34471 5.34421 4.15721 5.34421ZM33.2012 16.9223C33.5144 17.2363 33.8284 17.5495 34.1416 17.8634C34.7546 17.2548 35.3632 16.6418 35.9748 16.0317C35.6601 15.7185 35.3484 15.4023 35.0322 15.0906C34.4221 15.7007 33.8106 16.3108 33.2012 16.9223ZM23.9981 26.1255C24.3106 26.4394 24.6253 26.7526 24.9385 27.0666C27.7283 24.2811 30.5145 21.4912 33.3029 18.7036C32.989 18.3896 32.6758 18.0742 32.3603 17.7625C29.5727 20.5501 26.785 23.3371 23.9981 26.1255ZM23.037 28.0269C23.3197 27.9164 23.6018 27.8035 23.8823 27.6885C23.7138 27.5193 23.5446 27.3501 23.3747 27.1823C23.2611 27.4636 23.1483 27.7449 23.037 28.0269Z" fill="#A6A6A6"/>
<path d="M10.0938 2.96875C10.4893 2.96875 10.8857 2.96875 11.2812 2.96875C11.2812 3.36434 11.2812 3.76066 11.2812 4.15625C10.8857 4.15625 10.4893 4.15625 10.0938 4.15625C10.0938 3.76066 10.0938 3.36434 10.0938 2.96875Z" fill="#A6A6A6"/>
<path d="M17.2188 2.96875C17.6143 2.96875 18.0107 2.96875 18.4062 2.96875C18.4062 3.36434 18.4062 3.76066 18.4062 4.15625C18.0107 4.15625 17.6143 4.15625 17.2188 4.15625C17.2188 3.76066 17.2188 3.36434 17.2188 2.96875Z" fill="#A6A6A6"/>
<path d="M14.1312 7.75498C14.3903 7.69858 14.6641 7.83365 14.7933 8.06225C15.6438 9.44049 16.4929 10.8202 17.3412 12.2007C17.7687 12.8961 17.9149 13.7563 17.7375 14.5534C17.4993 15.6674 16.6421 16.6108 15.5763 16.996C14.9395 17.2327 14.2411 17.2609 13.5731 17.1659C12.3841 16.9819 11.3213 16.1306 10.8983 15.001C10.5494 14.0925 10.6511 13.0282 11.164 12.2007C12.0012 10.8373 12.8428 9.47686 13.6785 8.11272C13.7772 7.94201 13.9294 7.78912 14.1312 7.75498ZM12.3641 12.5117C12.1667 12.8212 11.9685 13.1433 11.9091 13.5129C11.7822 14.1719 12.0294 14.8688 12.5014 15.3372C13.1805 16.046 14.2945 16.1951 15.1933 15.8686C15.9541 15.5799 16.5575 14.8533 16.6183 14.0302C16.6569 13.596 16.5389 13.1574 16.3096 12.7892C15.6253 11.6737 14.9387 10.5604 14.2515 9.44717C13.6206 10.4677 12.995 11.4912 12.3641 12.5117Z" fill="#A6A6A6"/>
<path d="M5.73729 18.4419C6.02155 18.3744 6.31694 18.4159 6.60639 18.4063C7.17787 18.4107 7.74936 18.3981 8.32084 18.41C8.63256 18.4033 8.9094 18.6809 8.90198 18.9926C8.91014 19.7882 8.9094 20.5846 8.90198 21.381C8.91014 21.6949 8.62885 21.974 8.3149 21.9651C7.52151 21.9718 6.72737 21.9718 5.93397 21.9651C5.62076 21.9732 5.33948 21.6949 5.34764 21.381C5.33799 20.6128 5.34615 19.8432 5.34393 19.075C5.32166 18.8063 5.4753 18.5273 5.73729 18.4419ZM6.53143 19.5938C6.53143 19.9894 6.53143 20.3857 6.53143 20.7813C6.92701 20.7813 7.32334 20.7813 7.71893 20.7813C7.71893 20.3857 7.71893 19.9894 7.71893 19.5938C7.32334 19.5938 6.92701 19.5938 6.53143 19.5938Z" fill="#A6A6A6"/>
<path d="M10.0938 18.4062C14.4482 18.4062 18.8018 18.4062 23.1562 18.4062C23.1562 18.8018 23.1562 19.1982 23.1562 19.5938C18.8018 19.5938 14.4482 19.5938 10.0938 19.5938C10.0938 19.1982 10.0938 18.8018 10.0938 18.4062Z" fill="#A6A6A6"/>
<path d="M10.0938 20.7812C13.6562 20.7812 17.2188 20.7812 20.7812 20.7812C20.7812 21.1768 20.7812 21.5732 20.7812 21.9688C17.2188 21.9688 13.6562 21.9688 10.0938 21.9688C10.0938 21.5732 10.0938 21.1768 10.0938 20.7812Z" fill="#A6A6A6"/>
<path d="M21.9688 20.7812C22.3643 20.7812 22.7599 20.7812 23.1562 20.7812C23.1562 21.1768 23.1562 21.5724 23.1562 21.9688C22.7599 21.9688 22.3643 21.9688 21.9688 21.9688C21.9688 21.5724 21.9688 21.1768 21.9688 20.7812Z" fill="#A6A6A6"/>
<path d="M5.74332 23.1901C6.57012 23.1122 7.40953 23.1767 8.24152 23.156C8.57996 23.1196 8.91394 23.3986 8.90281 23.746C8.90949 24.5424 8.91023 25.3395 8.90207 26.1351C8.90727 26.4438 8.63266 26.7192 8.32391 26.714C7.57801 26.7266 6.83211 26.7133 6.08621 26.7199C5.86652 26.7296 5.62086 26.6873 5.47984 26.5002C5.3173 26.3177 5.34699 26.0579 5.3418 25.8315C5.3507 25.1361 5.33586 24.4407 5.34773 23.7452C5.34328 23.4996 5.51027 23.2658 5.74332 23.1901ZM6.53152 24.3435C6.53152 24.739 6.53152 25.1354 6.53152 25.531C6.92711 25.531 7.32344 25.531 7.71902 25.531C7.71902 25.1354 7.71902 24.739 7.71902 24.3435C7.32344 24.3435 6.92711 24.3435 6.53152 24.3435Z" fill="#A6A6A6"/>
<path d="M10.0938 23.1562C14.4482 23.1562 18.8018 23.1562 23.1562 23.1562C23.1562 23.5518 23.1562 23.9474 23.1562 24.3438C18.8018 24.3438 14.4482 24.3438 10.0938 24.3438C10.0938 23.9482 10.0938 23.5518 10.0938 23.1562Z" fill="#A6A6A6"/>
<path d="M10.0938 25.5312C13.6562 25.5312 17.2188 25.5312 20.7812 25.5312C20.7812 25.9268 20.7812 26.3224 20.7812 26.7188C17.2188 26.7188 13.6562 26.7188 10.0938 26.7188C10.0938 26.3224 10.0938 25.9268 10.0938 25.5312Z" fill="#A6A6A6"/>
<path d="M18.4316 29.4157C18.8821 28.9756 19.3208 28.5244 19.7691 28.082C20.0504 28.3596 20.3264 28.6424 20.6077 28.92C20.1617 29.366 19.7179 29.8143 19.2688 30.2581C18.7812 30.7435 18.0435 30.9595 17.3718 30.8066C16.873 30.7131 16.4589 30.3925 16.1227 30.028C15.8614 30.4207 15.5995 30.8133 15.3382 31.2059C15.0102 30.984 14.6784 30.7673 14.3496 30.5461C14.7415 29.9642 15.1259 29.3786 15.5171 28.7975C15.6395 28.5993 15.8718 28.4724 16.1064 28.5088C16.3312 28.5281 16.4856 28.7107 16.637 28.8576C16.8649 29.078 17.0697 29.3237 17.3213 29.5182C17.6516 29.7653 18.1481 29.7089 18.4316 29.4157Z" fill="#A6A6A6"/>
</g>
<defs>
<clipPath id="clip0_6189_59253">
<rect width="38" height="38" fill="white"/>
</clipPath>
</defs>
</svg>
