<svg width="213" height="201" viewBox="0 0 213 201" fill="none" xmlns="http://www.w3.org/2000/svg">
<g clip-path="url(#clip0_1302_467)">
<path d="M124.563 19.168C123.958 9.80433 117.446 0.774902 105.504 0.774902C94.5811 0.774902 86.1578 8.89374 85.7117 19.7288C79.7355 21.5882 76.4727 27.9836 76.4727 32.6385C76.4727 39.8057 82.429 46.092 89.2181 46.092H98.4231C98.6109 46.092 98.791 46.0174 98.9238 45.8846C99.0566 45.7518 99.1312 45.5717 99.1312 45.3839C99.1312 45.1961 99.0566 45.016 98.9238 44.8832C98.791 44.7504 98.6109 44.6758 98.4231 44.6758H89.2181C83.1824 44.6758 77.8888 39.0509 77.8888 32.6385C77.8888 28.3178 81.6756 20.6011 89.2181 20.6011H91.3423C91.5301 20.6011 91.7102 20.5265 91.843 20.3937C91.9758 20.261 92.0504 20.0808 92.0504 19.8931C92.0504 19.7053 91.9758 19.5252 91.843 19.3924C91.7102 19.2596 91.5301 19.185 91.3423 19.185H89.2181C88.4973 19.185 87.8161 19.2657 87.1519 19.3818C87.707 10.899 94.1548 2.19106 105.504 2.19106C117.666 2.19106 123.206 11.7346 123.206 20.6011V22.7254C123.206 22.9132 123.281 23.0933 123.413 23.2261C123.546 23.3589 123.726 23.4335 123.914 23.4335C124.102 23.4335 124.282 23.3589 124.415 23.2261C124.547 23.0933 124.622 22.9132 124.622 22.7254V20.5884C128.897 21.0571 134.535 25.6455 134.535 32.6385C134.535 38.0567 129.308 44.6758 123.206 44.6758H112.585C107.999 44.6758 106.212 42.8886 106.212 38.3031V18.8777L111.987 24.6414C112.052 24.7092 112.13 24.7632 112.217 24.8004C112.303 24.8377 112.396 24.8573 112.49 24.8583C112.584 24.8592 112.677 24.8414 112.764 24.8059C112.851 24.7705 112.93 24.718 112.997 24.6516C113.064 24.5852 113.116 24.5062 113.152 24.4193C113.188 24.3323 113.206 24.2391 113.205 24.1451C113.204 24.0511 113.185 23.9581 113.148 23.8717C113.111 23.7853 113.057 23.707 112.99 23.6416L106.672 17.3369C105.831 16.4985 105.178 16.4985 104.338 17.3369L98.0209 23.6416C97.892 23.7752 97.8206 23.954 97.8222 24.1397C97.8238 24.3253 97.8983 24.5029 98.0296 24.6342C98.1608 24.7655 98.3384 24.84 98.5241 24.8416C98.7098 24.8432 98.8886 24.7718 99.0222 24.6429L104.796 18.8777V38.3031C104.796 43.6902 107.198 46.092 112.585 46.092H123.206C130.07 46.092 135.951 38.694 135.951 32.6385C135.951 25.3212 129.971 19.5985 124.563 19.168Z" fill="black"/>
</g>
<path d="M14.0236 79.722H15.9496V95.583H14.0236V79.722ZM18.7819 95.583H15.0886V93.657H18.7819C19.6732 93.657 20.4889 93.5211 21.229 93.2492C21.9692 92.9622 22.6037 92.5619 23.1324 92.0483C23.6611 91.5196 24.0689 90.8851 24.3559 90.145C24.6429 89.4048 24.7864 88.574 24.7864 87.6525C24.7864 86.7311 24.6429 85.9003 24.3559 85.1601C24.0689 84.4199 23.6611 83.793 23.1324 83.2794C22.6037 82.7507 21.9692 82.3504 21.229 82.0785C20.4889 81.7915 19.6732 81.648 18.7819 81.648H15.0886V79.722H18.7819C20.3227 79.722 21.6898 80.0543 22.8831 80.719C24.0765 81.3836 25.013 82.3126 25.6928 83.506C26.3725 84.6842 26.7124 86.0664 26.7124 87.6525C26.7124 89.2386 26.3725 90.6283 25.6928 91.8217C25.013 92.9999 24.0765 93.9214 22.8831 94.586C21.6898 95.2507 20.3227 95.583 18.7819 95.583ZM31.1237 85.1601V95.583H29.3111V85.1601H31.1237ZM34.2733 87.154C34.0316 86.9728 33.8126 86.8444 33.6162 86.7688C33.4198 86.6782 33.1706 86.6329 32.8685 86.6329C32.4153 86.6329 32.0603 86.7462 31.8035 86.9728C31.5467 87.1993 31.3654 87.509 31.2597 87.9018C31.1691 88.2945 31.1237 88.7401 31.1237 89.2386H30.308C30.308 88.4078 30.4515 87.6752 30.7386 87.0407C31.0407 86.3912 31.4259 85.8776 31.8941 85.5C32.3624 85.1223 32.8382 84.9335 33.3216 84.9335C33.6993 84.9335 34.0467 84.9864 34.3639 85.0921C34.6962 85.1827 34.9984 85.3716 35.2703 85.6586L34.2733 87.154ZM37.8935 92.3655C37.8935 92.7582 37.9842 93.0981 38.1654 93.3851C38.3618 93.6721 38.6261 93.8912 38.9585 94.0422C39.3059 94.1782 39.6987 94.2462 40.1367 94.2462C40.6956 94.2462 41.1941 94.1329 41.6322 93.9063C42.0854 93.6797 42.4403 93.3625 42.6971 92.9546C42.969 92.5317 43.105 92.0483 43.105 91.5045L43.4675 92.864C43.4675 93.5286 43.2636 94.08 42.8557 94.5181C42.463 94.9561 41.9721 95.2809 41.3829 95.4924C40.8089 95.7039 40.2349 95.8096 39.6609 95.8096C39.0264 95.8096 38.4298 95.6812 37.8709 95.4244C37.3271 95.1525 36.889 94.7673 36.5567 94.2688C36.2243 93.7703 36.0582 93.1661 36.0582 92.4561C36.0582 91.444 36.4132 90.6359 37.1231 90.0317C37.8482 89.4123 38.8527 89.1027 40.1367 89.1027C40.892 89.1027 41.5189 89.1933 42.0174 89.3746C42.531 89.5407 42.9388 89.7371 43.2409 89.9637C43.5431 90.1752 43.747 90.3489 43.8527 90.4848V91.5498C43.324 91.1872 42.7802 90.9305 42.2213 90.7794C41.6624 90.6132 41.0657 90.5302 40.4313 90.5302C39.8422 90.5302 39.3588 90.6057 38.9811 90.7567C38.6186 90.9078 38.3467 91.1193 38.1654 91.3912C37.9842 91.6631 37.8935 91.9879 37.8935 92.3655ZM37.6216 87.5619L36.7379 86.225C37.1307 85.938 37.6669 85.651 38.3467 85.364C39.0416 85.077 39.8724 84.9335 40.8391 84.9335C41.6548 84.9335 42.3648 85.0619 42.969 85.3187C43.5884 85.5604 44.0642 85.9154 44.3965 86.3836C44.744 86.8519 44.9177 87.4259 44.9177 88.1057V95.583H43.105V88.3549C43.105 87.9924 43.0446 87.6978 42.9237 87.4712C42.8029 87.2296 42.6292 87.0407 42.4026 86.9048C42.1911 86.7688 41.9418 86.6706 41.6548 86.6102C41.3678 86.5498 41.0657 86.5196 40.7485 86.5196C40.2349 86.5196 39.7666 86.58 39.3437 86.7009C38.9358 86.8217 38.5884 86.9652 38.3014 87.1314C38.0144 87.2975 37.7878 87.441 37.6216 87.5619ZM47.2842 96.2628H49.1196C49.1196 96.7613 49.2555 97.222 49.5274 97.6449C49.7993 98.083 50.1845 98.4304 50.683 98.6872C51.1815 98.9591 51.7706 99.0951 52.4504 99.0951C52.9791 99.0951 53.5002 98.9667 54.0138 98.7099C54.5274 98.4531 54.9504 98.0452 55.2827 97.4863C55.6301 96.9425 55.8039 96.2326 55.8039 95.3564V85.1601H57.6165V95.3564C57.6165 96.5498 57.3673 97.5467 56.8688 98.3474C56.3703 99.1631 55.7283 99.7748 54.9428 100.183C54.1573 100.591 53.3265 100.794 52.4504 100.794C51.4383 100.794 50.5395 100.606 49.754 100.228C48.9836 99.8504 48.3794 99.3141 47.9413 98.6193C47.5033 97.9395 47.2842 97.154 47.2842 96.2628ZM47.0803 90.3715C47.0803 89.2386 47.3145 88.2718 47.7827 87.4712C48.251 86.6555 48.8779 86.0287 49.6634 85.5906C50.4489 85.1525 51.3099 84.9335 52.2465 84.9335C53.1226 84.9335 53.8854 85.1525 54.535 85.5906C55.1845 86.0287 55.6906 86.6555 56.0531 87.4712C56.4308 88.2718 56.6196 89.2386 56.6196 90.3715C56.6196 91.4894 56.4308 92.4561 56.0531 93.2718C55.6906 94.0875 55.1845 94.7144 54.535 95.1525C53.8854 95.5906 53.1226 95.8096 52.2465 95.8096C51.3099 95.8096 50.4489 95.5906 49.6634 95.1525C48.8779 94.7144 48.251 94.0875 47.7827 93.2718C47.3145 92.4561 47.0803 91.4894 47.0803 90.3715ZM48.9157 90.3715C48.9157 91.1721 49.0743 91.8519 49.3915 92.4108C49.7238 92.9697 50.1619 93.3927 50.7057 93.6797C51.2495 93.9667 51.8386 94.1102 52.4731 94.1102C53.0018 94.1102 53.5229 93.9667 54.0365 93.6797C54.5501 93.3927 54.9731 92.9697 55.3054 92.4108C55.6377 91.8519 55.8039 91.1721 55.8039 90.3715C55.8039 89.7673 55.7057 89.2386 55.5093 88.7854C55.3129 88.3172 55.0486 87.9244 54.7163 87.6072C54.399 87.29 54.0441 87.0483 53.6513 86.8821C53.2586 86.716 52.8658 86.6329 52.4731 86.6329C51.8386 86.6329 51.2495 86.7764 50.7057 87.0634C50.1619 87.3504 49.7238 87.7734 49.3915 88.3323C49.0743 88.8912 48.9157 89.5709 48.9157 90.3715ZM66.1162 85.1601H71.3276V86.8595H66.1162V85.1601ZM67.8156 81.5347H69.6282V95.583H67.8156V81.5347ZM72.2393 90.3715C72.2393 89.3141 72.4734 88.3776 72.9417 87.5619C73.4251 86.7462 74.0746 86.1042 74.8903 85.6359C75.706 85.1676 76.6199 84.9335 77.632 84.9335C78.6592 84.9335 79.5731 85.1676 80.3737 85.6359C81.1894 86.1042 81.8314 86.7462 82.2997 87.5619C82.7831 88.3776 83.0247 89.3141 83.0247 90.3715C83.0247 91.4138 82.7831 92.3504 82.2997 93.1812C81.8314 93.9969 81.1894 94.6389 80.3737 95.1072C79.5731 95.5755 78.6592 95.8096 77.632 95.8096C76.6199 95.8096 75.706 95.5755 74.8903 95.1072C74.0746 94.6389 73.4251 93.9969 72.9417 93.1812C72.4734 92.3504 72.2393 91.4138 72.2393 90.3715ZM74.0746 90.3715C74.0746 91.0966 74.2257 91.7386 74.5278 92.2975C74.845 92.8564 75.268 93.302 75.7967 93.6344C76.3405 93.9516 76.9523 94.1102 77.632 94.1102C78.3118 94.1102 78.916 93.9516 79.4447 93.6344C79.9885 93.302 80.4115 92.8564 80.7136 92.2975C81.0308 91.7386 81.1894 91.0966 81.1894 90.3715C81.1894 89.6465 81.0308 89.0045 80.7136 88.4456C80.4115 87.8715 79.9885 87.4259 79.4447 87.1087C78.916 86.7915 78.3118 86.6329 77.632 86.6329C76.9523 86.6329 76.3405 86.7915 75.7967 87.1087C75.268 87.4259 74.845 87.8715 74.5278 88.4456C74.2257 89.0045 74.0746 89.6465 74.0746 90.3715ZM92.308 79.722H94.234V90.3715C94.234 91.4592 94.5286 92.3353 95.1177 92.9999C95.7068 93.6646 96.5678 93.9969 97.7008 93.9969C98.8337 93.9969 99.6947 93.6646 100.284 92.9999C100.873 92.3353 101.168 91.4592 101.168 90.3715V79.722H103.093V90.3715C103.093 91.157 102.965 91.8821 102.708 92.5468C102.467 93.2114 102.104 93.7854 101.621 94.2688C101.152 94.7522 100.586 95.1298 99.9213 95.4017C99.2566 95.6736 98.5165 95.8096 97.7008 95.8096C96.8851 95.8096 96.1449 95.6736 95.4802 95.4017C94.8156 95.1298 94.2416 94.7522 93.7582 94.2688C93.2899 93.7854 92.9274 93.2114 92.6706 92.5468C92.4289 91.8821 92.308 91.157 92.308 90.3715V79.722ZM108.191 100.568H106.378V85.1601H108.191V100.568ZM116.915 90.3715C116.915 91.4894 116.681 92.4561 116.212 93.2718C115.744 94.0875 115.117 94.7144 114.332 95.1525C113.561 95.5906 112.7 95.8096 111.749 95.8096C110.888 95.8096 110.125 95.5906 109.46 95.1525C108.81 94.7144 108.297 94.0875 107.919 93.2718C107.557 92.4561 107.375 91.4894 107.375 90.3715C107.375 89.2386 107.557 88.2718 107.919 87.4712C108.297 86.6555 108.81 86.0287 109.46 85.5906C110.125 85.1525 110.888 84.9335 111.749 84.9335C112.7 84.9335 113.561 85.1525 114.332 85.5906C115.117 86.0287 115.744 86.6555 116.212 87.4712C116.681 88.2718 116.915 89.2386 116.915 90.3715ZM115.079 90.3715C115.079 89.5709 114.913 88.8912 114.581 88.3323C114.264 87.7734 113.833 87.3504 113.289 87.0634C112.761 86.7764 112.171 86.6329 111.522 86.6329C110.993 86.6329 110.472 86.7764 109.959 87.0634C109.445 87.3504 109.022 87.7734 108.69 88.3323C108.357 88.8912 108.191 89.5709 108.191 90.3715C108.191 91.1721 108.357 91.8519 108.69 92.4108C109.022 92.9697 109.445 93.3927 109.959 93.6797C110.472 93.9667 110.993 94.1102 111.522 94.1102C112.171 94.1102 112.761 93.9667 113.289 93.6797C113.833 93.3927 114.264 92.9697 114.581 92.4108C114.913 91.8519 115.079 91.1721 115.079 90.3715ZM119.414 77.9093H121.227V95.583H119.414V77.9093ZM123.73 90.3715C123.73 89.3141 123.964 88.3776 124.432 87.5619C124.916 86.7462 125.565 86.1042 126.381 85.6359C127.197 85.1676 128.111 84.9335 129.123 84.9335C130.15 84.9335 131.064 85.1676 131.864 85.6359C132.68 86.1042 133.322 86.7462 133.79 87.5619C134.274 88.3776 134.515 89.3141 134.515 90.3715C134.515 91.4138 134.274 92.3504 133.79 93.1812C133.322 93.9969 132.68 94.6389 131.864 95.1072C131.064 95.5755 130.15 95.8096 129.123 95.8096C128.111 95.8096 127.197 95.5755 126.381 95.1072C125.565 94.6389 124.916 93.9969 124.432 93.1812C123.964 92.3504 123.73 91.4138 123.73 90.3715ZM125.565 90.3715C125.565 91.0966 125.716 91.7386 126.018 92.2975C126.336 92.8564 126.759 93.302 127.287 93.6344C127.831 93.9516 128.443 94.1102 129.123 94.1102C129.802 94.1102 130.407 93.9516 130.935 93.6344C131.479 93.302 131.902 92.8564 132.204 92.2975C132.521 91.7386 132.68 91.0966 132.68 90.3715C132.68 89.6465 132.521 89.0045 132.204 88.4456C131.902 87.8715 131.479 87.4259 130.935 87.1087C130.407 86.7915 129.802 86.6329 129.123 86.6329C128.443 86.6329 127.831 86.7915 127.287 87.1087C126.759 87.4259 126.336 87.8715 126.018 88.4456C125.716 89.0045 125.565 89.6465 125.565 90.3715ZM137.821 92.3655C137.821 92.7582 137.912 93.0981 138.093 93.3851C138.29 93.6721 138.554 93.8912 138.886 94.0422C139.234 94.1782 139.626 94.2462 140.064 94.2462C140.623 94.2462 141.122 94.1329 141.56 93.9063C142.013 93.6797 142.368 93.3625 142.625 92.9546C142.897 92.5317 143.033 92.0483 143.033 91.5045L143.395 92.864C143.395 93.5286 143.191 94.08 142.783 94.5181C142.391 94.9561 141.9 95.2809 141.311 95.4924C140.737 95.7039 140.163 95.8096 139.589 95.8096C138.954 95.8096 138.358 95.6812 137.799 95.4244C137.255 95.1525 136.817 94.7673 136.484 94.2688C136.152 93.7703 135.986 93.1661 135.986 92.4561C135.986 91.444 136.341 90.6359 137.051 90.0317C137.776 89.4123 138.78 89.1027 140.064 89.1027C140.82 89.1027 141.447 89.1933 141.945 89.3746C142.459 89.5407 142.867 89.7371 143.169 89.9637C143.471 90.1752 143.675 90.3489 143.78 90.4848V91.5498C143.252 91.1872 142.708 90.9305 142.149 90.7794C141.59 90.6132 140.993 90.5302 140.359 90.5302C139.77 90.5302 139.287 90.6057 138.909 90.7567C138.546 90.9078 138.274 91.1193 138.093 91.3912C137.912 91.6631 137.821 91.9879 137.821 92.3655ZM137.549 87.5619L136.666 86.225C137.058 85.938 137.595 85.651 138.274 85.364C138.969 85.077 139.8 84.9335 140.767 84.9335C141.583 84.9335 142.293 85.0619 142.897 85.3187C143.516 85.5604 143.992 85.9154 144.324 86.3836C144.672 86.8519 144.845 87.4259 144.845 88.1057V95.583H143.033V88.3549C143.033 87.9924 142.972 87.6978 142.851 87.4712C142.731 87.2296 142.557 87.0407 142.33 86.9048C142.119 86.7688 141.87 86.6706 141.583 86.6102C141.296 86.5498 140.993 86.5196 140.676 86.5196C140.163 86.5196 139.694 86.58 139.271 86.7009C138.864 86.8217 138.516 86.9652 138.229 87.1314C137.942 87.2975 137.716 87.441 137.549 87.5619ZM155.732 77.9093H157.544V95.583H155.732V77.9093ZM147.008 90.3715C147.008 89.2386 147.242 88.2718 147.71 87.4712C148.179 86.6555 148.806 86.0287 149.591 85.5906C150.377 85.1525 151.238 84.9335 152.174 84.9335C153.05 84.9335 153.813 85.1525 154.463 85.5906C155.112 86.0287 155.618 86.6555 155.981 87.4712C156.359 88.2718 156.547 89.2386 156.547 90.3715C156.547 91.4894 156.359 92.4561 155.981 93.2718C155.618 94.0875 155.112 94.7144 154.463 95.1525C153.813 95.5906 153.05 95.8096 152.174 95.8096C151.238 95.8096 150.377 95.5906 149.591 95.1525C148.806 94.7144 148.179 94.0875 147.71 93.2718C147.242 92.4561 147.008 91.4894 147.008 90.3715ZM148.843 90.3715C148.843 91.1721 149.002 91.8519 149.319 92.4108C149.652 92.9697 150.09 93.3927 150.633 93.6797C151.177 93.9667 151.766 94.1102 152.401 94.1102C152.93 94.1102 153.451 93.9667 153.964 93.6797C154.478 93.3927 154.901 92.9697 155.233 92.4108C155.565 91.8519 155.732 91.1721 155.732 90.3715C155.732 89.5709 155.565 88.8912 155.233 88.3323C154.901 87.7734 154.478 87.3504 153.964 87.0634C153.451 86.7764 152.93 86.6329 152.401 86.6329C151.766 86.6329 151.177 86.7764 150.633 87.0634C150.09 87.3504 149.652 87.7734 149.319 88.3323C149.002 88.8912 148.843 89.5709 148.843 90.3715ZM168.808 81.5347V79.722H175.9V81.5347H168.808ZM168.808 87.8791V86.0664H175.674V87.8791H168.808ZM167.743 79.722H169.669V95.583H167.743V79.722ZM178.959 80.8549C178.959 80.5075 179.08 80.213 179.322 79.9713C179.579 79.7296 179.873 79.6087 180.205 79.6087C180.553 79.6087 180.847 79.7296 181.089 79.9713C181.331 80.213 181.452 80.5075 181.452 80.8549C181.452 81.1873 181.331 81.4818 181.089 81.7386C180.847 81.9803 180.553 82.1012 180.205 82.1012C179.873 82.1012 179.579 81.9803 179.322 81.7386C179.08 81.4818 178.959 81.1873 178.959 80.8549ZM179.299 85.1601H181.112V95.583H179.299V85.1601ZM184.845 77.9093H186.658V95.583H184.845V77.9093ZM194.101 95.8096C193.134 95.8096 192.273 95.583 191.517 95.1298C190.777 94.6616 190.196 94.0196 189.773 93.2039C189.365 92.3882 189.161 91.444 189.161 90.3715C189.161 89.2839 189.372 88.3323 189.795 87.5166C190.233 86.7009 190.838 86.0664 191.608 85.6132C192.394 85.1601 193.3 84.9335 194.327 84.9335C195.354 84.9335 196.23 85.1525 196.955 85.5906C197.696 86.0135 198.262 86.6253 198.655 87.4259C199.048 88.2265 199.244 89.1782 199.244 90.2809C199.244 90.3866 199.236 90.4999 199.221 90.6208C199.221 90.7265 199.221 90.7945 199.221 90.8247H190.317V89.2839H197.794L197.069 90.3262C197.114 90.2507 197.159 90.1374 197.205 89.9863C197.25 89.8202 197.273 89.6842 197.273 89.5785C197.273 88.9592 197.144 88.4229 196.888 87.9697C196.646 87.5166 196.306 87.1616 195.868 86.9048C195.43 86.648 194.916 86.5196 194.327 86.5196C193.632 86.5196 193.036 86.6706 192.537 86.9728C192.054 87.2598 191.676 87.6827 191.404 88.2416C191.147 88.7854 191.011 89.4576 190.996 90.2582C190.996 91.074 191.125 91.7688 191.381 92.3428C191.638 92.9169 192.016 93.3549 192.514 93.657C193.013 93.9591 193.617 94.1102 194.327 94.1102C195.037 94.1102 195.664 93.9591 196.208 93.657C196.752 93.3398 197.212 92.864 197.59 92.2295L199.063 93.1585C198.519 94.0347 197.832 94.6993 197.001 95.1525C196.185 95.5906 195.218 95.8096 194.101 95.8096Z" fill="black"/>
<path d="M96.504 132.372C96.504 131.314 96.7381 130.378 97.2064 129.562C97.6898 128.746 98.3393 128.104 99.155 127.636C99.9707 127.168 100.885 126.933 101.897 126.933C102.924 126.933 103.838 127.168 104.638 127.636C105.454 128.104 106.096 128.746 106.564 129.562C107.048 130.378 107.289 131.314 107.289 132.372C107.289 133.414 107.048 134.35 106.564 135.181C106.096 135.997 105.454 136.639 104.638 137.107C103.838 137.575 102.924 137.81 101.897 137.81C100.885 137.81 99.9707 137.575 99.155 137.107C98.3393 136.639 97.6898 135.997 97.2064 135.181C96.7381 134.35 96.504 133.414 96.504 132.372ZM98.3393 132.372C98.3393 133.097 98.4904 133.739 98.7925 134.298C99.1097 134.856 99.5327 135.302 100.061 135.634C100.605 135.952 101.217 136.11 101.897 136.11C102.576 136.11 103.181 135.952 103.709 135.634C104.253 135.302 104.676 134.856 104.978 134.298C105.296 133.739 105.454 133.097 105.454 132.372C105.454 131.646 105.296 131.004 104.978 130.446C104.676 129.872 104.253 129.426 103.709 129.109C103.181 128.791 102.576 128.633 101.897 128.633C101.217 128.633 100.605 128.791 100.061 129.109C99.5327 129.426 99.1097 129.872 98.7925 130.446C98.4904 131.004 98.3393 131.646 98.3393 132.372ZM111.592 127.16V137.583H109.78V127.16H111.592ZM114.742 129.154C114.5 128.973 114.281 128.844 114.085 128.769C113.888 128.678 113.639 128.633 113.337 128.633C112.884 128.633 112.529 128.746 112.272 128.973C112.015 129.199 111.834 129.509 111.728 129.902C111.638 130.295 111.592 130.74 111.592 131.239H110.777C110.777 130.408 110.92 129.675 111.207 129.041C111.509 128.391 111.894 127.878 112.363 127.5C112.831 127.122 113.307 126.933 113.79 126.933C114.168 126.933 114.515 126.986 114.832 127.092C115.165 127.183 115.467 127.372 115.739 127.659L114.742 129.154Z" fill="black"/>
<rect x="0.70808" y="156.291" width="211.008" height="43.9009" rx="21.9505" stroke="#8F1402" stroke-width="1.41616"/>
<path d="M41.5691 178.28V177.215H44.1295C44.6582 177.215 45.134 177.125 45.557 176.944C45.98 176.762 46.3123 176.498 46.554 176.15C46.7957 175.803 46.9165 175.38 46.9165 174.882C46.9165 174.126 46.6522 173.545 46.1235 173.137C45.5948 172.714 44.9301 172.502 44.1295 172.502H41.9769V184.965H44.3561C45.0358 184.965 45.6325 184.844 46.1461 184.602C46.6748 184.36 47.0827 184.013 47.3697 183.56C47.6718 183.107 47.8228 182.555 47.8228 181.906C47.8228 181.422 47.7398 180.992 47.5736 180.614C47.4074 180.237 47.1658 179.919 46.8485 179.663C46.5464 179.406 46.1839 179.217 45.7609 179.096C45.338 178.96 44.8697 178.892 44.3561 178.892H41.5691V177.827H44.3561C45.1265 177.827 45.8364 177.91 46.486 178.076C47.1355 178.243 47.702 178.499 48.1854 178.847C48.6839 179.179 49.0691 179.61 49.341 180.138C49.6129 180.667 49.7488 181.294 49.7488 182.019C49.7488 183.061 49.5071 183.93 49.0238 184.625C48.5555 185.305 47.9135 185.818 47.0978 186.166C46.2972 186.498 45.3833 186.664 44.3561 186.664H40.051V170.803H44.1295C45.0812 170.803 45.9044 170.947 46.5993 171.234C47.3093 171.521 47.8606 171.959 48.2534 172.548C48.6461 173.122 48.8425 173.862 48.8425 174.768C48.8425 175.509 48.6461 176.143 48.2534 176.672C47.8606 177.2 47.3093 177.601 46.5993 177.873C45.9044 178.144 45.0812 178.28 44.1295 178.28H41.5691ZM54.3852 176.241V186.664H52.5725V176.241H54.3852ZM57.5347 178.235C57.293 178.054 57.074 177.925 56.8776 177.85C56.6812 177.759 56.432 177.714 56.1299 177.714C55.6767 177.714 55.3217 177.827 55.0649 178.054C54.8081 178.28 54.6268 178.59 54.5211 178.983C54.4305 179.376 54.3852 179.821 54.3852 180.32H53.5694C53.5694 179.489 53.713 178.756 54 178.122C54.3021 177.472 54.6873 176.959 55.1555 176.581C55.6238 176.203 56.0997 176.015 56.583 176.015C56.9607 176.015 57.3081 176.067 57.6253 176.173C57.9577 176.264 58.2598 176.453 58.5317 176.74L57.5347 178.235ZM59.101 181.453C59.101 180.395 59.3351 179.459 59.8034 178.643C60.2868 177.827 60.9363 177.185 61.752 176.717C62.5677 176.249 63.4816 176.015 64.4937 176.015C65.5209 176.015 66.4348 176.249 67.2354 176.717C68.0511 177.185 68.6931 177.827 69.1614 178.643C69.6447 179.459 69.8864 180.395 69.8864 181.453C69.8864 182.495 69.6447 183.431 69.1614 184.262C68.6931 185.078 68.0511 185.72 67.2354 186.188C66.4348 186.657 65.5209 186.891 64.4937 186.891C63.4816 186.891 62.5677 186.657 61.752 186.188C60.9363 185.72 60.2868 185.078 59.8034 184.262C59.3351 183.431 59.101 182.495 59.101 181.453ZM60.9363 181.453C60.9363 182.178 61.0874 182.82 61.3895 183.379C61.7067 183.937 62.1297 184.383 62.6584 184.715C63.2022 185.033 63.8139 185.191 64.4937 185.191C65.1735 185.191 65.7777 185.033 66.3064 184.715C66.8502 184.383 67.2731 183.937 67.5753 183.379C67.8925 182.82 68.0511 182.178 68.0511 181.453C68.0511 180.728 67.8925 180.086 67.5753 179.527C67.2731 178.953 66.8502 178.507 66.3064 178.19C65.7777 177.873 65.1735 177.714 64.4937 177.714C63.8139 177.714 63.2022 177.873 62.6584 178.19C62.1297 178.507 61.7067 178.953 61.3895 179.527C61.0874 180.086 60.9363 180.728 60.9363 181.453ZM70.4586 176.241H72.4978L75.1036 183.016L77.9359 175.448L80.9721 183.061L83.6005 176.241H85.6398L81.1081 187.457L77.9585 179.866L74.9903 187.457L70.4586 176.241ZM87.8759 183.469C88.0874 183.786 88.3291 184.081 88.601 184.353C88.8729 184.625 89.1825 184.844 89.53 185.01C89.8925 185.161 90.2853 185.237 90.7082 185.237C91.2218 185.237 91.6221 185.123 91.9091 184.897C92.2112 184.655 92.3623 184.33 92.3623 183.922C92.3623 183.56 92.2415 183.258 91.9998 183.016C91.7732 182.759 91.4786 182.548 91.1161 182.382C90.7535 182.2 90.3683 182.034 89.9605 181.883C89.5073 181.702 89.0466 181.49 88.5783 181.249C88.1252 180.992 87.74 180.667 87.4227 180.274C87.1206 179.866 86.9696 179.36 86.9696 178.756C86.9696 178.137 87.1282 177.623 87.4454 177.215C87.7777 176.808 88.2007 176.505 88.7143 176.309C89.243 176.113 89.7868 176.015 90.3457 176.015C90.9046 176.015 91.4257 176.105 91.9091 176.286C92.4076 176.468 92.8457 176.709 93.2233 177.012C93.601 177.314 93.8955 177.661 94.107 178.054L92.6569 178.983C92.3699 178.59 92.0073 178.265 91.5692 178.008C91.1463 177.752 90.6629 177.623 90.1191 177.623C89.7415 177.623 89.4167 177.706 89.1448 177.873C88.8729 178.039 88.7369 178.296 88.7369 178.643C88.7369 178.915 88.8427 179.157 89.0542 179.368C89.2656 179.579 89.5375 179.768 89.8699 179.934C90.2022 180.101 90.5496 180.259 90.9122 180.41C91.5164 180.652 92.0677 180.916 92.5662 181.203C93.0647 181.475 93.4575 181.808 93.7445 182.2C94.0466 182.593 94.1976 183.099 94.1976 183.718C94.1976 184.625 93.8653 185.38 93.2007 185.984C92.5511 186.589 91.6901 186.891 90.6176 186.891C89.9227 186.891 89.2958 186.77 88.7369 186.528C88.178 186.271 87.7022 185.947 87.3094 185.554C86.9318 185.161 86.6448 184.761 86.4484 184.353L87.8759 183.469ZM100.617 186.891C99.6505 186.891 98.7895 186.664 98.0342 186.211C97.294 185.743 96.7124 185.101 96.2895 184.285C95.8816 183.469 95.6777 182.525 95.6777 181.453C95.6777 180.365 95.8892 179.413 96.3121 178.598C96.7502 177.782 97.3544 177.147 98.1248 176.694C98.9103 176.241 99.8167 176.015 100.844 176.015C101.871 176.015 102.747 176.234 103.472 176.672C104.212 177.095 104.779 177.706 105.172 178.507C105.564 179.308 105.761 180.259 105.761 181.362C105.761 181.468 105.753 181.581 105.738 181.702C105.738 181.808 105.738 181.876 105.738 181.906H96.8333V180.365H104.311L103.586 181.407C103.631 181.332 103.676 181.218 103.721 181.067C103.767 180.901 103.789 180.765 103.789 180.66C103.789 180.04 103.661 179.504 103.404 179.051C103.163 178.598 102.823 178.243 102.385 177.986C101.947 177.729 101.433 177.601 100.844 177.601C100.149 177.601 99.5523 177.752 99.0538 178.054C98.5704 178.341 98.1928 178.764 97.9209 179.323C97.6641 179.866 97.5282 180.539 97.513 181.339C97.513 182.155 97.6414 182.85 97.8982 183.424C98.155 183.998 98.5327 184.436 99.0312 184.738C99.5297 185.04 100.134 185.191 100.844 185.191C101.554 185.191 102.181 185.04 102.725 184.738C103.268 184.421 103.729 183.945 104.107 183.311L105.579 184.24C105.036 185.116 104.348 185.78 103.518 186.234C102.702 186.672 101.735 186.891 100.617 186.891ZM116.217 172.616V170.803H123.309V172.616H116.217ZM116.217 178.96V177.147H123.082V178.96H116.217ZM115.152 170.803H117.078V186.664H115.152V170.803ZM126.368 171.936C126.368 171.589 126.488 171.294 126.73 171.052C126.987 170.811 127.282 170.69 127.614 170.69C127.961 170.69 128.256 170.811 128.498 171.052C128.739 171.294 128.86 171.589 128.86 171.936C128.86 172.268 128.739 172.563 128.498 172.82C128.256 173.061 127.961 173.182 127.614 173.182C127.282 173.182 126.987 173.061 126.73 172.82C126.488 172.563 126.368 172.268 126.368 171.936ZM126.708 176.241H128.52V186.664H126.708V176.241ZM132.254 168.99H134.066V186.664H132.254V168.99ZM141.509 186.891C140.542 186.891 139.681 186.664 138.926 186.211C138.186 185.743 137.604 185.101 137.181 184.285C136.773 183.469 136.569 182.525 136.569 181.453C136.569 180.365 136.781 179.413 137.204 178.598C137.642 177.782 138.246 177.147 139.016 176.694C139.802 176.241 140.708 176.015 141.735 176.015C142.763 176.015 143.639 176.234 144.364 176.672C145.104 177.095 145.67 177.706 146.063 178.507C146.456 179.308 146.652 180.259 146.652 181.362C146.652 181.468 146.645 181.581 146.63 181.702C146.63 181.808 146.63 181.876 146.63 181.906H137.725V180.365H145.202L144.477 181.407C144.522 181.332 144.568 181.218 144.613 181.067C144.658 180.901 144.681 180.765 144.681 180.66C144.681 180.04 144.553 179.504 144.296 179.051C144.054 178.598 143.714 178.243 143.276 177.986C142.838 177.729 142.325 177.601 141.735 177.601C141.041 177.601 140.444 177.752 139.945 178.054C139.462 178.341 139.084 178.764 138.813 179.323C138.556 179.866 138.42 180.539 138.405 181.339C138.405 182.155 138.533 182.85 138.79 183.424C139.047 183.998 139.424 184.436 139.923 184.738C140.421 185.04 141.025 185.191 141.735 185.191C142.445 185.191 143.072 185.04 143.616 184.738C144.16 184.421 144.621 183.945 144.998 183.311L146.471 184.24C145.927 185.116 145.24 185.78 144.409 186.234C143.593 186.672 142.627 186.891 141.509 186.891ZM149.567 183.469C149.779 183.786 150.021 184.081 150.292 184.353C150.564 184.625 150.874 184.844 151.221 185.01C151.584 185.161 151.977 185.237 152.4 185.237C152.913 185.237 153.314 185.123 153.601 184.897C153.903 184.655 154.054 184.33 154.054 183.922C154.054 183.56 153.933 183.258 153.691 183.016C153.465 182.759 153.17 182.548 152.808 182.382C152.445 182.2 152.06 182.034 151.652 181.883C151.199 181.702 150.738 181.49 150.27 181.249C149.817 180.992 149.431 180.667 149.114 180.274C148.812 179.866 148.661 179.36 148.661 178.756C148.661 178.137 148.82 177.623 149.137 177.215C149.469 176.808 149.892 176.505 150.406 176.309C150.934 176.113 151.478 176.015 152.037 176.015C152.596 176.015 153.117 176.105 153.601 176.286C154.099 176.468 154.537 176.709 154.915 177.012C155.292 177.314 155.587 177.661 155.798 178.054L154.348 178.983C154.061 178.59 153.699 178.265 153.261 178.008C152.838 177.752 152.354 177.623 151.811 177.623C151.433 177.623 151.108 177.706 150.836 177.873C150.564 178.039 150.428 178.296 150.428 178.643C150.428 178.915 150.534 179.157 150.746 179.368C150.957 179.579 151.229 179.768 151.561 179.934C151.894 180.101 152.241 180.259 152.604 180.41C153.208 180.652 153.759 180.916 154.258 181.203C154.756 181.475 155.149 181.808 155.436 182.2C155.738 182.593 155.889 183.099 155.889 183.718C155.889 184.625 155.557 185.38 154.892 185.984C154.243 186.589 153.382 186.891 152.309 186.891C151.614 186.891 150.987 186.77 150.428 186.528C149.869 186.271 149.394 185.947 149.001 185.554C148.623 185.161 148.336 184.761 148.14 184.353L149.567 183.469Z" fill="#8F1402"/>
<defs>
<clipPath id="clip0_1302_467">
<rect width="59.4787" height="45.3171" fill="white" transform="translate(76.4727 0.774902)"/>
</clipPath>
</defs>
</svg>
