<svg width="23" height="24" viewBox="0 0 23 24" fill="none" xmlns="http://www.w3.org/2000/svg">
<path fill-rule="evenodd" clip-rule="evenodd" d="M22.1193 17.6199V18.2637C21.8802 21.4333 19.5298 23.8234 16.3505 24H15.7416C14.3459 23.8815 13.1272 23.3626 12.0855 22.4434C12.0538 22.4155 12.0133 22.4002 11.9714 22.4002H0.555249C0.540596 22.4002 0.526543 22.3942 0.516182 22.3836C0.505821 22.3731 0.5 22.3587 0.5 22.3437V12.0494C0.5 12.0061 0.51121 11.9661 0.53363 11.9292L4.46954 5.63444C4.47941 5.61901 4.49305 5.6063 4.50921 5.59748C4.52537 5.58867 4.54353 5.58403 4.56202 5.58399L7.43498 5.5852C7.45227 5.5852 7.46925 5.58024 7.48392 5.57088C7.49859 5.56153 7.51036 5.54817 7.51785 5.53235L10.0785 0.0386553C10.0821 0.030708 10.0873 0.02356 10.0937 0.0176232C10.1001 0.0116864 10.1076 0.00707808 10.1159 0.00406373C10.1242 0.00104938 10.133 -0.000311414 10.1418 5.97545e-05C10.1506 0.000430923 10.1593 0.00252672 10.1674 0.00622639L17.321 3.3428C17.3266 3.34538 17.3316 3.34905 17.3358 3.3536C17.34 3.35814 17.3433 3.36347 17.3454 3.36927C17.3475 3.37508 17.3485 3.38125 17.3482 3.38742C17.3479 3.3936 17.3464 3.39966 17.3438 3.40525L16.0947 6.08124C16.0855 6.10148 16.0814 6.12363 16.0829 6.14566C16.0843 6.16769 16.0913 6.1889 16.1031 6.20735L19.6823 11.9341C19.7055 11.9709 19.7171 12.0113 19.7171 12.0554L19.7159 13.1267C19.7159 13.1716 19.7335 13.208 19.7688 13.236C21.1708 14.3506 21.9543 15.8119 22.1193 17.6199ZM15.6767 8.78244C15.6866 8.78244 15.6961 8.78637 15.703 8.79335C15.71 8.80033 15.714 8.8098 15.714 8.81968L15.6767 9.94698C15.6767 9.95187 15.6758 9.95671 15.6739 9.96123C15.672 9.96574 15.6693 9.96985 15.6658 9.9733C15.6624 9.97676 15.6583 9.97951 15.6537 9.98138C15.6492 9.98325 15.6444 9.98421 15.6395 9.98421H4.49596C4.48609 9.98421 4.47662 9.98029 4.46963 9.9733C4.46265 9.96632 4.45873 9.95685 4.45873 9.94698L4.49956 8.81968C4.49956 8.8098 4.50349 8.80033 4.51047 8.79335C4.51745 8.78637 4.52692 8.78244 4.5368 8.78244L5.97928 8.78364C5.98636 8.78361 5.99329 8.78156 5.99924 8.77773C6.0052 8.7739 6.00994 8.76845 6.01291 8.76202L7.09628 6.43315C7.09889 6.42749 7.10004 6.42127 7.09963 6.41504C7.09921 6.40882 7.09723 6.40281 7.09389 6.39755C7.09054 6.39229 7.08593 6.38795 7.08047 6.38494C7.07501 6.38193 7.06888 6.38033 7.06265 6.3803L5.33123 6.39703C5.32492 6.39714 5.31875 6.39885 5.31329 6.40201C5.30783 6.40516 5.30325 6.40964 5.3 6.41504L2.89291 10.975C2.88953 10.9806 2.88769 10.987 2.88757 10.9935C2.88745 11.0001 2.88905 11.0065 2.89222 11.0123C2.89538 11.018 2.9 11.0228 2.9056 11.0261C2.91121 11.0295 2.9176 11.0314 2.92414 11.0315L17.3 11.0281C17.3065 11.028 17.3129 11.0261 17.3185 11.0228C17.3241 11.0194 17.3288 11.0146 17.3319 11.0089C17.3351 11.0032 17.3367 10.9967 17.3366 10.9902C17.3364 10.9836 17.3346 10.9772 17.3312 10.9716L15.4072 7.24762C15.4036 7.24209 15.3985 7.23763 15.3926 7.2347C15.3866 7.23177 15.38 7.23049 15.3734 7.23098C15.3668 7.23147 15.3604 7.23371 15.355 7.23749C15.3495 7.24126 15.3452 7.24641 15.3424 7.25243L14.8624 8.7296C14.8598 8.73526 14.8586 8.74148 14.859 8.7477C14.8595 8.75392 14.8614 8.75994 14.8648 8.7652C14.8681 8.77046 14.8727 8.77479 14.8782 8.77781C14.8837 8.78082 14.8898 8.78242 14.896 8.78244H15.6767ZM11.2604 21.5222C9.22217 18.6144 9.97164 14.6833 13.0272 12.8517C13.0944 12.8116 13.0888 12.7916 13.0103 12.7916H2.30075C2.29056 12.7916 2.28078 12.7957 2.27357 12.8029C2.26636 12.8101 2.26231 12.8199 2.26231 12.83V21.533C2.26231 21.5499 2.26902 21.5661 2.28096 21.578C2.2929 21.59 2.30909 21.5967 2.32597 21.5967H11.222C11.282 21.5967 11.2948 21.5718 11.2604 21.5222ZM15.0192 19.3716L18.9094 15.4801C18.9141 15.4753 18.9197 15.4715 18.9259 15.4689C18.9321 15.4663 18.9387 15.465 18.9455 15.465C18.9522 15.465 18.9588 15.4663 18.965 15.4689C18.9712 15.4715 18.9768 15.4753 18.9815 15.4801L19.4751 15.975C19.4799 15.9797 19.4837 15.9853 19.4863 15.9915C19.4889 15.9977 19.4903 16.0043 19.4903 16.011C19.4903 16.0177 19.4889 16.0244 19.4863 16.0306C19.4837 16.0367 19.4799 16.0424 19.4751 16.047L15.018 20.5042C15.0133 20.509 15.0077 20.5128 15.0015 20.5154C14.9953 20.518 14.9886 20.5194 14.9819 20.5194C14.9752 20.5194 14.9686 20.518 14.9624 20.5154C14.9587 20.5139 14.9553 20.5119 14.9521 20.5096C14.9509 20.5087 14.9497 20.5077 14.9485 20.5067C14.9476 20.5059 14.9467 20.5051 14.9459 20.5042L12.7551 18.3123C12.7503 18.3076 12.7465 18.302 12.7439 18.2958C12.7413 18.2896 12.74 18.2829 12.74 18.2762C12.74 18.2695 12.7413 18.2629 12.7439 18.2567C12.7465 18.2505 12.7503 18.2449 12.7551 18.2402L13.2488 17.743C13.2535 17.7382 13.2591 17.7344 13.2653 17.7318C13.2715 17.7292 13.2781 17.7278 13.2848 17.7278C13.2915 17.7278 13.2982 17.7292 13.3044 17.7318C13.3105 17.7344 13.3161 17.7382 13.3208 17.743L14.9471 19.3716C14.9518 19.3764 14.9574 19.3802 14.9636 19.3828C14.9698 19.3854 14.9764 19.3867 14.9831 19.3867C14.9898 19.3867 14.9965 19.3854 15.0027 19.3828C15.0089 19.3802 15.0145 19.3764 15.0192 19.3716ZM9.52788 6.80273C9.2857 6.69491 9.00197 6.80382 8.89414 7.046C8.78632 7.28818 8.89523 7.57191 9.13741 7.67974L11.9107 8.9145C12.1529 9.02233 12.4366 8.91341 12.5445 8.67124C12.6523 8.42906 12.5434 8.14532 12.3012 8.0375L9.52788 6.80273ZM10.8666 3.0635C10.9745 2.82132 11.2582 2.71241 11.5004 2.82023L14.2737 4.055C14.5159 4.16282 14.6248 4.44656 14.517 4.68873C14.4091 4.93091 14.1254 5.03983 13.8832 4.932L11.1099 3.69724C10.8677 3.58941 10.7588 3.30568 10.8666 3.0635ZM10.4879 4.88273C10.2457 4.77491 9.96197 4.88382 9.85414 5.126C9.74632 5.36818 9.85523 5.65191 10.0974 5.75974L12.8707 6.9945C13.1129 7.10233 13.3966 6.99341 13.5045 6.75123C13.6123 6.50906 13.5034 6.22532 13.2612 6.1175L10.4879 4.88273Z" fill="white"/>
</svg>
