<svg width="10" height="10" viewBox="0 0 10 10" fill="none" xmlns="http://www.w3.org/2000/svg">
<path d="M9.125 7.18915V7.4404C9.03172 8.67743 8.11438 9.61024 6.87359 9.67915H6.63594C6.09125 9.6329 5.61562 9.4304 5.20906 9.07165C5.19669 9.06077 5.18086 9.05477 5.16453 9.05477H0.709062C0.703344 9.05477 0.697859 9.05245 0.693816 9.04832C0.689772 9.04419 0.6875 9.03858 0.6875 9.03274V5.01509C0.6875 4.99821 0.691875 4.98259 0.700625 4.96821L2.23672 2.51149C2.24057 2.50547 2.2459 2.50051 2.2522 2.49707C2.25851 2.49363 2.2656 2.49182 2.27281 2.4918L3.39406 2.49227C3.40081 2.49228 3.40744 2.49034 3.41316 2.48669C3.41889 2.48304 3.42348 2.47782 3.42641 2.47165L4.42578 0.327586C4.42718 0.324485 4.42918 0.321695 4.43169 0.319378C4.43419 0.317061 4.43714 0.315262 4.44036 0.314086C4.44359 0.31291 4.44702 0.312378 4.45047 0.312523C4.45392 0.312668 4.45732 0.313486 4.46047 0.31493L7.25234 1.61712C7.25454 1.61813 7.25651 1.61956 7.25814 1.62133C7.25978 1.62311 7.26104 1.62518 7.26187 1.62745C7.2627 1.62972 7.26307 1.63212 7.26296 1.63453C7.26286 1.63694 7.26228 1.63931 7.26125 1.64149L6.77375 2.68587C6.77015 2.69377 6.76856 2.70241 6.76913 2.71101C6.76971 2.71961 6.77242 2.72788 6.77703 2.73509L8.17391 4.97009C8.18297 4.98446 8.1875 5.00024 8.1875 5.01743L8.18703 5.43555C8.18703 5.45305 8.19391 5.46727 8.20766 5.47821C8.75484 5.91321 9.06063 6.48352 9.125 7.18915ZM3.18969 3.71852C3.18857 3.72082 3.18806 3.72336 3.1882 3.72591C3.18834 3.72846 3.18913 3.73093 3.19049 3.73309C3.19185 3.73524 3.19374 3.73702 3.19598 3.73825C3.19821 3.73947 3.20073 3.7401 3.20328 3.74009H5.92859C5.93143 3.74011 5.9342 3.73932 5.93661 3.73783C5.93902 3.73634 5.94095 3.73419 5.94219 3.73165L6.84734 1.78915C6.84822 1.78737 6.84873 1.78543 6.84885 1.78344C6.84897 1.78146 6.84869 1.77948 6.84804 1.7776C6.84739 1.77573 6.84637 1.774 6.84504 1.77252C6.84371 1.77104 6.84211 1.76984 6.84031 1.76899L4.60203 0.726024C4.60025 0.725149 4.59831 0.724637 4.59633 0.724517C4.59435 0.724398 4.59236 0.724673 4.59048 0.725327C4.58861 0.725981 4.58688 0.727001 4.5854 0.728328C4.58393 0.729654 4.58273 0.731261 4.58188 0.733055L3.18969 3.71852ZM6.61063 3.74009C6.61448 3.74009 6.61818 3.74162 6.6209 3.74434C6.62363 3.74707 6.62516 3.75076 6.62516 3.75462L6.62656 4.03962C6.62656 4.04153 6.62619 4.04342 6.62546 4.04518C6.62473 4.04694 6.62366 4.04854 6.62231 4.04989C6.62096 4.05124 6.61936 4.05231 6.61759 4.05304C6.61583 4.05377 6.61394 4.05415 6.61203 4.05415H2.26297C2.25911 4.05415 2.25542 4.05262 2.25269 4.04989C2.24997 4.04717 2.24844 4.04347 2.24844 4.03962V3.75462C2.24844 3.75076 2.24997 3.74707 2.25269 3.74434C2.25542 3.74162 2.25911 3.74009 2.26297 3.74009L2.82594 3.74055C2.8287 3.74054 2.8314 3.73974 2.83373 3.73825C2.83605 3.73675 2.8379 3.73463 2.83906 3.73212L3.26188 2.82321C3.2629 2.821 3.26335 2.81857 3.26318 2.81614C3.26302 2.81372 3.26225 2.81137 3.26094 2.80932C3.25964 2.80726 3.25784 2.80557 3.25571 2.8044C3.25357 2.80322 3.25118 2.8026 3.24875 2.80259L2.43172 2.80305C2.42926 2.8031 2.42685 2.80377 2.42472 2.805C2.42259 2.80623 2.4208 2.80798 2.41953 2.81009L1.06953 4.96915C1.06821 4.97133 1.06749 4.97383 1.06745 4.97638C1.0674 4.97893 1.06803 4.98145 1.06926 4.98368C1.0705 4.98592 1.0723 4.98779 1.07449 4.9891C1.07667 4.99042 1.07917 4.99113 1.08172 4.99118H7.79234C7.7949 4.99113 7.79739 4.99042 7.79958 4.9891C7.80176 4.98779 7.80357 4.98592 7.8048 4.98368C7.80604 4.98145 7.80666 4.97893 7.80662 4.97638C7.80657 4.97383 7.80585 4.97133 7.80453 4.96915L6.61906 3.07165C6.61764 3.06949 6.61566 3.06775 6.61334 3.06661C6.61102 3.06546 6.60844 3.06496 6.60586 3.06515C6.60328 3.06534 6.60079 3.06622 6.59866 3.06769C6.59654 3.06916 6.59484 3.07118 6.59375 3.07352L6.29281 3.71946C6.29179 3.72167 6.29134 3.7241 6.29151 3.72653C6.29167 3.72896 6.29244 3.7313 6.29374 3.73336C6.29505 3.73541 6.29685 3.7371 6.29898 3.73828C6.30111 3.73945 6.3035 3.74007 6.30594 3.74009H6.61063ZM4.88703 8.71212C4.09156 7.57727 4.38406 6.04305 5.57656 5.32821C5.60281 5.31259 5.60063 5.30477 5.57 5.30477H1.01562C1.01165 5.30477 1.00783 5.30635 1.00502 5.30917C1.00221 5.31198 1.00063 5.31579 1.00063 5.31977V8.71634C1.00063 8.72292 1.00324 8.72924 1.0079 8.7339C1.01256 8.73856 1.01888 8.74118 1.02547 8.74118H4.87203C4.89547 8.74118 4.90047 8.73149 4.88703 8.71212ZM8.81094 7.33493C8.81094 6.7965 8.59705 6.28012 8.21632 5.89939C7.83559 5.51866 7.31921 5.30477 6.78078 5.30477C6.24235 5.30477 5.72597 5.51866 5.34524 5.89939C4.96452 6.28012 4.75063 6.7965 4.75063 7.33493C4.75063 7.87336 4.96452 8.38974 5.34524 8.77047C5.72597 9.15119 6.24235 9.36509 6.78078 9.36509C7.31921 9.36509 7.83559 9.15119 8.21632 8.77047C8.59705 8.38974 8.81094 7.87336 8.81094 7.33493Z" fill="white"/>
<path d="M9.125 7.18915V7.4404C9.03172 8.67743 8.11438 9.61024 6.87359 9.67915H6.63594C6.09125 9.6329 5.61562 9.4304 5.20906 9.07165C5.19669 9.06077 5.18086 9.05477 5.16453 9.05477H0.709062C0.703344 9.05477 0.697859 9.05245 0.693816 9.04832C0.689772 9.04419 0.6875 9.03858 0.6875 9.03274V5.01509C0.6875 4.99821 0.691875 4.98259 0.700625 4.96821L2.23672 2.51149C2.24057 2.50547 2.2459 2.50051 2.2522 2.49707C2.25851 2.49363 2.2656 2.49182 2.27281 2.4918L3.39406 2.49227C3.40081 2.49228 3.40744 2.49034 3.41316 2.48669C3.41889 2.48304 3.42348 2.47782 3.42641 2.47165L4.42578 0.327586C4.42718 0.324485 4.42918 0.321695 4.43169 0.319378C4.43419 0.317061 4.43714 0.315262 4.44036 0.314086C4.44359 0.31291 4.44702 0.312378 4.45047 0.312523C4.45392 0.312668 4.45732 0.313486 4.46047 0.31493L7.25234 1.61712C7.25454 1.61813 7.25651 1.61956 7.25814 1.62133C7.25978 1.62311 7.26104 1.62518 7.26187 1.62745C7.2627 1.62972 7.26307 1.63212 7.26296 1.63453C7.26286 1.63694 7.26228 1.63931 7.26125 1.64149L6.77375 2.68587C6.77015 2.69377 6.76856 2.70241 6.76913 2.71101C6.76971 2.71961 6.77242 2.72788 6.77703 2.73509L8.17391 4.97009C8.18297 4.98446 8.1875 5.00024 8.1875 5.01743L8.18703 5.43555C8.18703 5.45305 8.19391 5.46727 8.20766 5.47821C8.75484 5.91321 9.06063 6.48352 9.125 7.18915ZM3.18969 3.71852C3.18857 3.72082 3.18806 3.72336 3.1882 3.72591C3.18834 3.72846 3.18913 3.73093 3.19049 3.73309C3.19185 3.73524 3.19374 3.73702 3.19598 3.73825C3.19821 3.73947 3.20073 3.7401 3.20328 3.74009H5.92859C5.93143 3.74011 5.9342 3.73932 5.93661 3.73783C5.93902 3.73634 5.94095 3.73419 5.94219 3.73165L6.84734 1.78915C6.84822 1.78737 6.84873 1.78543 6.84885 1.78344C6.84897 1.78146 6.84869 1.77948 6.84804 1.7776C6.84739 1.77573 6.84637 1.774 6.84504 1.77252C6.84371 1.77104 6.84211 1.76984 6.84031 1.76899L4.60203 0.726024C4.60025 0.725149 4.59831 0.724637 4.59633 0.724517C4.59435 0.724398 4.59236 0.724673 4.59048 0.725327C4.58861 0.725981 4.58688 0.727001 4.5854 0.728328C4.58393 0.729654 4.58273 0.731261 4.58188 0.733055L3.18969 3.71852ZM6.61063 3.74009C6.61448 3.74009 6.61818 3.74162 6.6209 3.74434C6.62363 3.74707 6.62516 3.75076 6.62516 3.75462L6.62656 4.03962C6.62656 4.04153 6.62619 4.04342 6.62546 4.04518C6.62473 4.04694 6.62366 4.04854 6.62231 4.04989C6.62096 4.05124 6.61936 4.05231 6.61759 4.05304C6.61583 4.05377 6.61394 4.05415 6.61203 4.05415H2.26297C2.25911 4.05415 2.25542 4.05262 2.25269 4.04989C2.24997 4.04717 2.24844 4.04347 2.24844 4.03962V3.75462C2.24844 3.75076 2.24997 3.74707 2.25269 3.74434C2.25542 3.74162 2.25911 3.74009 2.26297 3.74009L2.82594 3.74055C2.8287 3.74054 2.8314 3.73974 2.83373 3.73825C2.83605 3.73675 2.8379 3.73463 2.83906 3.73212L3.26188 2.82321C3.2629 2.821 3.26335 2.81857 3.26318 2.81614C3.26302 2.81372 3.26225 2.81137 3.26094 2.80932C3.25964 2.80726 3.25784 2.80557 3.25571 2.8044C3.25357 2.80322 3.25118 2.8026 3.24875 2.80259L2.43172 2.80305C2.42926 2.8031 2.42685 2.80377 2.42472 2.805C2.42259 2.80623 2.4208 2.80798 2.41953 2.81009L1.06953 4.96915C1.06821 4.97133 1.06749 4.97383 1.06745 4.97638C1.0674 4.97893 1.06803 4.98145 1.06926 4.98368C1.0705 4.98592 1.0723 4.98779 1.07449 4.9891C1.07667 4.99042 1.07917 4.99113 1.08172 4.99118H7.79234C7.7949 4.99113 7.79739 4.99042 7.79958 4.9891C7.80176 4.98779 7.80357 4.98592 7.8048 4.98368C7.80604 4.98145 7.80666 4.97893 7.80662 4.97638C7.80657 4.97383 7.80585 4.97133 7.80453 4.96915L6.61906 3.07165C6.61764 3.06949 6.61566 3.06775 6.61334 3.06661C6.61102 3.06546 6.60844 3.06496 6.60586 3.06515C6.60328 3.06534 6.60079 3.06622 6.59866 3.06769C6.59654 3.06916 6.59484 3.07118 6.59375 3.07352L6.29281 3.71946C6.29179 3.72167 6.29134 3.7241 6.29151 3.72653C6.29167 3.72896 6.29244 3.7313 6.29374 3.73336C6.29505 3.73541 6.29685 3.7371 6.29898 3.73828C6.30111 3.73945 6.3035 3.74007 6.30594 3.74009H6.61063ZM4.88703 8.71212C4.09156 7.57727 4.38406 6.04305 5.57656 5.32821C5.60281 5.31259 5.60063 5.30477 5.57 5.30477H1.01562C1.01165 5.30477 1.00783 5.30635 1.00502 5.30917C1.00221 5.31198 1.00063 5.31579 1.00063 5.31977V8.71634C1.00063 8.72292 1.00324 8.72924 1.0079 8.7339C1.01256 8.73856 1.01888 8.74118 1.02547 8.74118H4.87203C4.89547 8.74118 4.90047 8.73149 4.88703 8.71212ZM8.81094 7.33493C8.81094 6.7965 8.59705 6.28012 8.21632 5.89939C7.83559 5.51866 7.31921 5.30477 6.78078 5.30477C6.24235 5.30477 5.72597 5.51866 5.34524 5.89939C4.96452 6.28012 4.75063 6.7965 4.75063 7.33493C4.75063 7.87336 4.96452 8.38974 5.34524 8.77047C5.72597 9.15119 6.24235 9.36509 6.78078 9.36509C7.31921 9.36509 7.83559 9.15119 8.21632 8.77047C8.59705 8.38974 8.81094 7.87336 8.81094 7.33493Z" fill="#17202C"/>
<path d="M6.35386 7.87427L7.87214 6.35552C7.87397 6.35365 7.87616 6.35216 7.87857 6.35115C7.88099 6.35013 7.88358 6.34961 7.8862 6.34961C7.88882 6.34961 7.89141 6.35013 7.89383 6.35115C7.89624 6.35216 7.89843 6.35365 7.90026 6.35552L8.09292 6.54864C8.09479 6.55048 8.09628 6.55266 8.09729 6.55508C8.09831 6.55749 8.09883 6.56009 8.09883 6.56271C8.09883 6.56533 8.09831 6.56792 8.09729 6.57033C8.09628 6.57275 8.09479 6.57494 8.09292 6.57677L6.35339 8.3163C6.35156 8.31817 6.34937 8.31966 6.34695 8.32067C6.34454 8.32169 6.34195 8.32221 6.33933 8.32221C6.33671 8.32221 6.33411 8.32169 6.3317 8.32067C6.32929 8.31966 6.3271 8.31817 6.32526 8.3163L5.47026 7.46083C5.46839 7.459 5.46691 7.45681 5.46589 7.4544C5.46488 7.45198 5.46436 7.44939 5.46436 7.44677C5.46436 7.44415 5.46488 7.44156 5.46589 7.43914C5.46691 7.43673 5.46839 7.43454 5.47026 7.43271L5.66292 7.23864C5.66475 7.23677 5.66694 7.23529 5.66936 7.23427C5.67177 7.23326 5.67436 7.23273 5.67698 7.23273C5.6796 7.23273 5.6822 7.23326 5.68461 7.23427C5.68702 7.23529 5.68921 7.23677 5.69105 7.23864L6.32573 7.87427C6.32757 7.87614 6.32975 7.87763 6.33217 7.87864C6.33458 7.87966 6.33718 7.88018 6.3398 7.88018C6.34242 7.88018 6.34501 7.87966 6.34742 7.87864C6.34984 7.87763 6.35203 7.87614 6.35386 7.87427Z" fill="white"/>
<path d="M6.35386 7.87427L7.87214 6.35552C7.87397 6.35365 7.87616 6.35216 7.87857 6.35115C7.88099 6.35013 7.88358 6.34961 7.8862 6.34961C7.88882 6.34961 7.89141 6.35013 7.89383 6.35115C7.89624 6.35216 7.89843 6.35365 7.90026 6.35552L8.09292 6.54864C8.09479 6.55048 8.09628 6.55266 8.09729 6.55508C8.09831 6.55749 8.09883 6.56009 8.09883 6.56271C8.09883 6.56533 8.09831 6.56792 8.09729 6.57033C8.09628 6.57275 8.09479 6.57494 8.09292 6.57677L6.35339 8.3163C6.35156 8.31817 6.34937 8.31966 6.34695 8.32067C6.34454 8.32169 6.34195 8.32221 6.33933 8.32221C6.33671 8.32221 6.33411 8.32169 6.3317 8.32067C6.32929 8.31966 6.3271 8.31817 6.32526 8.3163L5.47026 7.46083C5.46839 7.459 5.46691 7.45681 5.46589 7.4544C5.46488 7.45198 5.46436 7.44939 5.46436 7.44677C5.46436 7.44415 5.46488 7.44156 5.46589 7.43914C5.46691 7.43673 5.46839 7.43454 5.47026 7.43271L5.66292 7.23864C5.66475 7.23677 5.66694 7.23529 5.66936 7.23427C5.67177 7.23326 5.67436 7.23273 5.67698 7.23273C5.6796 7.23273 5.6822 7.23326 5.68461 7.23427C5.68702 7.23529 5.68921 7.23677 5.69105 7.23864L6.32573 7.87427C6.32757 7.87614 6.32975 7.87763 6.33217 7.87864C6.33458 7.87966 6.33718 7.88018 6.3398 7.88018C6.34242 7.88018 6.34501 7.87966 6.34742 7.87864C6.34984 7.87763 6.35203 7.87614 6.35386 7.87427Z" fill="#17202C"/>
</svg>
