<svg width="46" height="46" viewBox="0 0 46 46" fill="none" xmlns="http://www.w3.org/2000/svg">
<path fill-rule="evenodd" clip-rule="evenodd" d="M42.9247 3.29666L42.9084 3.27983C42.4635 2.81905 41.5368 2.81905 41.0919 3.27983L41.0757 3.29666L29.6408 14.7315L5.12812 9.07681L4.96401 9.23977L24.7655 19.6602L10.937 33.4886L6.52126 32.8351L10.9762 35.307L13.3917 39.6713L12.7684 35.3948L26.6827 21.4804L37.0232 41.2818L37.1776 41.1263L31.5229 16.6136L42.9573 5.17918C43.4587 4.68631 43.4821 3.85412 42.9412 3.3132L42.9247 3.29666ZM40.1068 41.9609L34.4535 17.4542L44.8268 7.08091C46.4002 5.53425 46.4002 3.00091 44.8268 1.42758C43.3335 -0.119088 40.6668 -0.119088 39.1735 1.42758L28.8002 11.8009L4.2935 6.14758L0.506836 9.90758L20.3202 20.3342L10.0002 30.6542L3.3335 29.6676L0.506836 32.5476L9.0135 37.2676L13.7068 45.7476L16.5602 42.9209L15.6002 36.3342L26.0002 25.9342L36.3468 45.7476L40.1068 41.9609Z" fill="black"/>
</svg>
