<svg width="27" height="31" viewBox="0 0 27 31" fill="none" xmlns="http://www.w3.org/2000/svg">
<path d="M27 22.9875V23.7915C26.7015 27.75 23.766 30.735 19.7955 30.9555H19.035C17.292 30.8075 15.77 30.1595 14.469 29.0115C14.4294 28.9767 14.3787 28.9575 14.3265 28.9575H0.0689999C0.0506999 28.9575 0.0331497 28.9501 0.0202097 28.9368C0.00726968 28.9236 0 28.9057 0 28.887V16.0305C0 15.9765 0.0140001 15.9265 0.0420001 15.8805L4.9575 8.01898C4.96983 7.99971 4.98687 7.98384 5.00705 7.97283C5.02723 7.96182 5.04991 7.95603 5.073 7.95598L8.661 7.95748C8.6826 7.95749 8.7038 7.95129 8.72212 7.93961C8.74044 7.92793 8.75514 7.91124 8.7645 7.89148L11.9625 1.03048C11.967 1.02056 11.9734 1.01163 11.9814 1.00422C11.9894 0.996803 11.9988 0.991048 12.0092 0.987283C12.0195 0.983519 12.0305 0.981819 12.0415 0.982283C12.0526 0.982746 12.0634 0.985364 12.0735 0.989984L21.0075 5.15698C21.0145 5.16021 21.0208 5.16479 21.0261 5.17047C21.0313 5.17614 21.0353 5.1828 21.038 5.19005C21.0406 5.1973 21.0418 5.205 21.0415 5.21272C21.0411 5.22043 21.0393 5.228 21.036 5.23498L19.476 8.57698C19.4645 8.60226 19.4594 8.62992 19.4612 8.65744C19.4631 8.68495 19.4718 8.71144 19.4865 8.73448L23.9565 15.8865C23.9855 15.9325 24 15.983 24 16.038L23.9985 17.376C23.9985 17.432 24.0205 17.4775 24.0645 17.5125C25.8155 18.9045 26.794 20.7295 27 22.9875ZM8.007 11.8815C8.00343 11.8888 8.00179 11.897 8.00223 11.9051C8.00268 11.9133 8.0052 11.9212 8.00956 11.9281C8.01391 11.935 8.01996 11.9407 8.02712 11.9446C8.03429 11.9485 8.04233 11.9505 8.0505 11.9505H16.7715C16.7806 11.9505 16.7895 11.948 16.7972 11.9433C16.8048 11.9385 16.811 11.9316 16.815 11.9235L19.7115 5.70748C19.7143 5.70178 19.7159 5.69557 19.7163 5.68923C19.7167 5.68289 19.7158 5.67653 19.7137 5.67053C19.7116 5.66453 19.7084 5.65901 19.7041 5.65428C19.6999 5.64955 19.6947 5.64571 19.689 5.64298L12.5265 2.30548C12.5208 2.30269 12.5146 2.30105 12.5082 2.30066C12.5019 2.30028 12.4955 2.30116 12.4895 2.30326C12.4835 2.30535 12.478 2.30861 12.4733 2.31286C12.4686 2.3171 12.4647 2.32224 12.462 2.32798L8.007 11.8815ZM18.954 11.9505C18.9663 11.9505 18.9782 11.9554 18.9869 11.9641C18.9956 11.9728 19.0005 11.9847 19.0005 11.997L19.005 12.909C19.005 12.9151 19.0038 12.9211 19.0015 12.9268C18.9991 12.9324 18.9957 12.9375 18.9914 12.9419C18.9871 12.9462 18.9819 12.9496 18.9763 12.9519C18.9707 12.9543 18.9646 12.9555 18.9585 12.9555H5.0415C5.02917 12.9555 5.01734 12.9506 5.00862 12.9419C4.9999 12.9331 4.995 12.9213 4.995 12.909V11.997C4.995 11.9847 4.9999 11.9728 5.00862 11.9641C5.01734 11.9554 5.02917 11.9505 5.0415 11.9505L6.843 11.952C6.85184 11.9519 6.86049 11.9494 6.86793 11.9446C6.87537 11.9398 6.88129 11.933 6.885 11.925L8.238 9.01648C8.24127 9.00942 8.2427 9.00164 8.24218 8.99387C8.24166 8.9861 8.2392 8.97859 8.23502 8.97202C8.23084 8.96545 8.22507 8.96004 8.21826 8.95627C8.21144 8.95251 8.20379 8.95052 8.196 8.95048L5.5815 8.95198C5.57363 8.95213 5.56592 8.95426 5.5591 8.9582C5.55227 8.96213 5.54656 8.96774 5.5425 8.97448L1.2225 15.8835C1.21828 15.8905 1.21598 15.8985 1.21583 15.9066C1.21568 15.9148 1.21768 15.9229 1.22163 15.93C1.22559 15.9371 1.23135 15.9431 1.23835 15.9473C1.24535 15.9515 1.25333 15.9538 1.2615 15.954H22.7355C22.7437 15.9538 22.7516 15.9515 22.7586 15.9473C22.7656 15.9431 22.7714 15.9371 22.7754 15.93C22.7793 15.9229 22.7813 15.9148 22.7812 15.9066C22.781 15.8985 22.7787 15.8905 22.7745 15.8835L18.981 9.81148C18.9764 9.80457 18.9701 9.799 18.9627 9.79535C18.9553 9.79169 18.947 9.79009 18.9387 9.7907C18.9305 9.79131 18.9225 9.79411 18.9157 9.79882C18.9089 9.80353 18.9035 9.80997 18.9 9.81748L17.937 11.8845C17.9337 11.8916 17.9323 11.8993 17.9328 11.9071C17.9333 11.9149 17.9358 11.9224 17.94 11.9289C17.9442 11.9355 17.9499 11.9409 17.9567 11.9447C17.9636 11.9485 17.9712 11.9504 17.979 11.9505H18.954ZM13.4385 27.861C10.893 24.2295 11.829 19.32 15.645 17.0325C15.729 16.9825 15.722 16.9575 15.624 16.9575H1.05C1.03727 16.9575 1.02506 16.9625 1.01606 16.9715C1.00706 16.9805 1.002 16.9928 1.002 17.0055V27.8745C1.002 27.8956 1.01038 27.9158 1.02529 27.9307C1.04019 27.9456 1.06042 27.954 1.0815 27.954H13.3905C13.4655 27.954 13.4815 27.923 13.4385 27.861ZM25.995 23.454C25.995 21.731 25.3106 20.0786 24.0922 18.8603C22.8739 17.6419 21.2215 16.9575 19.4985 16.9575C17.7755 16.9575 16.1231 17.6419 14.9048 18.8603C13.6865 20.0786 13.002 21.731 13.002 23.454C13.002 25.177 13.6865 26.8294 14.9048 28.0477C16.1231 29.266 17.7755 29.9505 19.4985 29.9505C21.2215 29.9505 22.8739 29.266 24.0922 28.0477C25.3106 26.8294 25.995 25.177 25.995 23.454Z" fill="white"/>
<path d="M27 22.9875V23.7915C26.7015 27.75 23.766 30.735 19.7955 30.9555H19.035C17.292 30.8075 15.77 30.1595 14.469 29.0115C14.4294 28.9767 14.3787 28.9575 14.3265 28.9575H0.0689999C0.0506999 28.9575 0.0331497 28.9501 0.0202097 28.9368C0.00726968 28.9236 0 28.9057 0 28.887V16.0305C0 15.9765 0.0140001 15.9265 0.0420001 15.8805L4.9575 8.01898C4.96983 7.99971 4.98687 7.98384 5.00705 7.97283C5.02723 7.96182 5.04991 7.95603 5.073 7.95598L8.661 7.95748C8.6826 7.95749 8.7038 7.95129 8.72212 7.93961C8.74044 7.92793 8.75514 7.91124 8.7645 7.89148L11.9625 1.03048C11.967 1.02056 11.9734 1.01163 11.9814 1.00422C11.9894 0.996803 11.9988 0.991048 12.0092 0.987283C12.0195 0.983519 12.0305 0.981819 12.0415 0.982283C12.0526 0.982746 12.0634 0.985364 12.0735 0.989984L21.0075 5.15698C21.0145 5.16021 21.0208 5.16479 21.0261 5.17047C21.0313 5.17614 21.0353 5.1828 21.038 5.19005C21.0406 5.1973 21.0418 5.205 21.0415 5.21272C21.0411 5.22043 21.0393 5.228 21.036 5.23498L19.476 8.57698C19.4645 8.60226 19.4594 8.62992 19.4612 8.65744C19.4631 8.68495 19.4718 8.71144 19.4865 8.73448L23.9565 15.8865C23.9855 15.9325 24 15.983 24 16.038L23.9985 17.376C23.9985 17.432 24.0205 17.4775 24.0645 17.5125C25.8155 18.9045 26.794 20.7295 27 22.9875ZM8.007 11.8815C8.00343 11.8888 8.00179 11.897 8.00223 11.9051C8.00268 11.9133 8.0052 11.9212 8.00956 11.9281C8.01391 11.935 8.01996 11.9407 8.02712 11.9446C8.03429 11.9485 8.04233 11.9505 8.0505 11.9505H16.7715C16.7806 11.9505 16.7895 11.948 16.7972 11.9433C16.8048 11.9385 16.811 11.9316 16.815 11.9235L19.7115 5.70748C19.7143 5.70178 19.7159 5.69557 19.7163 5.68923C19.7167 5.68289 19.7158 5.67653 19.7137 5.67053C19.7116 5.66453 19.7084 5.65901 19.7041 5.65428C19.6999 5.64955 19.6947 5.64571 19.689 5.64298L12.5265 2.30548C12.5208 2.30269 12.5146 2.30105 12.5082 2.30066C12.5019 2.30028 12.4955 2.30116 12.4895 2.30326C12.4835 2.30535 12.478 2.30861 12.4733 2.31286C12.4686 2.3171 12.4647 2.32224 12.462 2.32798L8.007 11.8815ZM18.954 11.9505C18.9663 11.9505 18.9782 11.9554 18.9869 11.9641C18.9956 11.9728 19.0005 11.9847 19.0005 11.997L19.005 12.909C19.005 12.9151 19.0038 12.9211 19.0015 12.9268C18.9991 12.9324 18.9957 12.9375 18.9914 12.9419C18.9871 12.9462 18.9819 12.9496 18.9763 12.9519C18.9707 12.9543 18.9646 12.9555 18.9585 12.9555H5.0415C5.02917 12.9555 5.01734 12.9506 5.00862 12.9419C4.9999 12.9331 4.995 12.9213 4.995 12.909V11.997C4.995 11.9847 4.9999 11.9728 5.00862 11.9641C5.01734 11.9554 5.02917 11.9505 5.0415 11.9505L6.843 11.952C6.85184 11.9519 6.86049 11.9494 6.86793 11.9446C6.87537 11.9398 6.88129 11.933 6.885 11.925L8.238 9.01648C8.24127 9.00942 8.2427 9.00164 8.24218 8.99387C8.24166 8.9861 8.2392 8.97859 8.23502 8.97202C8.23084 8.96545 8.22507 8.96004 8.21826 8.95627C8.21144 8.95251 8.20379 8.95052 8.196 8.95048L5.5815 8.95198C5.57363 8.95213 5.56592 8.95426 5.5591 8.9582C5.55227 8.96213 5.54656 8.96774 5.5425 8.97448L1.2225 15.8835C1.21828 15.8905 1.21598 15.8985 1.21583 15.9066C1.21568 15.9148 1.21768 15.9229 1.22163 15.93C1.22559 15.9371 1.23135 15.9431 1.23835 15.9473C1.24535 15.9515 1.25333 15.9538 1.2615 15.954H22.7355C22.7437 15.9538 22.7516 15.9515 22.7586 15.9473C22.7656 15.9431 22.7714 15.9371 22.7754 15.93C22.7793 15.9229 22.7813 15.9148 22.7812 15.9066C22.781 15.8985 22.7787 15.8905 22.7745 15.8835L18.981 9.81148C18.9764 9.80457 18.9701 9.799 18.9627 9.79535C18.9553 9.79169 18.947 9.79009 18.9387 9.7907C18.9305 9.79131 18.9225 9.79411 18.9157 9.79882C18.9089 9.80353 18.9035 9.80997 18.9 9.81748L17.937 11.8845C17.9337 11.8916 17.9323 11.8993 17.9328 11.9071C17.9333 11.9149 17.9358 11.9224 17.94 11.9289C17.9442 11.9355 17.9499 11.9409 17.9567 11.9447C17.9636 11.9485 17.9712 11.9504 17.979 11.9505H18.954ZM13.4385 27.861C10.893 24.2295 11.829 19.32 15.645 17.0325C15.729 16.9825 15.722 16.9575 15.624 16.9575H1.05C1.03727 16.9575 1.02506 16.9625 1.01606 16.9715C1.00706 16.9805 1.002 16.9928 1.002 17.0055V27.8745C1.002 27.8956 1.01038 27.9158 1.02529 27.9307C1.04019 27.9456 1.06042 27.954 1.0815 27.954H13.3905C13.4655 27.954 13.4815 27.923 13.4385 27.861ZM25.995 23.454C25.995 21.731 25.3106 20.0786 24.0922 18.8603C22.8739 17.6419 21.2215 16.9575 19.4985 16.9575C17.7755 16.9575 16.1231 17.6419 14.9048 18.8603C13.6865 20.0786 13.002 21.731 13.002 23.454C13.002 25.177 13.6865 26.8294 14.9048 28.0477C16.1231 29.266 17.7755 29.9505 19.4985 29.9505C21.2215 29.9505 22.8739 29.266 24.0922 28.0477C25.3106 26.8294 25.995 25.177 25.995 23.454Z" fill="#17202C"/>
<path d="M18.1328 25.1798L22.9913 20.3198C22.9971 20.3138 23.0041 20.3091 23.0119 20.3058C23.0196 20.3026 23.0279 20.3009 23.0363 20.3009C23.0447 20.3009 23.053 20.3026 23.0607 20.3058C23.0684 20.3091 23.0754 20.3138 23.0813 20.3198L23.6978 20.9378C23.7038 20.9437 23.7085 20.9507 23.7118 20.9584C23.715 20.9662 23.7167 20.9744 23.7167 20.9828C23.7167 20.9912 23.715 20.9995 23.7118 21.0072C23.7085 21.015 23.7038 21.022 23.6978 21.0278L18.1313 26.5943C18.1254 26.6003 18.1184 26.6051 18.1107 26.6083C18.103 26.6116 18.0947 26.6132 18.0863 26.6132C18.0779 26.6132 18.0696 26.6116 18.0619 26.6083C18.0541 26.6051 18.0471 26.6003 18.0413 26.5943L15.3053 23.8568C15.2993 23.851 15.2945 23.844 15.2913 23.8362C15.288 23.8285 15.2864 23.8202 15.2864 23.8118C15.2864 23.8034 15.288 23.7952 15.2913 23.7874C15.2945 23.7797 15.2993 23.7727 15.3053 23.7668L15.9218 23.1458C15.9276 23.1398 15.9346 23.1351 15.9424 23.1318C15.9501 23.1286 15.9584 23.1269 15.9668 23.1269C15.9752 23.1269 15.9835 23.1286 15.9912 23.1318C15.9989 23.1351 16.0059 23.1398 16.0118 23.1458L18.0428 25.1798C18.0486 25.1858 18.0556 25.1906 18.0634 25.1938C18.0711 25.1971 18.0794 25.1987 18.0878 25.1987C18.0962 25.1987 18.1044 25.1971 18.1122 25.1938C18.1199 25.1906 18.1269 25.1858 18.1328 25.1798Z" fill="white"/>
<path d="M18.1328 25.1798L22.9913 20.3198C22.9971 20.3138 23.0041 20.3091 23.0119 20.3058C23.0196 20.3026 23.0279 20.3009 23.0363 20.3009C23.0447 20.3009 23.053 20.3026 23.0607 20.3058C23.0684 20.3091 23.0754 20.3138 23.0813 20.3198L23.6978 20.9378C23.7038 20.9437 23.7085 20.9507 23.7118 20.9584C23.715 20.9662 23.7167 20.9744 23.7167 20.9828C23.7167 20.9912 23.715 20.9995 23.7118 21.0072C23.7085 21.015 23.7038 21.022 23.6978 21.0278L18.1313 26.5943C18.1254 26.6003 18.1184 26.6051 18.1107 26.6083C18.103 26.6116 18.0947 26.6132 18.0863 26.6132C18.0779 26.6132 18.0696 26.6116 18.0619 26.6083C18.0541 26.6051 18.0471 26.6003 18.0413 26.5943L15.3053 23.8568C15.2993 23.851 15.2945 23.844 15.2913 23.8362C15.288 23.8285 15.2864 23.8202 15.2864 23.8118C15.2864 23.8034 15.288 23.7952 15.2913 23.7874C15.2945 23.7797 15.2993 23.7727 15.3053 23.7668L15.9218 23.1458C15.9276 23.1398 15.9346 23.1351 15.9424 23.1318C15.9501 23.1286 15.9584 23.1269 15.9668 23.1269C15.9752 23.1269 15.9835 23.1286 15.9912 23.1318C15.9989 23.1351 16.0059 23.1398 16.0118 23.1458L18.0428 25.1798C18.0486 25.1858 18.0556 25.1906 18.0634 25.1938C18.0711 25.1971 18.0794 25.1987 18.0878 25.1987C18.0962 25.1987 18.1044 25.1971 18.1122 25.1938C18.1199 25.1906 18.1269 25.1858 18.1328 25.1798Z" fill="#17202C"/>
</svg>
