<svg width="15" height="15" viewBox="0 0 15 15" fill="none" xmlns="http://www.w3.org/2000/svg">
<path d="M11.9531 2.34375C11.8361 2.34375 11.7214 2.35331 11.6095 2.37173C11.3286 1.53648 10.5381 0.932962 9.60938 0.932962C9.42021 0.932962 9.23672 0.958025 9.06211 1.00494C8.68945 0.402246 8.02441 0 7.26562 0C6.50684 0 5.83887 0.404004 5.4668 1.00898C5.29395 0.962402 5.1123 0.9375 4.9248 0.9375C3.76172 0.9375 2.81279 1.88379 2.81279 3.04688V6.60938C2.65928 6.58008 2.50225 6.5625 2.34404 6.5625C2.34397 6.5625 2.34412 6.5625 2.34404 6.5625C1.06729 6.5625 0 7.59375 0 8.90918C0 9.50361 0.221426 10.067 0.628711 10.5044L3.00908 13.0603C4.15723 14.2939 5.7832 15 7.46777 15H8.43691C11.54 15 14.0625 12.4775 14.0625 9.375V4.45312C14.0625 3.29004 13.1162 2.34375 11.9531 2.34375ZM12.6562 9.375C12.6562 11.7015 10.764 13.5938 8.46387 13.5938H7.46777C6.1667 13.5938 4.92393 13.0529 4.03711 12.1008L1.70039 9.59209C1.51869 9.397 1.42482 9.14092 1.42482 8.91533C1.42482 8.26611 1.9677 7.99541 2.34328 7.99541C2.59406 7.99541 2.84426 8.09549 3.02941 8.29365L3.81223 9.13418C3.86133 9.16113 3.92285 9.18164 3.98145 9.18164C4.10174 9.18164 4.2177 9.08871 4.2177 8.9468V3.04688C4.2177 2.65869 4.53264 2.34375 4.89445 2.34375C5.28264 2.34375 5.57121 2.65869 5.57121 3.04688V7.5C5.625 7.75781 5.83594 7.96875 6.09375 7.96875C6.35156 7.96875 6.53613 7.7589 6.53613 7.52637L6.5625 2.10938C6.5625 1.72119 6.87744 1.40625 7.23926 1.40625C7.62744 1.40625 7.91602 1.72119 7.91602 2.10938V7.5C7.96875 7.75781 8.17969 7.96875 8.4375 7.96875C8.69531 7.96875 8.90596 7.75887 8.90596 7.52637L8.90618 3.06738C8.90618 2.6792 9.22112 2.36426 9.58294 2.36426C9.97112 2.36426 10.2597 2.6792 10.2597 3.06738V7.52637C10.3125 7.75781 10.5234 7.96875 10.7812 7.96875C11.0391 7.96875 11.2236 7.7589 11.2236 7.52637V4.45312C11.2236 4.06494 11.5386 3.75 11.9004 3.75C12.2886 3.75 12.5771 4.06494 12.5771 4.45312V9.375H12.6562Z" fill="#FD7F00"/>
</svg>
