<svg width="101" height="101" viewBox="0 0 101 101" fill="none" xmlns="http://www.w3.org/2000/svg">
<mask id="mask0_13614_59594" style="mask-type:alpha" maskUnits="userSpaceOnUse" x="0" y="0" width="101" height="101">
<rect x="0.976562" y="0.296875" width="100" height="100" fill="#D9D9D9"/>
</mask>
<g mask="url(#mask0_13614_59594)">
<path d="M20.25 75.5C24.5 72.25 29.25 69.6875 34.5 67.8125C39.75 65.9375 45.25 65 51 65C56.75 65 62.25 65.9375 67.5 67.8125C72.75 69.6875 77.5 72.25 81.75 75.5C84.6667 72.0833 86.9375 68.2083 88.5625 63.875C90.1875 59.5417 91 54.9167 91 50C91 38.9167 87.1042 29.4792 79.3125 21.6875C71.5208 13.8958 62.0833 10 51 10C39.9167 10 30.4792 13.8958 22.6875 21.6875C14.8958 29.4792 11 38.9167 11 50C11 54.9167 11.8125 59.5417 13.4375 63.875C15.0625 68.2083 17.3333 72.0833 20.25 75.5ZM51 55C46.0833 55 41.9375 53.3125 38.5625 49.9375C35.1875 46.5625 33.5 42.4167 33.5 37.5C33.5 32.5833 35.1875 28.4375 38.5625 25.0625C41.9375 21.6875 46.0833 20 51 20C55.9167 20 60.0625 21.6875 63.4375 25.0625C66.8125 28.4375 68.5 32.5833 68.5 37.5C68.5 42.4167 66.8125 46.5625 63.4375 49.9375C60.0625 53.3125 55.9167 55 51 55ZM51 100C44.0833 100 37.5833 98.6875 31.5 96.0625C25.4167 93.4375 20.125 89.875 15.625 85.375C11.125 80.875 7.5625 75.5833 4.9375 69.5C2.3125 63.4167 1 56.9167 1 50C1 43.0833 2.3125 36.5833 4.9375 30.5C7.5625 24.4167 11.125 19.125 15.625 14.625C20.125 10.125 25.4167 6.5625 31.5 3.9375C37.5833 1.3125 44.0833 0 51 0C57.9167 0 64.4167 1.3125 70.5 3.9375C76.5833 6.5625 81.875 10.125 86.375 14.625C90.875 19.125 94.4375 24.4167 97.0625 30.5C99.6875 36.5833 101 43.0833 101 50C101 56.9167 99.6875 63.4167 97.0625 69.5C94.4375 75.5833 90.875 80.875 86.375 85.375C81.875 89.875 76.5833 93.4375 70.5 96.0625C64.4167 98.6875 57.9167 100 51 100ZM51 90C55.4167 90 59.5833 89.3542 63.5 88.0625C67.4167 86.7708 71 84.9167 74.25 82.5C71 80.0833 67.4167 78.2292 63.5 76.9375C59.5833 75.6458 55.4167 75 51 75C46.5833 75 42.4167 75.6458 38.5 76.9375C34.5833 78.2292 31 80.0833 27.75 82.5C31 84.9167 34.5833 86.7708 38.5 88.0625C42.4167 89.3542 46.5833 90 51 90ZM51 45C53.1667 45 54.9583 44.2917 56.375 42.875C57.7917 41.4583 58.5 39.6667 58.5 37.5C58.5 35.3333 57.7917 33.5417 56.375 32.125C54.9583 30.7083 53.1667 30 51 30C48.8333 30 47.0417 30.7083 45.625 32.125C44.2083 33.5417 43.5 35.3333 43.5 37.5C43.5 39.6667 44.2083 41.4583 45.625 42.875C47.0417 44.2917 48.8333 45 51 45Z" fill="#1C1B1F"/>
</g>
</svg>
