<svg width="1060" height="200" viewBox="0 0 1060 200" fill="none" xmlns="http://www.w3.org/2000/svg">
<g opacity="0.5">
<rect x="0.5" y="0.5" width="1059" height="199" rx="19.5" stroke="black" stroke-linecap="round" stroke-linejoin="round" stroke-dasharray="10 10"/>
<path d="M557.625 100.5V122.375C557.625 124.033 556.967 125.622 555.794 126.794C554.622 127.967 553.033 128.625 551.375 128.625H542M557.625 100.5C537.494 100.5 526.047 106.703 519.953 113.759M557.625 100.5V95.8125M542 128.625H507.625C505.967 128.625 504.378 127.967 503.206 126.794C502.033 125.622 501.375 124.033 501.375 122.375V113M542 128.625C536.675 119.975 528.166 115.663 519.953 113.759M519.953 113.759C512.741 112.084 505.759 112.269 501.375 113M501.375 113V78.625C501.375 76.9674 502.033 75.3777 503.206 74.2056C504.378 73.0335 505.967 72.375 507.625 72.375H532.625M551.375 69.25V78.625M551.375 78.625V88M551.375 78.625H560.75M551.375 78.625H542M518.562 84.875C517 84.875 513.875 85.8125 513.875 89.5625C513.875 93.3125 517 94.25 518.562 94.25C520.125 94.25 523.25 93.3125 523.25 89.5625C523.25 85.8125 520.125 84.875 518.562 84.875Z" stroke="#17202C" stroke-width="2" stroke-linecap="round" stroke-linejoin="round"/>
<path d="M332.687 148.183C332.687 148.568 332.596 148.948 332.415 149.323C332.238 149.699 331.989 150.017 331.666 150.278C331.313 150.56 330.9 150.781 330.427 150.94C329.959 151.099 329.393 151.179 328.73 151.179C328.019 151.179 327.378 151.113 326.808 150.98C326.243 150.848 325.666 150.651 325.078 150.39V148.747H325.171C325.67 149.162 326.247 149.482 326.901 149.708C327.555 149.933 328.169 150.046 328.743 150.046C329.556 150.046 330.188 149.893 330.639 149.588C331.094 149.283 331.322 148.877 331.322 148.369C331.322 147.931 331.213 147.609 330.997 147.401C330.785 147.193 330.46 147.032 330.023 146.917C329.691 146.829 329.331 146.756 328.942 146.699C328.558 146.641 328.149 146.568 327.716 146.48C326.841 146.294 326.192 145.978 325.768 145.532C325.348 145.081 325.138 144.496 325.138 143.776C325.138 142.949 325.487 142.273 326.185 141.748C326.883 141.217 327.769 140.952 328.843 140.952C329.537 140.952 330.173 141.019 330.752 141.151C331.33 141.284 331.843 141.447 332.289 141.642V143.192H332.196C331.821 142.874 331.326 142.611 330.712 142.404C330.102 142.192 329.477 142.086 328.836 142.086C328.134 142.086 327.568 142.231 327.139 142.523C326.715 142.815 326.503 143.19 326.503 143.65C326.503 144.061 326.609 144.383 326.821 144.617C327.033 144.852 327.407 145.031 327.941 145.154C328.224 145.216 328.626 145.291 329.148 145.38C329.669 145.468 330.111 145.559 330.473 145.651C331.207 145.846 331.759 146.14 332.13 146.533C332.501 146.926 332.687 147.476 332.687 148.183ZM340.892 147.428H335.438C335.438 147.883 335.506 148.28 335.643 148.621C335.78 148.956 335.968 149.233 336.206 149.449C336.436 149.661 336.708 149.82 337.022 149.926C337.34 150.032 337.689 150.085 338.069 150.085C338.572 150.085 339.078 149.986 339.587 149.787C340.099 149.584 340.464 149.385 340.68 149.191H340.746V150.549C340.327 150.726 339.898 150.874 339.461 150.993C339.023 151.113 338.564 151.172 338.082 151.172C336.854 151.172 335.895 150.841 335.206 150.178C334.516 149.511 334.172 148.565 334.172 147.341C334.172 146.131 334.501 145.17 335.159 144.458C335.822 143.747 336.692 143.391 337.77 143.391C338.769 143.391 339.538 143.683 340.077 144.266C340.62 144.849 340.892 145.678 340.892 146.752V147.428ZM339.679 146.473C339.675 145.819 339.509 145.313 339.182 144.955C338.86 144.598 338.367 144.419 337.704 144.419C337.037 144.419 336.505 144.615 336.107 145.008C335.714 145.402 335.491 145.89 335.438 146.473H339.679ZM344.04 151H342.794V140.687H344.04V151ZM352.703 147.428H347.248C347.248 147.883 347.317 148.28 347.454 148.621C347.591 148.956 347.778 149.233 348.017 149.449C348.247 149.661 348.519 149.82 348.832 149.926C349.15 150.032 349.5 150.085 349.88 150.085C350.383 150.085 350.889 149.986 351.397 149.787C351.91 149.584 352.274 149.385 352.491 149.191H352.557V150.549C352.137 150.726 351.709 150.874 351.271 150.993C350.834 151.113 350.374 151.172 349.893 151.172C348.664 151.172 347.706 150.841 347.016 150.178C346.327 149.511 345.982 148.565 345.982 147.341C345.982 146.131 346.312 145.17 346.97 144.458C347.633 143.747 348.503 143.391 349.581 143.391C350.58 143.391 351.349 143.683 351.888 144.266C352.431 144.849 352.703 145.678 352.703 146.752V147.428ZM351.49 146.473C351.486 145.819 351.32 145.313 350.993 144.955C350.67 144.598 350.178 144.419 349.515 144.419C348.848 144.419 348.315 144.615 347.918 145.008C347.524 145.402 347.301 145.89 347.248 146.473H351.49ZM360.066 150.536C359.651 150.735 359.256 150.89 358.88 151C358.509 151.11 358.113 151.166 357.694 151.166C357.159 151.166 356.669 151.088 356.222 150.934C355.776 150.775 355.394 150.536 355.076 150.218C354.753 149.9 354.504 149.498 354.327 149.012C354.15 148.526 354.062 147.958 354.062 147.308C354.062 146.098 354.393 145.148 355.056 144.458C355.723 143.769 356.602 143.424 357.694 143.424C358.118 143.424 358.533 143.484 358.94 143.603C359.351 143.723 359.726 143.868 360.066 144.041V145.426H360C359.62 145.13 359.227 144.902 358.82 144.743C358.418 144.584 358.025 144.505 357.641 144.505C356.934 144.505 356.375 144.743 355.964 145.221C355.557 145.693 355.354 146.389 355.354 147.308C355.354 148.201 355.553 148.888 355.951 149.37C356.353 149.847 356.916 150.085 357.641 150.085C357.893 150.085 358.149 150.052 358.41 149.986C358.67 149.92 358.904 149.834 359.112 149.727C359.293 149.635 359.463 149.537 359.622 149.436C359.781 149.33 359.907 149.239 360 149.164H360.066V150.536ZM365.515 150.934C365.28 150.996 365.024 151.046 364.746 151.086C364.472 151.126 364.227 151.146 364.01 151.146C363.254 151.146 362.68 150.943 362.287 150.536C361.894 150.13 361.697 149.478 361.697 148.581V144.644H360.855V143.597H361.697V141.469H362.943V143.597H365.515V144.644H362.943V148.017C362.943 148.406 362.952 148.711 362.969 148.932C362.987 149.149 363.049 149.352 363.155 149.542C363.252 149.719 363.385 149.849 363.553 149.933C363.725 150.012 363.986 150.052 364.335 150.052C364.538 150.052 364.75 150.024 364.971 149.966C365.192 149.904 365.351 149.853 365.448 149.814H365.515V150.934ZM385.458 151H384.145V142.497L381.401 148.283H380.619L377.895 142.497V151H376.669V141.131H378.459L381.09 146.626L383.635 141.131H385.458V151ZM394.147 151H392.901V150.178C392.481 150.51 392.079 150.764 391.694 150.94C391.31 151.117 390.886 151.205 390.422 151.205C389.644 151.205 389.039 150.969 388.606 150.496C388.173 150.019 387.956 149.321 387.956 148.402V143.597H389.202V147.812C389.202 148.188 389.22 148.51 389.255 148.78C389.291 149.045 389.366 149.272 389.481 149.462C389.6 149.657 389.755 149.798 389.945 149.887C390.135 149.975 390.411 150.019 390.773 150.019C391.096 150.019 391.447 149.935 391.827 149.767C392.211 149.599 392.569 149.385 392.901 149.124V143.597H394.147V151ZM397.858 151H396.612V140.687H397.858V151ZM404.168 150.934C403.934 150.996 403.678 151.046 403.399 151.086C403.125 151.126 402.88 151.146 402.663 151.146C401.908 151.146 401.333 150.943 400.94 150.536C400.547 150.13 400.35 149.478 400.35 148.581V144.644H399.509V143.597H400.35V141.469H401.596V143.597H404.168V144.644H401.596V148.017C401.596 148.406 401.605 148.711 401.623 148.932C401.641 149.149 401.702 149.352 401.808 149.542C401.906 149.719 402.038 149.849 402.206 149.933C402.378 150.012 402.639 150.052 402.988 150.052C403.191 150.052 403.404 150.024 403.624 149.966C403.845 149.904 404.004 149.853 404.102 149.814H404.168V150.934ZM407.018 142.357H405.613V141.065H407.018V142.357ZM406.938 151H405.692V143.597H406.938V151ZM415.919 147.209C415.919 147.81 415.833 148.36 415.661 148.859C415.488 149.354 415.245 149.774 414.932 150.119C414.64 150.445 414.295 150.7 413.898 150.881C413.504 151.057 413.087 151.146 412.645 151.146C412.261 151.146 411.911 151.104 411.598 151.02C411.288 150.936 410.973 150.806 410.65 150.629V153.731H409.404V143.597H410.65V144.372C410.981 144.094 411.353 143.862 411.763 143.676C412.179 143.486 412.621 143.391 413.089 143.391C413.982 143.391 414.675 143.729 415.17 144.405C415.669 145.077 415.919 146.011 415.919 147.209ZM414.633 147.242C414.633 146.349 414.481 145.682 414.176 145.24C413.871 144.799 413.403 144.578 412.771 144.578C412.413 144.578 412.053 144.655 411.691 144.81C411.328 144.964 410.981 145.168 410.65 145.419V149.615C411.003 149.774 411.306 149.882 411.558 149.94C411.814 149.997 412.104 150.026 412.426 150.026C413.12 150.026 413.661 149.792 414.05 149.323C414.439 148.855 414.633 148.161 414.633 147.242ZM419.12 151H417.874V140.687H419.12V151ZM427.783 147.428H422.328C422.328 147.883 422.397 148.28 422.534 148.621C422.671 148.956 422.858 149.233 423.097 149.449C423.327 149.661 423.599 149.82 423.912 149.926C424.23 150.032 424.579 150.085 424.959 150.085C425.463 150.085 425.969 149.986 426.477 149.787C426.99 149.584 427.354 149.385 427.571 149.191H427.637V150.549C427.217 150.726 426.789 150.874 426.351 150.993C425.914 151.113 425.454 151.172 424.973 151.172C423.744 151.172 422.786 150.841 422.096 150.178C421.407 149.511 421.062 148.565 421.062 147.341C421.062 146.131 421.391 145.17 422.05 144.458C422.713 143.747 423.583 143.391 424.661 143.391C425.66 143.391 426.429 143.683 426.968 144.266C427.511 144.849 427.783 145.678 427.783 146.752V147.428ZM426.57 146.473C426.566 145.819 426.4 145.313 426.073 144.955C425.75 144.598 425.258 144.419 424.595 144.419C423.928 144.419 423.395 144.615 422.998 145.008C422.604 145.402 422.381 145.89 422.328 146.473H426.57ZM441.986 147.964C441.986 148.455 441.894 148.888 441.708 149.264C441.522 149.639 441.273 149.948 440.959 150.191C440.588 150.483 440.179 150.691 439.733 150.814C439.291 150.938 438.728 151 438.043 151H434.543V141.131H437.466C438.186 141.131 438.725 141.158 439.083 141.211C439.441 141.264 439.784 141.374 440.111 141.542C440.473 141.732 440.736 141.977 440.899 142.278C441.063 142.574 441.145 142.93 441.145 143.345C441.145 143.813 441.025 144.213 440.787 144.545C440.548 144.871 440.23 145.134 439.832 145.333V145.386C440.499 145.523 441.025 145.817 441.41 146.268C441.794 146.714 441.986 147.28 441.986 147.964ZM439.779 143.517C439.779 143.279 439.739 143.078 439.66 142.914C439.58 142.751 439.452 142.618 439.276 142.516C439.068 142.397 438.816 142.324 438.52 142.298C438.224 142.267 437.857 142.251 437.42 142.251H435.856V145.101H437.552C437.963 145.101 438.29 145.081 438.533 145.042C438.776 144.997 439.002 144.909 439.209 144.776C439.417 144.644 439.563 144.474 439.647 144.266C439.735 144.054 439.779 143.804 439.779 143.517ZM440.621 148.017C440.621 147.62 440.561 147.304 440.442 147.07C440.323 146.836 440.106 146.637 439.792 146.473C439.58 146.363 439.322 146.292 439.017 146.261C438.717 146.226 438.35 146.208 437.917 146.208H435.856V149.88H437.592C438.166 149.88 438.637 149.851 439.004 149.794C439.371 149.732 439.671 149.621 439.905 149.462C440.153 149.29 440.334 149.093 440.449 148.872C440.564 148.652 440.621 148.367 440.621 148.017ZM449.502 151H448.263V150.211C448.152 150.286 448.002 150.392 447.812 150.529C447.627 150.662 447.445 150.768 447.269 150.848C447.061 150.949 446.822 151.033 446.553 151.099C446.283 151.17 445.967 151.205 445.605 151.205C444.938 151.205 444.372 150.985 443.908 150.543C443.444 150.101 443.212 149.537 443.212 148.853C443.212 148.291 443.332 147.839 443.57 147.494C443.813 147.145 444.158 146.871 444.604 146.672C445.055 146.473 445.596 146.338 446.228 146.268C446.86 146.197 447.538 146.144 448.263 146.109V145.916C448.263 145.634 448.212 145.399 448.11 145.214C448.013 145.028 447.872 144.883 447.686 144.776C447.509 144.675 447.297 144.606 447.05 144.571C446.803 144.536 446.544 144.518 446.274 144.518C445.948 144.518 445.583 144.562 445.181 144.651C444.779 144.735 444.363 144.858 443.935 145.022H443.869V143.756C444.112 143.69 444.463 143.617 444.922 143.537C445.382 143.458 445.835 143.418 446.281 143.418C446.803 143.418 447.255 143.462 447.64 143.55C448.029 143.634 448.364 143.78 448.647 143.988C448.926 144.191 449.138 144.454 449.284 144.776C449.429 145.099 449.502 145.499 449.502 145.976V151ZM448.263 149.177V147.116C447.883 147.138 447.434 147.171 446.917 147.216C446.405 147.26 445.998 147.324 445.698 147.408C445.34 147.509 445.051 147.668 444.83 147.885C444.609 148.097 444.498 148.391 444.498 148.766C444.498 149.191 444.626 149.511 444.883 149.727C445.139 149.94 445.53 150.046 446.056 150.046C446.493 150.046 446.893 149.962 447.255 149.794C447.618 149.621 447.954 149.416 448.263 149.177ZM458.092 151H456.846V146.785C456.846 146.444 456.826 146.126 456.786 145.83C456.746 145.53 456.674 145.296 456.567 145.128C456.457 144.942 456.298 144.805 456.09 144.717C455.883 144.624 455.613 144.578 455.282 144.578C454.941 144.578 454.586 144.662 454.215 144.83C453.843 144.997 453.488 145.212 453.148 145.472V151H451.902V143.597H453.148V144.419C453.536 144.096 453.938 143.844 454.354 143.663C454.769 143.482 455.196 143.391 455.633 143.391C456.433 143.391 457.042 143.632 457.462 144.114C457.882 144.595 458.092 145.289 458.092 146.195V151ZM466.682 151H465.436V146.785C465.436 146.444 465.416 146.126 465.376 145.83C465.336 145.53 465.263 145.296 465.157 145.128C465.047 144.942 464.888 144.805 464.68 144.717C464.472 144.624 464.203 144.578 463.871 144.578C463.531 144.578 463.175 144.662 462.804 144.83C462.433 144.997 462.077 145.212 461.737 145.472V151H460.491V143.597H461.737V144.419C462.126 144.096 462.528 143.844 462.943 143.663C463.359 143.482 463.785 143.391 464.223 143.391C465.022 143.391 465.632 143.632 466.052 144.114C466.472 144.595 466.682 145.289 466.682 146.195V151ZM475.278 147.428H469.823C469.823 147.883 469.892 148.28 470.029 148.621C470.166 148.956 470.353 149.233 470.592 149.449C470.822 149.661 471.093 149.82 471.407 149.926C471.725 150.032 472.074 150.085 472.454 150.085C472.958 150.085 473.464 149.986 473.972 149.787C474.485 149.584 474.849 149.385 475.066 149.191H475.132V150.549C474.712 150.726 474.284 150.874 473.846 150.993C473.409 151.113 472.949 151.172 472.468 151.172C471.239 151.172 470.28 150.841 469.591 150.178C468.902 149.511 468.557 148.565 468.557 147.341C468.557 146.131 468.886 145.17 469.545 144.458C470.208 143.747 471.078 143.391 472.156 143.391C473.155 143.391 473.924 143.683 474.463 144.266C475.006 144.849 475.278 145.678 475.278 146.752V147.428ZM474.065 146.473C474.061 145.819 473.895 145.313 473.568 144.955C473.245 144.598 472.753 144.419 472.09 144.419C471.423 144.419 470.89 144.615 470.493 145.008C470.099 145.402 469.876 145.89 469.823 146.473H474.065ZM481.786 144.955H481.72C481.534 144.911 481.353 144.88 481.177 144.863C481.004 144.841 480.799 144.83 480.56 144.83C480.176 144.83 479.805 144.916 479.447 145.088C479.089 145.256 478.744 145.475 478.413 145.744V151H477.167V143.597H478.413V144.69C478.908 144.293 479.343 144.012 479.718 143.849C480.098 143.681 480.485 143.597 480.878 143.597C481.095 143.597 481.252 143.603 481.349 143.617C481.446 143.625 481.592 143.645 481.786 143.676V144.955ZM492.351 144.955H492.285C492.099 144.911 491.918 144.88 491.741 144.863C491.569 144.841 491.364 144.83 491.125 144.83C490.741 144.83 490.369 144.916 490.011 145.088C489.654 145.256 489.309 145.475 488.978 145.744V151H487.732V143.597H488.978V144.69C489.472 144.293 489.908 144.012 490.283 143.849C490.663 143.681 491.05 143.597 491.443 143.597C491.66 143.597 491.816 143.603 491.914 143.617C492.011 143.625 492.157 143.645 492.351 143.676V144.955ZM499.721 147.428H494.267C494.267 147.883 494.335 148.28 494.472 148.621C494.609 148.956 494.797 149.233 495.035 149.449C495.265 149.661 495.537 149.82 495.851 149.926C496.169 150.032 496.518 150.085 496.898 150.085C497.401 150.085 497.907 149.986 498.416 149.787C498.928 149.584 499.293 149.385 499.509 149.191H499.575V150.549C499.156 150.726 498.727 150.874 498.29 150.993C497.852 151.113 497.393 151.172 496.911 151.172C495.683 151.172 494.724 150.841 494.035 150.178C493.345 149.511 493.001 148.565 493.001 147.341C493.001 146.131 493.33 145.17 493.988 144.458C494.651 143.747 495.521 143.391 496.6 143.391C497.598 143.391 498.367 143.683 498.906 144.266C499.449 144.849 499.721 145.678 499.721 146.752V147.428ZM498.508 146.473C498.504 145.819 498.338 145.313 498.011 144.955C497.689 144.598 497.196 144.419 496.533 144.419C495.866 144.419 495.334 144.615 494.936 145.008C494.543 145.402 494.32 145.89 494.267 146.473H498.508ZM502.869 151H501.623V140.687H502.869V151ZM511.088 151H509.849V150.211C509.738 150.286 509.588 150.392 509.398 150.529C509.212 150.662 509.031 150.768 508.854 150.848C508.647 150.949 508.408 151.033 508.139 151.099C507.869 151.17 507.553 151.205 507.191 151.205C506.524 151.205 505.958 150.985 505.494 150.543C505.03 150.101 504.798 149.537 504.798 148.853C504.798 148.291 504.917 147.839 505.156 147.494C505.399 147.145 505.744 146.871 506.19 146.672C506.641 146.473 507.182 146.338 507.814 146.268C508.446 146.197 509.124 146.144 509.849 146.109V145.916C509.849 145.634 509.798 145.399 509.696 145.214C509.599 145.028 509.457 144.883 509.272 144.776C509.095 144.675 508.883 144.606 508.636 144.571C508.388 144.536 508.13 144.518 507.86 144.518C507.533 144.518 507.169 144.562 506.767 144.651C506.365 144.735 505.949 144.858 505.521 145.022H505.454V143.756C505.697 143.69 506.049 143.617 506.508 143.537C506.968 143.458 507.421 143.418 507.867 143.418C508.388 143.418 508.841 143.462 509.226 143.55C509.614 143.634 509.95 143.78 510.233 143.988C510.511 144.191 510.723 144.454 510.869 144.776C511.015 145.099 511.088 145.499 511.088 145.976V151ZM509.849 149.177V147.116C509.469 147.138 509.02 147.171 508.503 147.216C507.991 147.26 507.584 147.324 507.284 147.408C506.926 147.509 506.636 147.668 506.415 147.885C506.194 148.097 506.084 148.391 506.084 148.766C506.084 149.191 506.212 149.511 506.468 149.727C506.725 149.94 507.116 150.046 507.641 150.046C508.079 150.046 508.479 149.962 508.841 149.794C509.203 149.621 509.539 149.416 509.849 149.177ZM517.331 150.934C517.097 150.996 516.841 151.046 516.563 151.086C516.289 151.126 516.043 151.146 515.827 151.146C515.071 151.146 514.497 150.943 514.104 150.536C513.71 150.13 513.514 149.478 513.514 148.581V144.644H512.672V143.597H513.514V141.469H514.76V143.597H517.331V144.644H514.76V148.017C514.76 148.406 514.769 148.711 514.786 148.932C514.804 149.149 514.866 149.352 514.972 149.542C515.069 149.719 515.202 149.849 515.369 149.933C515.542 150.012 515.803 150.052 516.152 150.052C516.355 150.052 516.567 150.024 516.788 149.966C517.009 149.904 517.168 149.853 517.265 149.814H517.331V150.934ZM525.039 147.428H519.585C519.585 147.883 519.653 148.28 519.79 148.621C519.927 148.956 520.115 149.233 520.354 149.449C520.583 149.661 520.855 149.82 521.169 149.926C521.487 150.032 521.836 150.085 522.216 150.085C522.72 150.085 523.226 149.986 523.734 149.787C524.246 149.584 524.611 149.385 524.827 149.191H524.894V150.549C524.474 150.726 524.045 150.874 523.608 150.993C523.17 151.113 522.711 151.172 522.229 151.172C521.001 151.172 520.042 150.841 519.353 150.178C518.664 149.511 518.319 148.565 518.319 147.341C518.319 146.131 518.648 145.17 519.306 144.458C519.969 143.747 520.84 143.391 521.918 143.391C522.916 143.391 523.685 143.683 524.224 144.266C524.768 144.849 525.039 145.678 525.039 146.752V147.428ZM523.827 146.473C523.822 145.819 523.656 145.313 523.33 144.955C523.007 144.598 522.514 144.419 521.852 144.419C521.184 144.419 520.652 144.615 520.254 145.008C519.861 145.402 519.638 145.89 519.585 146.473H523.827ZM532.933 151H531.687V150.225C531.329 150.534 530.956 150.775 530.567 150.947C530.178 151.119 529.756 151.205 529.301 151.205C528.417 151.205 527.715 150.865 527.194 150.185C526.677 149.504 526.418 148.561 526.418 147.355C526.418 146.727 526.506 146.168 526.683 145.678C526.864 145.187 527.107 144.77 527.412 144.425C527.713 144.089 528.062 143.833 528.459 143.656C528.862 143.48 529.277 143.391 529.705 143.391C530.094 143.391 530.439 143.433 530.739 143.517C531.04 143.597 531.356 143.723 531.687 143.895V140.687H532.933V151ZM531.687 149.177V144.929C531.351 144.779 531.051 144.675 530.786 144.617C530.521 144.56 530.231 144.531 529.918 144.531C529.219 144.531 528.676 144.774 528.287 145.26C527.898 145.746 527.704 146.436 527.704 147.328C527.704 148.207 527.854 148.877 528.155 149.336C528.455 149.792 528.937 150.019 529.599 150.019C529.953 150.019 530.311 149.942 530.673 149.787C531.035 149.628 531.373 149.425 531.687 149.177ZM544.002 150.934C543.767 150.996 543.511 151.046 543.233 151.086C542.959 151.126 542.714 151.146 542.497 151.146C541.742 151.146 541.167 150.943 540.774 150.536C540.381 150.13 540.184 149.478 540.184 148.581V144.644H539.342V143.597H540.184V141.469H541.43V143.597H544.002V144.644H541.43V148.017C541.43 148.406 541.439 148.711 541.457 148.932C541.474 149.149 541.536 149.352 541.642 149.542C541.739 149.719 541.872 149.849 542.04 149.933C542.212 150.012 542.473 150.052 542.822 150.052C543.025 150.052 543.237 150.024 543.458 149.966C543.679 149.904 543.838 149.853 543.935 149.814H544.002V150.934ZM551.822 147.302C551.822 148.508 551.513 149.46 550.895 150.158C550.276 150.856 549.448 151.205 548.409 151.205C547.362 151.205 546.529 150.856 545.91 150.158C545.296 149.46 544.989 148.508 544.989 147.302C544.989 146.095 545.296 145.143 545.91 144.445C546.529 143.743 547.362 143.391 548.409 143.391C549.448 143.391 550.276 143.743 550.895 144.445C551.513 145.143 551.822 146.095 551.822 147.302ZM550.537 147.302C550.537 146.343 550.349 145.631 549.973 145.168C549.598 144.699 549.076 144.465 548.409 144.465C547.733 144.465 547.207 144.699 546.832 145.168C546.461 145.631 546.275 146.343 546.275 147.302C546.275 148.23 546.463 148.934 546.838 149.416C547.214 149.893 547.738 150.132 548.409 150.132C549.072 150.132 549.591 149.895 549.967 149.423C550.347 148.945 550.537 148.238 550.537 147.302ZM564.932 143.597L560.611 153.731H559.279L560.657 150.642L557.708 143.597H559.06L561.333 149.085L563.627 143.597H564.932ZM572.753 147.302C572.753 148.508 572.444 149.46 571.825 150.158C571.207 150.856 570.378 151.205 569.34 151.205C568.293 151.205 567.46 150.856 566.841 150.158C566.227 149.46 565.92 148.508 565.92 147.302C565.92 146.095 566.227 145.143 566.841 144.445C567.46 143.743 568.293 143.391 569.34 143.391C570.378 143.391 571.207 143.743 571.825 144.445C572.444 145.143 572.753 146.095 572.753 147.302ZM571.467 147.302C571.467 146.343 571.28 145.631 570.904 145.168C570.528 144.699 570.007 144.465 569.34 144.465C568.664 144.465 568.138 144.699 567.762 145.168C567.391 145.631 567.206 146.343 567.206 147.302C567.206 148.23 567.393 148.934 567.769 149.416C568.145 149.893 568.668 150.132 569.34 150.132C570.003 150.132 570.522 149.895 570.897 149.423C571.277 148.945 571.467 148.238 571.467 147.302ZM580.826 151H579.58V150.178C579.16 150.51 578.758 150.764 578.374 150.94C577.989 151.117 577.565 151.205 577.101 151.205C576.323 151.205 575.718 150.969 575.285 150.496C574.852 150.019 574.635 149.321 574.635 148.402V143.597H575.881V147.812C575.881 148.188 575.899 148.51 575.935 148.78C575.97 149.045 576.045 149.272 576.16 149.462C576.279 149.657 576.434 149.798 576.624 149.887C576.814 149.975 577.09 150.019 577.452 150.019C577.775 150.019 578.126 149.935 578.506 149.767C578.891 149.599 579.248 149.385 579.58 149.124V143.597H580.826V151ZM587.898 144.955H587.831C587.646 144.911 587.465 144.88 587.288 144.863C587.116 144.841 586.91 144.83 586.672 144.83C586.287 144.83 585.916 144.916 585.558 145.088C585.2 145.256 584.856 145.475 584.524 145.744V151H583.278V143.597H584.524V144.69C585.019 144.293 585.454 144.012 585.83 143.849C586.21 143.681 586.596 143.597 586.99 143.597C587.206 143.597 587.363 143.603 587.46 143.617C587.557 143.625 587.703 143.645 587.898 143.676V144.955ZM600.398 144.114C600.398 144.551 600.32 144.958 600.166 145.333C600.016 145.704 599.803 146.027 599.53 146.301C599.189 146.641 598.787 146.897 598.323 147.07C597.859 147.238 597.274 147.322 596.567 147.322H595.255V151H593.942V141.131H596.62C597.212 141.131 597.713 141.182 598.124 141.284C598.535 141.381 598.9 141.535 599.218 141.748C599.594 141.999 599.883 142.313 600.086 142.689C600.294 143.064 600.398 143.539 600.398 144.114ZM599.032 144.147C599.032 143.807 598.973 143.511 598.853 143.259C598.734 143.007 598.553 142.801 598.31 142.642C598.098 142.505 597.855 142.408 597.581 142.351C597.311 142.289 596.969 142.258 596.554 142.258H595.255V146.201H596.361C596.892 146.201 597.322 146.155 597.654 146.062C597.985 145.965 598.255 145.813 598.462 145.605C598.67 145.393 598.816 145.17 598.9 144.936C598.988 144.701 599.032 144.438 599.032 144.147ZM607.456 151H606.217V150.211C606.107 150.286 605.956 150.392 605.766 150.529C605.581 150.662 605.4 150.768 605.223 150.848C605.015 150.949 604.777 151.033 604.507 151.099C604.237 151.17 603.922 151.205 603.559 151.205C602.892 151.205 602.326 150.985 601.863 150.543C601.399 150.101 601.167 149.537 601.167 148.853C601.167 148.291 601.286 147.839 601.524 147.494C601.768 147.145 602.112 146.871 602.558 146.672C603.009 146.473 603.55 146.338 604.182 146.268C604.814 146.197 605.492 146.144 606.217 146.109V145.916C606.217 145.634 606.166 145.399 606.065 145.214C605.967 145.028 605.826 144.883 605.64 144.776C605.464 144.675 605.252 144.606 605.004 144.571C604.757 144.536 604.498 144.518 604.229 144.518C603.902 144.518 603.537 144.562 603.135 144.651C602.733 144.735 602.318 144.858 601.889 145.022H601.823V143.756C602.066 143.69 602.417 143.617 602.877 143.537C603.336 143.458 603.789 143.418 604.235 143.418C604.757 143.418 605.21 143.462 605.594 143.55C605.983 143.634 606.319 143.78 606.601 143.988C606.88 144.191 607.092 144.454 607.238 144.776C607.383 145.099 607.456 145.499 607.456 145.976V151ZM606.217 149.177V147.116C605.837 147.138 605.389 147.171 604.872 147.216C604.359 147.26 603.952 147.324 603.652 147.408C603.294 147.509 603.005 147.668 602.784 147.885C602.563 148.097 602.452 148.391 602.452 148.766C602.452 149.191 602.581 149.511 602.837 149.727C603.093 149.94 603.484 150.046 604.01 150.046C604.447 150.046 604.847 149.962 605.21 149.794C605.572 149.621 605.908 149.416 606.217 149.177ZM614.475 144.955H614.409C614.223 144.911 614.042 144.88 613.865 144.863C613.693 144.841 613.488 144.83 613.249 144.83C612.865 144.83 612.494 144.916 612.136 145.088C611.778 145.256 611.433 145.475 611.102 145.744V151H609.856V143.597H611.102V144.69C611.597 144.293 612.032 144.012 612.407 143.849C612.787 143.681 613.174 143.597 613.567 143.597C613.784 143.597 613.941 143.603 614.038 143.617C614.135 143.625 614.281 143.645 614.475 143.676V144.955ZM619.493 150.934C619.258 150.996 619.002 151.046 618.724 151.086C618.45 151.126 618.205 151.146 617.988 151.146C617.232 151.146 616.658 150.943 616.265 150.536C615.872 150.13 615.675 149.478 615.675 148.581V144.644H614.833V143.597H615.675V141.469H616.921V143.597H619.493V144.644H616.921V148.017C616.921 148.406 616.93 148.711 616.947 148.932C616.965 149.149 617.027 149.352 617.133 149.542C617.23 149.719 617.363 149.849 617.531 149.933C617.703 150.012 617.964 150.052 618.313 150.052C618.516 150.052 618.728 150.024 618.949 149.966C619.17 149.904 619.329 149.853 619.426 149.814H619.493V150.934ZM627.34 143.597L623.019 153.731H621.686L623.065 150.642L620.116 143.597H621.468L623.741 149.085L626.034 143.597H627.34ZM639.88 151H638.634V150.178C638.214 150.51 637.812 150.764 637.427 150.94C637.043 151.117 636.619 151.205 636.155 151.205C635.377 151.205 634.772 150.969 634.339 150.496C633.906 150.019 633.689 149.321 633.689 148.402V143.597H634.935V147.812C634.935 148.188 634.953 148.51 634.988 148.78C635.024 149.045 635.099 149.272 635.214 149.462C635.333 149.657 635.488 149.798 635.678 149.887C635.868 149.975 636.144 150.019 636.506 150.019C636.829 150.019 637.18 149.935 637.56 149.767C637.944 149.599 638.302 149.385 638.634 149.124V143.597H639.88V151ZM648.847 147.209C648.847 147.81 648.761 148.36 648.589 148.859C648.416 149.354 648.173 149.774 647.86 150.119C647.568 150.445 647.223 150.7 646.826 150.881C646.432 151.057 646.015 151.146 645.573 151.146C645.189 151.146 644.84 151.104 644.526 151.02C644.216 150.936 643.901 150.806 643.578 150.629V153.731H642.332V143.597H643.578V144.372C643.909 144.094 644.281 143.862 644.691 143.676C645.107 143.486 645.549 143.391 646.017 143.391C646.91 143.391 647.603 143.729 648.098 144.405C648.597 145.077 648.847 146.011 648.847 147.209ZM647.561 147.242C647.561 146.349 647.409 145.682 647.104 145.24C646.799 144.799 646.331 144.578 645.699 144.578C645.341 144.578 644.981 144.655 644.619 144.81C644.256 144.964 643.909 145.168 643.578 145.419V149.615C643.931 149.774 644.234 149.882 644.486 149.94C644.742 149.997 645.032 150.026 645.354 150.026C646.048 150.026 646.589 149.792 646.978 149.323C647.367 148.855 647.561 148.161 647.561 147.242ZM659.405 150.934C659.171 150.996 658.915 151.046 658.636 151.086C658.362 151.126 658.117 151.146 657.901 151.146C657.145 151.146 656.571 150.943 656.177 150.536C655.784 150.13 655.588 149.478 655.588 148.581V144.644H654.746V143.597H655.588V141.469H656.834V143.597H659.405V144.644H656.834V148.017C656.834 148.406 656.842 148.711 656.86 148.932C656.878 149.149 656.94 149.352 657.046 149.542C657.143 149.719 657.276 149.849 657.443 149.933C657.616 150.012 657.876 150.052 658.225 150.052C658.429 150.052 658.641 150.024 658.862 149.966C659.083 149.904 659.242 149.853 659.339 149.814H659.405V150.934ZM667.226 147.302C667.226 148.508 666.917 149.46 666.298 150.158C665.68 150.856 664.851 151.205 663.813 151.205C662.766 151.205 661.933 150.856 661.314 150.158C660.7 149.46 660.393 148.508 660.393 147.302C660.393 146.095 660.7 145.143 661.314 144.445C661.933 143.743 662.766 143.391 663.813 143.391C664.851 143.391 665.68 143.743 666.298 144.445C666.917 145.143 667.226 146.095 667.226 147.302ZM665.94 147.302C665.94 146.343 665.752 145.631 665.377 145.168C665.001 144.699 664.48 144.465 663.813 144.465C663.137 144.465 662.611 144.699 662.235 145.168C661.864 145.631 661.679 146.343 661.679 147.302C661.679 148.23 661.866 148.934 662.242 149.416C662.618 149.893 663.141 150.132 663.813 150.132C664.476 150.132 664.995 149.895 665.37 149.423C665.75 148.945 665.94 148.238 665.94 147.302ZM680.376 147.865C680.376 148.325 680.292 148.764 680.124 149.184C679.956 149.604 679.726 149.957 679.435 150.244C679.116 150.554 678.736 150.792 678.295 150.96C677.857 151.124 677.349 151.205 676.77 151.205C676.231 151.205 675.712 151.148 675.213 151.033C674.713 150.923 674.291 150.788 673.947 150.629V149.23H674.039C674.402 149.46 674.826 149.657 675.312 149.82C675.798 149.979 676.275 150.059 676.744 150.059C677.057 150.059 677.36 150.015 677.652 149.926C677.948 149.838 678.211 149.683 678.44 149.462C678.635 149.272 678.781 149.045 678.878 148.78C678.979 148.515 679.03 148.207 679.03 147.858C679.03 147.518 678.971 147.231 678.851 146.997C678.736 146.763 678.575 146.575 678.367 146.433C678.138 146.266 677.857 146.148 677.526 146.082C677.199 146.011 676.832 145.976 676.425 145.976C676.037 145.976 675.661 146.003 675.299 146.056C674.941 146.109 674.632 146.162 674.371 146.215V141.131H680.309V142.291H675.65V144.916C675.84 144.898 676.034 144.885 676.233 144.876C676.432 144.867 676.604 144.863 676.75 144.863C677.285 144.863 677.753 144.909 678.155 145.002C678.557 145.09 678.926 145.249 679.262 145.479C679.616 145.722 679.89 146.036 680.084 146.42C680.278 146.805 680.376 147.286 680.376 147.865ZM688.674 142.357H687.269V141.065H688.674V142.357ZM688.594 151H687.348V143.597H688.594V151ZM701.863 151H700.617V146.785C700.617 146.467 700.602 146.159 700.571 145.863C700.544 145.567 700.484 145.331 700.392 145.154C700.29 144.964 700.144 144.821 699.954 144.723C699.764 144.626 699.49 144.578 699.132 144.578C698.783 144.578 698.434 144.666 698.085 144.843C697.736 145.015 697.387 145.236 697.038 145.506C697.051 145.607 697.062 145.726 697.071 145.863C697.08 145.996 697.084 146.129 697.084 146.261V151H695.838V146.785C695.838 146.458 695.823 146.148 695.792 145.857C695.765 145.561 695.706 145.324 695.613 145.148C695.511 144.958 695.366 144.816 695.176 144.723C694.986 144.626 694.712 144.578 694.354 144.578C694.014 144.578 693.671 144.662 693.326 144.83C692.986 144.997 692.646 145.212 692.306 145.472V151H691.06V143.597H692.306V144.419C692.695 144.096 693.081 143.844 693.466 143.663C693.854 143.482 694.268 143.391 694.705 143.391C695.209 143.391 695.635 143.497 695.984 143.709C696.338 143.921 696.601 144.215 696.773 144.591C697.277 144.167 697.736 143.862 698.151 143.676C698.567 143.486 699.011 143.391 699.484 143.391C700.297 143.391 700.895 143.639 701.28 144.134C701.669 144.624 701.863 145.311 701.863 146.195V151ZM710.015 151H708.776V150.211C708.665 150.286 708.515 150.392 708.325 150.529C708.14 150.662 707.958 150.768 707.782 150.848C707.574 150.949 707.335 151.033 707.066 151.099C706.796 151.17 706.48 151.205 706.118 151.205C705.451 151.205 704.885 150.985 704.421 150.543C703.957 150.101 703.725 149.537 703.725 148.853C703.725 148.291 703.845 147.839 704.083 147.494C704.326 147.145 704.671 146.871 705.117 146.672C705.568 146.473 706.109 146.338 706.741 146.268C707.373 146.197 708.051 146.144 708.776 146.109V145.916C708.776 145.634 708.725 145.399 708.623 145.214C708.526 145.028 708.385 144.883 708.199 144.776C708.022 144.675 707.81 144.606 707.563 144.571C707.316 144.536 707.057 144.518 706.788 144.518C706.461 144.518 706.096 144.562 705.694 144.651C705.292 144.735 704.876 144.858 704.448 145.022H704.382V143.756C704.625 143.69 704.976 143.617 705.435 143.537C705.895 143.458 706.348 143.418 706.794 143.418C707.316 143.418 707.768 143.462 708.153 143.55C708.542 143.634 708.877 143.78 709.16 143.988C709.439 144.191 709.651 144.454 709.797 144.776C709.942 145.099 710.015 145.499 710.015 145.976V151ZM708.776 149.177V147.116C708.396 147.138 707.947 147.171 707.43 147.216C706.918 147.26 706.511 147.324 706.211 147.408C705.853 147.509 705.564 147.668 705.343 147.885C705.122 148.097 705.011 148.391 705.011 148.766C705.011 149.191 705.139 149.511 705.396 149.727C705.652 149.94 706.043 150.046 706.569 150.046C707.006 150.046 707.406 149.962 707.768 149.794C708.131 149.621 708.467 149.416 708.776 149.177ZM718.419 150.158C718.419 151.413 718.134 152.334 717.564 152.922C716.994 153.51 716.117 153.804 714.933 153.804C714.54 153.804 714.155 153.775 713.78 153.717C713.409 153.664 713.042 153.587 712.68 153.485V152.213H712.746C712.949 152.292 713.272 152.39 713.714 152.505C714.155 152.624 714.597 152.683 715.039 152.683C715.463 152.683 715.815 152.633 716.093 152.531C716.371 152.429 716.588 152.288 716.742 152.107C716.897 151.935 717.008 151.727 717.074 151.484C717.14 151.241 717.173 150.969 717.173 150.669V149.993C716.798 150.293 716.438 150.518 716.093 150.669C715.753 150.814 715.318 150.887 714.787 150.887C713.904 150.887 713.201 150.569 712.68 149.933C712.163 149.292 711.904 148.391 711.904 147.229C711.904 146.593 711.993 146.045 712.169 145.585C712.35 145.121 712.596 144.721 712.905 144.385C713.192 144.072 713.541 143.829 713.952 143.656C714.363 143.48 714.772 143.391 715.178 143.391C715.607 143.391 715.965 143.435 716.252 143.524C716.544 143.608 716.851 143.738 717.173 143.915L717.253 143.597H718.419V150.158ZM717.173 148.965V144.929C716.842 144.779 716.533 144.673 716.245 144.611C715.963 144.545 715.68 144.511 715.397 144.511C714.712 144.511 714.173 144.741 713.78 145.201C713.387 145.66 713.19 146.327 713.19 147.202C713.19 148.033 713.336 148.663 713.627 149.091C713.919 149.52 714.403 149.734 715.079 149.734C715.441 149.734 715.804 149.666 716.166 149.529C716.533 149.387 716.868 149.199 717.173 148.965ZM727.069 147.428H721.614C721.614 147.883 721.682 148.28 721.819 148.621C721.956 148.956 722.144 149.233 722.383 149.449C722.613 149.661 722.884 149.82 723.198 149.926C723.516 150.032 723.865 150.085 724.245 150.085C724.749 150.085 725.255 149.986 725.763 149.787C726.276 149.584 726.64 149.385 726.857 149.191H726.923V150.549C726.503 150.726 726.074 150.874 725.637 150.993C725.2 151.113 724.74 151.172 724.258 151.172C723.03 151.172 722.071 150.841 721.382 150.178C720.693 149.511 720.348 148.565 720.348 147.341C720.348 146.131 720.677 145.17 721.336 144.458C721.998 143.747 722.869 143.391 723.947 143.391C724.946 143.391 725.714 143.683 726.253 144.266C726.797 144.849 727.069 145.678 727.069 146.752V147.428ZM725.856 146.473C725.851 145.819 725.686 145.313 725.359 144.955C725.036 144.598 724.543 144.419 723.881 144.419C723.213 144.419 722.681 144.615 722.283 145.008C721.89 145.402 721.667 145.89 721.614 146.473H725.856ZM734.247 148.866C734.247 149.542 733.966 150.096 733.405 150.529C732.848 150.962 732.086 151.179 731.118 151.179C730.57 151.179 730.067 151.115 729.607 150.987C729.152 150.854 728.77 150.711 728.46 150.556V149.157H728.527C728.92 149.454 729.357 149.69 729.839 149.867C730.321 150.039 730.782 150.125 731.224 150.125C731.772 150.125 732.201 150.037 732.51 149.86C732.819 149.683 732.974 149.405 732.974 149.025C732.974 148.733 732.89 148.512 732.722 148.362C732.554 148.212 732.232 148.084 731.755 147.978C731.578 147.938 731.346 147.892 731.059 147.839C730.776 147.786 730.517 147.728 730.283 147.666C729.634 147.494 729.172 147.242 728.898 146.911C728.628 146.575 728.494 146.164 728.494 145.678C728.494 145.373 728.555 145.086 728.679 144.816C728.807 144.547 729 144.306 729.256 144.094C729.503 143.886 729.817 143.723 730.197 143.603C730.581 143.48 731.01 143.418 731.483 143.418C731.925 143.418 732.371 143.473 732.822 143.583C733.277 143.69 733.654 143.82 733.955 143.975V145.307H733.889C733.571 145.073 733.184 144.876 732.729 144.717C732.274 144.553 731.827 144.472 731.39 144.472C730.935 144.472 730.55 144.56 730.237 144.737C729.923 144.909 729.766 145.168 729.766 145.512C729.766 145.817 729.861 146.047 730.051 146.201C730.237 146.356 730.537 146.482 730.953 146.579C731.182 146.632 731.439 146.685 731.721 146.738C732.009 146.791 732.247 146.84 732.437 146.884C733.016 147.017 733.462 147.244 733.776 147.567C734.09 147.894 734.247 148.327 734.247 148.866Z" fill="black"/>
<path d="M420.614 167H419.302V158.497L416.558 164.283H415.776L413.052 158.497V167H411.826V157.131H413.615L416.246 162.626L418.791 157.131H420.614V167ZM424.505 158.357H423.099V157.065H424.505V158.357ZM424.425 167H423.179V159.597H424.425V167ZM433.081 167H431.835V162.785C431.835 162.444 431.815 162.126 431.775 161.83C431.736 161.53 431.663 161.296 431.557 161.128C431.446 160.942 431.287 160.805 431.079 160.717C430.872 160.624 430.602 160.578 430.271 160.578C429.931 160.578 429.575 160.662 429.204 160.83C428.833 160.997 428.477 161.212 428.137 161.472V167H426.891V159.597H428.137V160.419C428.525 160.096 428.928 159.844 429.343 159.663C429.758 159.482 430.185 159.391 430.622 159.391C431.422 159.391 432.032 159.632 432.451 160.114C432.871 160.595 433.081 161.289 433.081 162.195V167ZM446.767 163.209C446.767 163.81 446.681 164.36 446.509 164.859C446.337 165.354 446.094 165.774 445.78 166.119C445.488 166.445 445.144 166.7 444.746 166.881C444.353 167.057 443.935 167.146 443.493 167.146C443.109 167.146 442.76 167.104 442.446 167.02C442.137 166.936 441.821 166.806 441.498 166.629V169.731H440.252V159.597H441.498V160.372C441.83 160.094 442.201 159.862 442.612 159.676C443.027 159.486 443.469 159.391 443.937 159.391C444.83 159.391 445.524 159.729 446.018 160.405C446.518 161.077 446.767 162.011 446.767 163.209ZM445.482 163.242C445.482 162.349 445.329 161.682 445.024 161.24C444.719 160.799 444.251 160.578 443.619 160.578C443.261 160.578 442.901 160.655 442.539 160.81C442.177 160.964 441.83 161.168 441.498 161.419V165.615C441.852 165.774 442.154 165.882 442.406 165.94C442.663 165.997 442.952 166.026 443.275 166.026C443.968 166.026 444.51 165.792 444.898 165.323C445.287 164.855 445.482 164.161 445.482 163.242ZM455.118 167H453.548L451.447 164.157L449.332 167H447.881L450.771 163.308L447.907 159.597H449.478L451.566 162.394L453.66 159.597H455.118L452.209 163.242L455.118 167ZM468.109 164.249C468.109 165.102 467.775 165.811 467.108 166.377C466.445 166.943 465.61 167.225 464.603 167.225C463.534 167.225 462.681 166.949 462.045 166.397C461.413 165.845 461.097 165.138 461.097 164.276C461.097 163.728 461.256 163.233 461.574 162.791C461.892 162.345 462.341 161.992 462.919 161.731V161.691C462.389 161.408 461.996 161.099 461.74 160.763C461.488 160.427 461.362 160.008 461.362 159.504C461.362 158.762 461.667 158.143 462.277 157.648C462.886 157.153 463.662 156.906 464.603 156.906C465.588 156.906 466.375 157.142 466.962 157.615C467.55 158.088 467.844 158.689 467.844 159.418C467.844 159.864 467.705 160.304 467.426 160.737C467.148 161.165 466.739 161.501 466.2 161.744V161.784C466.819 162.049 467.292 162.376 467.619 162.765C467.946 163.154 468.109 163.649 468.109 164.249ZM466.538 159.431C466.538 158.958 466.355 158.583 465.988 158.304C465.626 158.022 465.162 157.88 464.596 157.88C464.04 157.88 463.582 158.013 463.224 158.278C462.871 158.543 462.694 158.901 462.694 159.351C462.694 159.67 462.782 159.946 462.959 160.18C463.14 160.41 463.412 160.615 463.774 160.796C463.938 160.876 464.172 160.98 464.477 161.108C464.786 161.236 465.087 161.342 465.378 161.426C465.816 161.134 466.118 160.832 466.286 160.518C466.454 160.204 466.538 159.842 466.538 159.431ZM466.744 164.375C466.744 163.969 466.653 163.644 466.472 163.401C466.295 163.154 465.946 162.906 465.425 162.659C465.217 162.562 464.989 162.471 464.742 162.387C464.495 162.303 464.165 162.186 463.755 162.036C463.357 162.252 463.037 162.546 462.793 162.917C462.555 163.288 462.436 163.708 462.436 164.177C462.436 164.773 462.641 165.266 463.052 165.655C463.463 166.043 463.984 166.238 464.616 166.238C465.261 166.238 465.776 166.072 466.16 165.741C466.549 165.409 466.744 164.954 466.744 164.375ZM476.652 162.062C476.652 163.834 476.374 165.135 475.817 165.966C475.265 166.792 474.405 167.205 473.239 167.205C472.055 167.205 471.189 166.786 470.641 165.946C470.097 165.107 469.826 163.816 469.826 162.076C469.826 160.321 470.102 159.027 470.654 158.192C471.206 157.352 472.068 156.932 473.239 156.932C474.423 156.932 475.287 157.359 475.83 158.212C476.378 159.06 476.652 160.343 476.652 162.062ZM474.909 165.071C475.064 164.713 475.168 164.294 475.221 163.812C475.278 163.326 475.307 162.743 475.307 162.062C475.307 161.391 475.278 160.807 475.221 160.313C475.168 159.818 475.062 159.398 474.903 159.053C474.748 158.713 474.536 158.457 474.266 158.284C474.001 158.112 473.659 158.026 473.239 158.026C472.824 158.026 472.479 158.112 472.205 158.284C471.935 158.457 471.721 158.717 471.562 159.067C471.412 159.393 471.308 159.82 471.251 160.346C471.198 160.871 471.171 161.448 471.171 162.076C471.171 162.765 471.195 163.341 471.244 163.805C471.293 164.269 471.396 164.685 471.555 165.051C471.701 165.396 471.907 165.659 472.172 165.84C472.441 166.021 472.797 166.112 473.239 166.112C473.654 166.112 473.999 166.026 474.273 165.853C474.547 165.681 474.759 165.42 474.909 165.071ZM485.282 162.062C485.282 163.834 485.003 165.135 484.447 165.966C483.894 166.792 483.035 167.205 481.868 167.205C480.684 167.205 479.818 166.786 479.27 165.946C478.727 165.107 478.455 163.816 478.455 162.076C478.455 160.321 478.731 159.027 479.283 158.192C479.836 157.352 480.697 156.932 481.868 156.932C483.053 156.932 483.916 157.359 484.46 158.212C485.008 159.06 485.282 160.343 485.282 162.062ZM483.539 165.071C483.693 164.713 483.797 164.294 483.85 163.812C483.908 163.326 483.936 162.743 483.936 162.062C483.936 161.391 483.908 160.807 483.85 160.313C483.797 159.818 483.691 159.398 483.532 159.053C483.377 158.713 483.165 158.457 482.896 158.284C482.631 158.112 482.288 158.026 481.868 158.026C481.453 158.026 481.108 158.112 480.834 158.284C480.565 158.457 480.351 158.717 480.192 159.067C480.041 159.393 479.937 159.82 479.88 160.346C479.827 160.871 479.8 161.448 479.8 162.076C479.8 162.765 479.825 163.341 479.873 163.805C479.922 164.269 480.026 164.685 480.185 165.051C480.331 165.396 480.536 165.659 480.801 165.84C481.071 166.021 481.426 166.112 481.868 166.112C482.284 166.112 482.628 166.026 482.902 165.853C483.176 165.681 483.388 165.42 483.539 165.071ZM493.712 161.121L493.288 161.85L490.889 160.438L490.929 162.824H490.074L490.107 160.438L487.714 161.857L487.283 161.128L489.808 159.756L487.283 158.384L487.714 157.655L490.113 159.067L490.074 156.687H490.929L490.882 159.067L493.288 157.661L493.712 158.39L491.194 159.749L493.712 161.121ZM502.554 167H495.873V165.615C496.337 165.217 496.801 164.819 497.265 164.422C497.733 164.024 498.168 163.629 498.57 163.235C499.419 162.414 500 161.762 500.314 161.28C500.627 160.794 500.784 160.271 500.784 159.709C500.784 159.197 500.614 158.797 500.274 158.51C499.938 158.218 499.467 158.072 498.862 158.072C498.46 158.072 498.025 158.143 497.556 158.284C497.088 158.426 496.631 158.642 496.184 158.934H496.118V157.542C496.432 157.387 496.849 157.246 497.371 157.118C497.897 156.99 498.405 156.926 498.895 156.926C499.907 156.926 500.7 157.171 501.275 157.661C501.849 158.147 502.136 158.808 502.136 159.643C502.136 160.019 502.088 160.37 501.99 160.697C501.898 161.019 501.758 161.327 501.573 161.618C501.401 161.892 501.197 162.162 500.963 162.427C500.733 162.692 500.453 162.986 500.121 163.308C499.649 163.772 499.16 164.223 498.657 164.66C498.153 165.093 497.682 165.495 497.245 165.867H502.554V167ZM511.17 162.062C511.17 163.834 510.892 165.135 510.335 165.966C509.782 166.792 508.923 167.205 507.757 167.205C506.572 167.205 505.706 166.786 505.158 165.946C504.615 165.107 504.343 163.816 504.343 162.076C504.343 160.321 504.619 159.027 505.172 158.192C505.724 157.352 506.586 156.932 507.757 156.932C508.941 156.932 509.805 157.359 510.348 158.212C510.896 159.06 511.17 160.343 511.17 162.062ZM509.427 165.071C509.581 164.713 509.685 164.294 509.738 163.812C509.796 163.326 509.824 162.743 509.824 162.062C509.824 161.391 509.796 160.807 509.738 160.313C509.685 159.818 509.579 159.398 509.42 159.053C509.266 158.713 509.053 158.457 508.784 158.284C508.519 158.112 508.176 158.026 507.757 158.026C507.341 158.026 506.997 158.112 506.723 158.284C506.453 158.457 506.239 158.717 506.08 159.067C505.93 159.393 505.826 159.82 505.768 160.346C505.715 160.871 505.689 161.448 505.689 162.076C505.689 162.765 505.713 163.341 505.762 163.805C505.81 164.269 505.914 164.685 506.073 165.051C506.219 165.396 506.424 165.659 506.69 165.84C506.959 166.021 507.315 166.112 507.757 166.112C508.172 166.112 508.517 166.026 508.791 165.853C509.064 165.681 509.277 165.42 509.427 165.071ZM519.799 162.062C519.799 163.834 519.521 165.135 518.964 165.966C518.412 166.792 517.553 167.205 516.386 167.205C515.202 167.205 514.336 166.786 513.788 165.946C513.244 165.107 512.973 163.816 512.973 162.076C512.973 160.321 513.249 159.027 513.801 158.192C514.353 157.352 515.215 156.932 516.386 156.932C517.57 156.932 518.434 157.359 518.977 158.212C519.525 159.06 519.799 160.343 519.799 162.062ZM518.056 165.071C518.211 164.713 518.315 164.294 518.368 163.812C518.425 163.326 518.454 162.743 518.454 162.062C518.454 161.391 518.425 160.807 518.368 160.313C518.315 159.818 518.209 159.398 518.05 159.053C517.895 158.713 517.683 158.457 517.413 158.284C517.148 158.112 516.806 158.026 516.386 158.026C515.971 158.026 515.626 158.112 515.352 158.284C515.083 158.457 514.868 158.717 514.709 159.067C514.559 159.393 514.455 159.82 514.398 160.346C514.345 160.871 514.318 161.448 514.318 162.076C514.318 162.765 514.342 163.341 514.391 163.805C514.44 164.269 514.543 164.685 514.703 165.051C514.848 165.396 515.054 165.659 515.319 165.84C515.588 166.021 515.944 166.112 516.386 166.112C516.801 166.112 517.146 166.026 517.42 165.853C517.694 165.681 517.906 165.42 518.056 165.071ZM533.095 158.298H528.104V161.081H532.392V162.248H528.104V167H526.792V157.131H533.095V158.298ZM535.839 158.357H534.434V157.065H535.839V158.357ZM535.759 167H534.513V159.597H535.759V167ZM539.484 167H538.238V156.687H539.484V167ZM548.147 163.428H542.692C542.692 163.883 542.76 164.28 542.897 164.621C543.034 164.956 543.222 165.233 543.461 165.449C543.69 165.661 543.962 165.82 544.276 165.926C544.594 166.032 544.943 166.085 545.323 166.085C545.827 166.085 546.333 165.986 546.841 165.787C547.353 165.584 547.718 165.385 547.934 165.191H548.001V166.549C547.581 166.726 547.152 166.874 546.715 166.993C546.277 167.113 545.818 167.172 545.336 167.172C544.108 167.172 543.149 166.841 542.46 166.178C541.771 165.511 541.426 164.565 541.426 163.341C541.426 162.131 541.755 161.17 542.413 160.458C543.076 159.747 543.947 159.391 545.025 159.391C546.023 159.391 546.792 159.683 547.331 160.266C547.875 160.849 548.147 161.678 548.147 162.752V163.428ZM546.934 162.473C546.929 161.819 546.764 161.313 546.437 160.955C546.114 160.598 545.621 160.419 544.959 160.419C544.291 160.419 543.759 160.615 543.361 161.008C542.968 161.402 542.745 161.89 542.692 162.473H546.934ZM556.842 167H555.258V165.111H556.842V167ZM562.058 158.357H560.653V157.065H562.058V158.357ZM561.979 167.179C561.979 168.045 561.758 168.699 561.316 169.141C560.874 169.583 560.282 169.804 559.54 169.804C559.363 169.804 559.129 169.786 558.837 169.751C558.55 169.715 558.309 169.671 558.115 169.618V168.432H558.181C558.305 168.48 558.47 168.535 558.678 168.597C558.89 168.659 559.096 168.69 559.295 168.69C559.613 168.69 559.869 168.646 560.063 168.558C560.258 168.469 560.404 168.337 560.501 168.16C560.598 167.983 560.66 167.769 560.686 167.517C560.717 167.27 560.733 166.967 560.733 166.609V160.644H559.188V159.597H561.979V167.179ZM570.946 163.209C570.946 163.81 570.86 164.36 570.688 164.859C570.515 165.354 570.272 165.774 569.959 166.119C569.667 166.445 569.322 166.7 568.925 166.881C568.531 167.057 568.114 167.146 567.672 167.146C567.288 167.146 566.939 167.104 566.625 167.02C566.316 166.936 566 166.806 565.677 166.629V169.731H564.431V159.597H565.677V160.372C566.008 160.094 566.38 159.862 566.791 159.676C567.206 159.486 567.648 159.391 568.116 159.391C569.009 159.391 569.702 159.729 570.197 160.405C570.697 161.077 570.946 162.011 570.946 163.209ZM569.66 163.242C569.66 162.349 569.508 161.682 569.203 161.24C568.898 160.799 568.43 160.578 567.798 160.578C567.44 160.578 567.08 160.655 566.718 160.81C566.355 160.964 566.008 161.168 565.677 161.419V165.615C566.031 165.774 566.333 165.882 566.585 165.94C566.841 165.997 567.131 166.026 567.453 166.026C568.147 166.026 568.688 165.792 569.077 165.323C569.466 164.855 569.66 164.161 569.66 163.242ZM579.085 163.428H573.63C573.63 163.883 573.699 164.28 573.836 164.621C573.973 164.956 574.161 165.233 574.399 165.449C574.629 165.661 574.901 165.82 575.215 165.926C575.533 166.032 575.882 166.085 576.262 166.085C576.765 166.085 577.271 165.986 577.779 165.787C578.292 165.584 578.657 165.385 578.873 165.191H578.939V166.549C578.52 166.726 578.091 166.874 577.654 166.993C577.216 167.113 576.757 167.172 576.275 167.172C575.047 167.172 574.088 166.841 573.399 166.178C572.709 165.511 572.365 164.565 572.365 163.341C572.365 162.131 572.694 161.17 573.352 160.458C574.015 159.747 574.885 159.391 575.963 159.391C576.962 159.391 577.731 159.683 578.27 160.266C578.813 160.849 579.085 161.678 579.085 162.752V163.428ZM577.872 162.473C577.868 161.819 577.702 161.313 577.375 160.955C577.053 160.598 576.56 160.419 575.897 160.419C575.23 160.419 574.698 160.615 574.3 161.008C573.907 161.402 573.684 161.89 573.63 162.473H577.872ZM587.781 167H586.197V165.111H587.781V167ZM597.206 163.209C597.206 163.81 597.119 164.36 596.947 164.859C596.775 165.354 596.532 165.774 596.218 166.119C595.926 166.445 595.582 166.7 595.184 166.881C594.791 167.057 594.373 167.146 593.931 167.146C593.547 167.146 593.198 167.104 592.884 167.02C592.575 166.936 592.259 166.806 591.937 166.629V169.731H590.69V159.597H591.937V160.372C592.268 160.094 592.639 159.862 593.05 159.676C593.465 159.486 593.907 159.391 594.376 159.391C595.268 159.391 595.962 159.729 596.457 160.405C596.956 161.077 597.206 162.011 597.206 163.209ZM595.92 163.242C595.92 162.349 595.767 161.682 595.462 161.24C595.158 160.799 594.689 160.578 594.057 160.578C593.7 160.578 593.339 160.655 592.977 160.81C592.615 160.964 592.268 161.168 591.937 161.419V165.615C592.29 165.774 592.593 165.882 592.845 165.94C593.101 165.997 593.39 166.026 593.713 166.026C594.406 166.026 594.948 165.792 595.337 165.323C595.725 164.855 595.92 164.161 595.92 163.242ZM605.338 167H604.092V162.785C604.092 162.444 604.072 162.126 604.032 161.83C603.993 161.53 603.92 161.296 603.814 161.128C603.703 160.942 603.544 160.805 603.336 160.717C603.129 160.624 602.859 160.578 602.528 160.578C602.188 160.578 601.832 160.662 601.461 160.83C601.09 160.997 600.734 161.212 600.394 161.472V167H599.148V159.597H600.394V160.419C600.782 160.096 601.185 159.844 601.6 159.663C602.015 159.482 602.442 159.391 602.879 159.391C603.679 159.391 604.289 159.632 604.708 160.114C605.128 160.595 605.338 161.289 605.338 162.195V167ZM613.742 166.158C613.742 167.413 613.457 168.334 612.887 168.922C612.317 169.51 611.44 169.804 610.256 169.804C609.863 169.804 609.478 169.775 609.103 169.717C608.731 169.664 608.365 169.587 608.002 169.485V168.213H608.069C608.272 168.292 608.594 168.39 609.036 168.505C609.478 168.624 609.92 168.683 610.362 168.683C610.786 168.683 611.137 168.633 611.416 168.531C611.694 168.429 611.911 168.288 612.065 168.107C612.22 167.935 612.33 167.727 612.397 167.484C612.463 167.241 612.496 166.969 612.496 166.669V165.993C612.12 166.293 611.76 166.518 611.416 166.669C611.075 166.814 610.64 166.887 610.11 166.887C609.226 166.887 608.524 166.569 608.002 165.933C607.485 165.292 607.227 164.391 607.227 163.229C607.227 162.593 607.315 162.045 607.492 161.585C607.673 161.121 607.918 160.721 608.228 160.385C608.515 160.072 608.864 159.829 609.275 159.656C609.686 159.48 610.095 159.391 610.501 159.391C610.93 159.391 611.288 159.435 611.575 159.524C611.866 159.608 612.173 159.738 612.496 159.915L612.576 159.597H613.742V166.158ZM612.496 164.965V160.929C612.165 160.779 611.855 160.673 611.568 160.611C611.285 160.545 611.003 160.511 610.72 160.511C610.035 160.511 609.496 160.741 609.103 161.201C608.709 161.66 608.513 162.327 608.513 163.202C608.513 164.033 608.658 164.663 608.95 165.091C609.242 165.52 609.726 165.734 610.402 165.734C610.764 165.734 611.126 165.666 611.489 165.529C611.855 165.387 612.191 165.199 612.496 164.965ZM623.001 167H621.417V165.111H623.001V167ZM631.2 164.866C631.2 165.542 630.919 166.096 630.358 166.529C629.801 166.962 629.039 167.179 628.071 167.179C627.523 167.179 627.02 167.115 626.56 166.987C626.105 166.854 625.723 166.711 625.414 166.556V165.157H625.48C625.873 165.454 626.311 165.69 626.792 165.867C627.274 166.039 627.736 166.125 628.177 166.125C628.725 166.125 629.154 166.037 629.463 165.86C629.773 165.683 629.927 165.405 629.927 165.025C629.927 164.733 629.843 164.512 629.675 164.362C629.507 164.212 629.185 164.084 628.708 163.978C628.531 163.938 628.299 163.892 628.012 163.839C627.729 163.786 627.47 163.728 627.236 163.666C626.587 163.494 626.125 163.242 625.851 162.911C625.582 162.575 625.447 162.164 625.447 161.678C625.447 161.373 625.509 161.086 625.632 160.816C625.76 160.547 625.953 160.306 626.209 160.094C626.456 159.886 626.77 159.723 627.15 159.603C627.535 159.48 627.963 159.418 628.436 159.418C628.878 159.418 629.324 159.473 629.775 159.583C630.23 159.69 630.608 159.82 630.908 159.975V161.307H630.842C630.524 161.073 630.137 160.876 629.682 160.717C629.227 160.553 628.781 160.472 628.343 160.472C627.888 160.472 627.504 160.56 627.19 160.737C626.876 160.909 626.719 161.168 626.719 161.512C626.719 161.817 626.814 162.047 627.004 162.201C627.19 162.356 627.49 162.482 627.906 162.579C628.135 162.632 628.392 162.685 628.675 162.738C628.962 162.791 629.2 162.84 629.39 162.884C629.969 163.017 630.415 163.244 630.729 163.567C631.043 163.894 631.2 164.327 631.2 164.866ZM639.392 159.597L636.396 167H635.143L632.167 159.597H633.519L635.813 165.489L638.086 159.597H639.392ZM647.027 166.158C647.027 167.413 646.742 168.334 646.172 168.922C645.602 169.51 644.725 169.804 643.541 169.804C643.147 169.804 642.763 169.775 642.387 169.717C642.016 169.664 641.65 169.587 641.287 169.485V168.213H641.354C641.557 168.292 641.879 168.39 642.321 168.505C642.763 168.624 643.205 168.683 643.647 168.683C644.071 168.683 644.422 168.633 644.701 168.531C644.979 168.429 645.195 168.288 645.35 168.107C645.505 167.935 645.615 167.727 645.681 167.484C645.748 167.241 645.781 166.969 645.781 166.669V165.993C645.405 166.293 645.045 166.518 644.701 166.669C644.36 166.814 643.925 166.887 643.395 166.887C642.511 166.887 641.809 166.569 641.287 165.933C640.77 165.292 640.512 164.391 640.512 163.229C640.512 162.593 640.6 162.045 640.777 161.585C640.958 161.121 641.203 160.721 641.513 160.385C641.8 160.072 642.149 159.829 642.56 159.656C642.971 159.48 643.379 159.391 643.786 159.391C644.215 159.391 644.572 159.435 644.86 159.524C645.151 159.608 645.458 159.738 645.781 159.915L645.86 159.597H647.027V166.158ZM645.781 164.965V160.929C645.45 160.779 645.14 160.673 644.853 160.611C644.57 160.545 644.287 160.511 644.005 160.511C643.32 160.511 642.781 160.741 642.387 161.201C641.994 161.66 641.798 162.327 641.798 163.202C641.798 164.033 641.943 164.663 642.235 165.091C642.527 165.52 643.01 165.734 643.687 165.734C644.049 165.734 644.411 165.666 644.773 165.529C645.14 165.387 645.476 165.199 645.781 164.965Z" fill="black"/>
</g>
</svg>
