<svg width="67" height="67" viewBox="0 0 67 67" fill="none" xmlns="http://www.w3.org/2000/svg">
<path d="M0.450365 66.4167V66.5483H0.582031H66.4154H66.547V66.4167V51.1104V51.0669L66.5211 51.032L37.7773 12.2689L43.4793 4.61197L43.5577 4.50673L43.4527 4.428L38.186 0.477995L38.0805 0.398826L38.0015 0.504553L33.4987 6.53513L28.9959 0.504553L28.9169 0.398826L28.8114 0.477995L23.5447 4.428L23.4397 4.50673L23.5181 4.61197L29.2201 12.2689L0.476269 51.032L0.450365 51.0669V51.1104V66.4167ZM16.9726 59.7017H7.29703V53.2935L33.4987 18.0032L59.7004 53.2935V59.7017H50.0248L33.6058 36.7151L33.4987 36.5651L33.3916 36.7151L16.9726 59.7017ZM25.3616 59.7017L33.4987 48.3736L41.6358 59.7017H25.3616Z" fill="url(#paint0_linear_1202_1415)" stroke="url(#paint1_linear_1202_1415)" stroke-width="0.263333"/>
<defs>
<linearGradient id="paint0_linear_1202_1415" x1="33.4987" y1="0.583328" x2="33.4987" y2="66.4167" gradientUnits="userSpaceOnUse">
<stop stop-color="#8F1402"/>
<stop offset="1" stop-color="#FFA899"/>
</linearGradient>
<linearGradient id="paint1_linear_1202_1415" x1="33.4987" y1="0.583328" x2="33.4987" y2="66.4167" gradientUnits="userSpaceOnUse">
<stop stop-color="#8F1402"/>
<stop offset="1" stop-color="#FFA899"/>
</linearGradient>
</defs>
</svg>
