<svg width="36" height="37" viewBox="0 0 36 37" fill="none" xmlns="http://www.w3.org/2000/svg">
<path d="M17.9887 30.507C17.1641 30.507 16.4582 30.2134 15.871 29.6262C15.2838 29.039 14.9902 28.3332 14.9902 27.5086C14.9902 26.684 15.2838 25.9781 15.871 25.3909C16.4582 24.8038 17.1641 24.5102 17.9887 24.5102C18.8132 24.5102 19.5191 24.8038 20.1063 25.3909C20.6935 25.9781 20.9871 26.684 20.9871 27.5086C20.9871 28.3332 20.6935 29.039 20.1063 29.6262C19.5191 30.2134 18.8132 30.507 17.9887 30.507ZM17.9887 21.5117C17.1641 21.5117 16.4582 21.2181 15.871 20.6309C15.2838 20.0437 14.9902 19.3379 14.9902 18.5133C14.9902 17.6887 15.2838 16.9828 15.871 16.3956C16.4582 15.8084 17.1641 15.5148 17.9887 15.5148C18.8132 15.5148 19.5191 15.8084 20.1063 16.3956C20.6935 16.9828 20.9871 17.6887 20.9871 18.5133C20.9871 19.3379 20.6935 20.0437 20.1063 20.6309C19.5191 21.2181 18.8132 21.5117 17.9887 21.5117ZM17.9887 12.5164C17.1641 12.5164 16.4582 12.2228 15.871 11.6356C15.2838 11.0484 14.9902 10.3425 14.9902 9.51797C14.9902 8.6934 15.2838 7.98752 15.871 7.40032C16.4582 6.81313 17.1641 6.51953 17.9887 6.51953C18.8132 6.51953 19.5191 6.81313 20.1063 7.40032C20.6935 7.98752 20.9871 8.6934 20.9871 9.51797C20.9871 10.3425 20.6935 11.0484 20.1063 11.6356C19.5191 12.2228 18.8132 12.5164 17.9887 12.5164Z" fill="#979797"/>
</svg>
