<svg width="187" height="187" viewBox="0 0 187 187" fill="none" xmlns="http://www.w3.org/2000/svg">
<g opacity="0.5">
<rect x="0.623147" y="0.623147" width="185.698" height="185.698" rx="24.3028" stroke="black" stroke-width="1.24629" stroke-linecap="round" stroke-linejoin="round" stroke-dasharray="12.46 12.46"/>
<path d="M127.901 85.8488V113.112C127.901 115.177 127.08 117.159 125.62 118.619C124.159 120.08 122.177 120.901 120.112 120.901H108.428M127.901 85.8488C102.811 85.8488 88.5453 93.5797 80.9507 102.374M127.901 85.8488V80.0068M108.428 120.901H65.5862C63.5204 120.901 61.5391 120.08 60.0783 118.619C58.6175 117.159 57.7969 115.177 57.7969 113.112V101.428M108.428 120.901C101.791 110.12 91.1859 104.746 80.9507 102.374M80.9507 102.374C71.9618 100.286 63.2611 100.516 57.7969 101.428M57.7969 101.428V58.5861C57.7969 56.5203 58.6175 54.539 60.0783 53.0782C61.5391 51.6174 63.5204 50.7968 65.5862 50.7968H96.7436M120.112 46.9021V58.5861M120.112 58.5861V70.2701M120.112 58.5861H131.796M120.112 58.5861H108.428M79.2176 66.3755C77.2702 66.3755 73.3756 67.5439 73.3756 72.2175C73.3756 76.8911 77.2702 78.0595 79.2176 78.0595C81.1649 78.0595 85.0596 76.8911 85.0596 72.2175C85.0596 67.5439 81.1649 66.3755 79.2176 66.3755Z" stroke="#17202C" stroke-width="2.49259" stroke-linecap="round" stroke-linejoin="round"/>
<path d="M78.5182 135.606H79.3657V140.292C79.3657 140.77 79.4953 141.156 79.7545 141.448C80.0137 141.741 80.3926 141.887 80.8911 141.887C81.3896 141.887 81.7685 141.741 82.0278 141.448C82.287 141.156 82.4166 140.77 82.4166 140.292V135.606H83.2641V140.292C83.2641 140.637 83.2076 140.956 83.0946 141.249C82.9882 141.541 82.8287 141.794 82.616 142.007C82.4099 142.219 82.1607 142.386 81.8682 142.505C81.5758 142.625 81.2501 142.685 80.8911 142.685C80.5322 142.685 80.2065 142.625 79.914 142.505C79.6216 142.386 79.369 142.219 79.1563 142.007C78.9502 141.794 78.7907 141.541 78.6777 141.249C78.5714 140.956 78.5182 140.637 78.5182 140.292V135.606ZM85.5072 144.778H84.7095V137.999H85.5072V144.778ZM89.3458 140.292C89.3458 140.784 89.2427 141.209 89.0367 141.568C88.8306 141.927 88.5548 142.203 88.2091 142.396C87.8701 142.588 87.4913 142.685 87.0725 142.685C86.6936 142.685 86.358 142.588 86.0655 142.396C85.7797 142.203 85.5537 141.927 85.3875 141.568C85.228 141.209 85.1482 140.784 85.1482 140.292C85.1482 139.793 85.228 139.368 85.3875 139.016C85.5537 138.657 85.7797 138.381 86.0655 138.188C86.358 137.995 86.6936 137.899 87.0725 137.899C87.4913 137.899 87.8701 137.995 88.2091 138.188C88.5548 138.381 88.8306 138.657 89.0367 139.016C89.2427 139.368 89.3458 139.793 89.3458 140.292ZM88.5382 140.292C88.5382 139.939 88.465 139.64 88.3188 139.394C88.1792 139.149 87.9898 138.962 87.7505 138.836C87.5179 138.71 87.2586 138.647 86.9728 138.647C86.7402 138.647 86.5109 138.71 86.2849 138.836C86.0589 138.962 85.8728 139.149 85.7265 139.394C85.5803 139.64 85.5072 139.939 85.5072 140.292C85.5072 140.644 85.5803 140.943 85.7265 141.189C85.8728 141.435 86.0589 141.621 86.2849 141.747C86.5109 141.874 86.7402 141.937 86.9728 141.937C87.2586 141.937 87.5179 141.874 87.7505 141.747C87.9898 141.621 88.1792 141.435 88.3188 141.189C88.465 140.943 88.5382 140.644 88.5382 140.292ZM90.4456 134.808H91.2432V142.585H90.4456V134.808ZM92.3447 140.292C92.3447 139.826 92.4477 139.414 92.6537 139.055C92.8664 138.697 93.1523 138.414 93.5112 138.208C93.8701 138.002 94.2723 137.899 94.7176 137.899C95.1696 137.899 95.5717 138.002 95.924 138.208C96.283 138.414 96.5654 138.697 96.7715 139.055C96.9842 139.414 97.0906 139.826 97.0906 140.292C97.0906 140.75 96.9842 141.163 96.7715 141.528C96.5654 141.887 96.283 142.17 95.924 142.376C95.5717 142.582 95.1696 142.685 94.7176 142.685C94.2723 142.685 93.8701 142.582 93.5112 142.376C93.1523 142.17 92.8664 141.887 92.6537 141.528C92.4477 141.163 92.3447 140.75 92.3447 140.292ZM93.1523 140.292C93.1523 140.611 93.2187 140.893 93.3517 141.139C93.4913 141.385 93.6774 141.581 93.91 141.728C94.1493 141.867 94.4185 141.937 94.7176 141.937C95.0167 141.937 95.2826 141.867 95.5152 141.728C95.7545 141.581 95.9406 141.385 96.0736 141.139C96.2132 140.893 96.283 140.611 96.283 140.292C96.283 139.973 96.2132 139.69 96.0736 139.444C95.9406 139.192 95.7545 138.996 95.5152 138.856C95.2826 138.716 95.0167 138.647 94.7176 138.647C94.4185 138.647 94.1493 138.716 93.91 138.856C93.6774 138.996 93.4913 139.192 93.3517 139.444C93.2187 139.69 93.1523 139.973 93.1523 140.292ZM98.5452 141.169C98.5452 141.342 98.5851 141.492 98.6649 141.618C98.7513 141.744 98.8676 141.841 99.0138 141.907C99.1667 141.967 99.3395 141.997 99.5323 141.997C99.7782 141.997 99.9976 141.947 100.19 141.847C100.39 141.747 100.546 141.608 100.659 141.428C100.779 141.242 100.838 141.03 100.838 140.79L100.998 141.389C100.998 141.681 100.908 141.924 100.729 142.116C100.556 142.309 100.34 142.452 100.081 142.545C99.8281 142.638 99.5755 142.685 99.3229 142.685C99.0437 142.685 98.7812 142.628 98.5352 142.515C98.296 142.396 98.1032 142.226 97.957 142.007C97.8107 141.787 97.7376 141.521 97.7376 141.209C97.7376 140.764 97.8938 140.408 98.2062 140.142C98.5253 139.87 98.9673 139.733 99.5323 139.733C99.8646 139.733 100.14 139.773 100.36 139.853C100.586 139.926 100.765 140.013 100.898 140.112C101.031 140.205 101.121 140.282 101.167 140.342V140.81C100.935 140.651 100.695 140.538 100.45 140.471C100.204 140.398 99.9411 140.362 99.6619 140.362C99.4027 140.362 99.19 140.395 99.0238 140.461C98.8643 140.528 98.7446 140.621 98.6649 140.74C98.5851 140.86 98.5452 141.003 98.5452 141.169ZM98.4256 139.055L98.0367 138.467C98.2095 138.341 98.4455 138.215 98.7446 138.088C99.0504 137.962 99.416 137.899 99.8414 137.899C100.2 137.899 100.513 137.955 100.779 138.068C101.051 138.175 101.26 138.331 101.407 138.537C101.56 138.743 101.636 138.996 101.636 139.295V142.585H100.838V139.404C100.838 139.245 100.812 139.115 100.759 139.016C100.705 138.909 100.629 138.826 100.529 138.766C100.436 138.706 100.327 138.663 100.2 138.637C100.074 138.61 99.9411 138.597 99.8015 138.597C99.5755 138.597 99.3694 138.623 99.1833 138.677C99.0038 138.73 98.851 138.793 98.7247 138.866C98.5984 138.939 98.4987 139.002 98.4256 139.055ZM106.426 134.808H107.224V142.585H106.426V134.808ZM102.588 140.292C102.588 139.793 102.691 139.368 102.897 139.016C103.103 138.657 103.379 138.381 103.724 138.188C104.07 137.995 104.449 137.899 104.861 137.899C105.246 137.899 105.582 137.995 105.868 138.188C106.154 138.381 106.376 138.657 106.536 139.016C106.702 139.368 106.785 139.793 106.785 140.292C106.785 140.784 106.702 141.209 106.536 141.568C106.376 141.927 106.154 142.203 105.868 142.396C105.582 142.588 105.246 142.685 104.861 142.685C104.449 142.685 104.07 142.588 103.724 142.396C103.379 142.203 103.103 141.927 102.897 141.568C102.691 141.209 102.588 140.784 102.588 140.292ZM103.395 140.292C103.395 140.644 103.465 140.943 103.605 141.189C103.751 141.435 103.944 141.621 104.183 141.747C104.422 141.874 104.681 141.937 104.961 141.937C105.193 141.937 105.423 141.874 105.649 141.747C105.875 141.621 106.061 141.435 106.207 141.189C106.353 140.943 106.426 140.644 106.426 140.292C106.426 139.939 106.353 139.64 106.207 139.394C106.061 139.149 105.875 138.962 105.649 138.836C105.423 138.71 105.193 138.647 104.961 138.647C104.681 138.647 104.422 138.71 104.183 138.836C103.944 138.962 103.751 139.149 103.605 139.394C103.465 139.64 103.395 139.939 103.395 140.292Z" fill="black"/>
</g>
</svg>
