<svg width="150" height="150" viewBox="0 0 150 150" fill="none" xmlns="http://www.w3.org/2000/svg">
<g opacity="0.5">
<rect x="0.5" y="0.5" width="149" height="149" rx="19.5" stroke="black" stroke-linecap="round" stroke-linejoin="round" stroke-dasharray="10 10"/>
<path d="M102.625 64.5V86.375C102.625 88.0326 101.967 89.6223 100.794 90.7944C99.6223 91.9665 98.0326 92.625 96.375 92.625H87M102.625 64.5C82.4938 64.5 71.0469 70.7031 64.9531 77.7594M102.625 64.5V59.8125M87 92.625H52.625C50.9674 92.625 49.3777 91.9665 48.2056 90.7944C47.0335 89.6223 46.375 88.0326 46.375 86.375V77M87 92.625C81.675 83.975 73.1656 79.6625 64.9531 77.7594M64.9531 77.7594C57.7406 76.0844 50.7594 76.2688 46.375 77M46.375 77V42.625C46.375 40.9674 47.0335 39.3777 48.2056 38.2056C49.3777 37.0335 50.9674 36.375 52.625 36.375H77.625M96.375 33.25V42.625M96.375 42.625V52M96.375 42.625H105.75M96.375 42.625H87M63.5625 48.875C62 48.875 58.875 49.8125 58.875 53.5625C58.875 57.3125 62 58.25 63.5625 58.25C65.125 58.25 68.25 57.3125 68.25 53.5625C68.25 49.8125 65.125 48.875 63.5625 48.875Z" stroke="#17202C" stroke-width="2" stroke-linecap="round" stroke-linejoin="round"/>
<path d="M51.2461 107.766C51.2461 108.12 51.1953 108.444 51.0938 108.738C50.9922 109.03 50.849 109.277 50.6641 109.48C50.4922 109.673 50.2891 109.823 50.0547 109.93C49.8229 110.034 49.5768 110.086 49.3164 110.086C49.0898 110.086 48.8841 110.061 48.6992 110.012C48.5169 109.962 48.3307 109.885 48.1406 109.781V111.609H47.4062V105.637H48.1406V106.094C48.3359 105.93 48.5547 105.793 48.7969 105.684C49.0417 105.572 49.3021 105.516 49.5781 105.516C50.1042 105.516 50.513 105.715 50.8047 106.113C51.099 106.509 51.2461 107.06 51.2461 107.766ZM50.4883 107.785C50.4883 107.259 50.3984 106.866 50.2188 106.605C50.0391 106.345 49.763 106.215 49.3906 106.215C49.1797 106.215 48.9674 106.26 48.7539 106.352C48.5404 106.443 48.3359 106.562 48.1406 106.711V109.184C48.349 109.277 48.5273 109.341 48.6758 109.375C48.8268 109.409 48.9974 109.426 49.1875 109.426C49.5964 109.426 49.9154 109.288 50.1445 109.012C50.3737 108.736 50.4883 108.327 50.4883 107.785ZM55.1133 106.438H55.0742C54.9648 106.411 54.8581 106.393 54.7539 106.383C54.6523 106.37 54.5312 106.363 54.3906 106.363C54.1641 106.363 53.9453 106.414 53.7344 106.516C53.5234 106.615 53.3203 106.743 53.125 106.902V110H52.3906V105.637H53.125V106.281C53.4167 106.047 53.6732 105.882 53.8945 105.785C54.1185 105.686 54.3464 105.637 54.5781 105.637C54.7057 105.637 54.7982 105.641 54.8555 105.648C54.9128 105.654 54.9987 105.665 55.1133 105.684V106.438ZM59.5234 107.82C59.5234 108.531 59.3411 109.092 58.9766 109.504C58.612 109.915 58.1237 110.121 57.5117 110.121C56.8945 110.121 56.4036 109.915 56.0391 109.504C55.6771 109.092 55.4961 108.531 55.4961 107.82C55.4961 107.109 55.6771 106.548 56.0391 106.137C56.4036 105.723 56.8945 105.516 57.5117 105.516C58.1237 105.516 58.612 105.723 58.9766 106.137C59.3411 106.548 59.5234 107.109 59.5234 107.82ZM58.7656 107.82C58.7656 107.255 58.6549 106.836 58.4336 106.562C58.2122 106.286 57.9049 106.148 57.5117 106.148C57.1133 106.148 56.8034 106.286 56.582 106.562C56.3633 106.836 56.2539 107.255 56.2539 107.82C56.2539 108.367 56.3646 108.783 56.5859 109.066C56.8073 109.348 57.1159 109.488 57.5117 109.488C57.9023 109.488 58.2083 109.349 58.4297 109.07C58.6536 108.789 58.7656 108.372 58.7656 107.82ZM63.0117 104.633H62.9727C62.8919 104.609 62.7865 104.586 62.6562 104.562C62.526 104.536 62.4115 104.523 62.3125 104.523C61.9974 104.523 61.7682 104.594 61.625 104.734C61.4844 104.872 61.4141 105.124 61.4141 105.488V105.637H62.7383V106.254H61.4375V110H60.7031V106.254H60.207V105.637H60.7031V105.492C60.7031 104.974 60.832 104.577 61.0898 104.301C61.3477 104.022 61.7201 103.883 62.207 103.883C62.3711 103.883 62.5182 103.891 62.6484 103.906C62.7812 103.922 62.9023 103.94 63.0117 103.961V104.633ZM64.2656 104.906H63.4375V104.145H64.2656V104.906ZM64.2188 110H63.4844V105.637H64.2188V110ZM66.4141 110H65.6797V103.922H66.4141V110ZM71.5195 107.895H68.3047C68.3047 108.163 68.3451 108.397 68.4258 108.598C68.5065 108.796 68.6172 108.958 68.7578 109.086C68.8932 109.211 69.0534 109.305 69.2383 109.367C69.4258 109.43 69.6315 109.461 69.8555 109.461C70.1523 109.461 70.4505 109.402 70.75 109.285C71.0521 109.165 71.2669 109.048 71.3945 108.934H71.4336V109.734C71.1862 109.839 70.9336 109.926 70.6758 109.996C70.418 110.066 70.1471 110.102 69.8633 110.102C69.1393 110.102 68.5742 109.906 68.168 109.516C67.7617 109.122 67.5586 108.565 67.5586 107.844C67.5586 107.13 67.7526 106.564 68.1406 106.145C68.5312 105.725 69.0443 105.516 69.6797 105.516C70.2682 105.516 70.7214 105.688 71.0391 106.031C71.3594 106.375 71.5195 106.863 71.5195 107.496V107.895ZM70.8047 107.332C70.8021 106.947 70.7044 106.648 70.5117 106.438C70.3216 106.227 70.0312 106.121 69.6406 106.121C69.2474 106.121 68.9336 106.237 68.6992 106.469C68.4674 106.701 68.3359 106.988 68.3047 107.332H70.8047ZM79.3086 105.941C79.3086 106.199 79.263 106.439 79.1719 106.66C79.0833 106.879 78.9583 107.069 78.7969 107.23C78.5964 107.431 78.3594 107.582 78.0859 107.684C77.8125 107.783 77.4674 107.832 77.0508 107.832H76.2773V110H75.5039V104.184H77.082C77.431 104.184 77.7266 104.214 77.9688 104.273C78.2109 104.331 78.4258 104.422 78.6133 104.547C78.8346 104.695 79.0052 104.88 79.125 105.102C79.2474 105.323 79.3086 105.603 79.3086 105.941ZM78.5039 105.961C78.5039 105.76 78.4688 105.586 78.3984 105.438C78.3281 105.289 78.2214 105.168 78.0781 105.074C77.9531 104.993 77.8099 104.936 77.6484 104.902C77.4896 104.866 77.2878 104.848 77.043 104.848H76.2773V107.172H76.9297C77.2422 107.172 77.4961 107.145 77.6914 107.09C77.8867 107.033 78.0456 106.943 78.168 106.82C78.2904 106.695 78.3763 106.564 78.4258 106.426C78.4779 106.288 78.5039 106.133 78.5039 105.961ZM81.0625 104.906H80.2344V104.145H81.0625V104.906ZM81.0156 110H80.2812V105.637H81.0156V110ZM85.6953 109.727C85.4505 109.844 85.2174 109.935 84.9961 110C84.7773 110.065 84.5443 110.098 84.2969 110.098C83.9818 110.098 83.6927 110.052 83.4297 109.961C83.1667 109.867 82.9414 109.727 82.7539 109.539C82.5638 109.352 82.4167 109.115 82.3125 108.828C82.2083 108.542 82.1562 108.207 82.1562 107.824C82.1562 107.111 82.3516 106.551 82.7422 106.145C83.1354 105.738 83.6536 105.535 84.2969 105.535C84.5469 105.535 84.7917 105.57 85.0312 105.641C85.2734 105.711 85.4948 105.797 85.6953 105.898V106.715H85.6562C85.4323 106.54 85.2005 106.406 84.9609 106.312C84.724 106.219 84.4922 106.172 84.2656 106.172C83.849 106.172 83.5195 106.312 83.2773 106.594C83.0378 106.872 82.918 107.283 82.918 107.824C82.918 108.35 83.0352 108.755 83.2695 109.039C83.5065 109.32 83.8385 109.461 84.2656 109.461C84.4141 109.461 84.5651 109.441 84.7188 109.402C84.8724 109.363 85.0104 109.312 85.1328 109.25C85.2396 109.195 85.3398 109.138 85.4336 109.078C85.5273 109.016 85.6016 108.962 85.6562 108.918H85.6953V109.727ZM88.9062 109.961C88.7682 109.997 88.6172 110.027 88.4531 110.051C88.2917 110.074 88.1471 110.086 88.0195 110.086C87.5742 110.086 87.2357 109.966 87.0039 109.727C86.7721 109.487 86.6562 109.103 86.6562 108.574V106.254H86.1602V105.637H86.6562V104.383H87.3906V105.637H88.9062V106.254H87.3906V108.242C87.3906 108.471 87.3958 108.651 87.4062 108.781C87.4167 108.909 87.4531 109.029 87.5156 109.141C87.5729 109.245 87.651 109.322 87.75 109.371C87.8516 109.418 88.0052 109.441 88.2109 109.441C88.3307 109.441 88.4557 109.424 88.5859 109.391C88.7161 109.354 88.8099 109.324 88.8672 109.301H88.9062V109.961ZM93.4141 110H92.6797V109.516C92.4323 109.711 92.1953 109.861 91.9688 109.965C91.7422 110.069 91.4922 110.121 91.2188 110.121C90.7604 110.121 90.4036 109.982 90.1484 109.703C89.8932 109.422 89.7656 109.01 89.7656 108.469V105.637H90.5V108.121C90.5 108.342 90.5104 108.533 90.5312 108.691C90.5521 108.848 90.5964 108.982 90.6641 109.094C90.7344 109.208 90.8255 109.292 90.9375 109.344C91.0495 109.396 91.2122 109.422 91.4258 109.422C91.6159 109.422 91.8229 109.372 92.0469 109.273C92.2734 109.174 92.4844 109.048 92.6797 108.895V105.637H93.4141V110ZM97.582 106.438H97.543C97.4336 106.411 97.3268 106.393 97.2227 106.383C97.1211 106.37 97 106.363 96.8594 106.363C96.6328 106.363 96.4141 106.414 96.2031 106.516C95.9922 106.615 95.7891 106.743 95.5938 106.902V110H94.8594V105.637H95.5938V106.281C95.8854 106.047 96.1419 105.882 96.3633 105.785C96.5872 105.686 96.8151 105.637 97.0469 105.637C97.1745 105.637 97.2669 105.641 97.3242 105.648C97.3815 105.654 97.4674 105.665 97.582 105.684V106.438ZM101.926 107.895H98.7109C98.7109 108.163 98.7513 108.397 98.832 108.598C98.9128 108.796 99.0234 108.958 99.1641 109.086C99.2995 109.211 99.4596 109.305 99.6445 109.367C99.832 109.43 100.038 109.461 100.262 109.461C100.559 109.461 100.857 109.402 101.156 109.285C101.458 109.165 101.673 109.048 101.801 108.934H101.84V109.734C101.592 109.839 101.34 109.926 101.082 109.996C100.824 110.066 100.553 110.102 100.27 110.102C99.5456 110.102 98.9805 109.906 98.5742 109.516C98.168 109.122 97.9648 108.565 97.9648 107.844C97.9648 107.13 98.1589 106.564 98.5469 106.145C98.9375 105.725 99.4505 105.516 100.086 105.516C100.674 105.516 101.128 105.688 101.445 106.031C101.766 106.375 101.926 106.863 101.926 107.496V107.895ZM101.211 107.332C101.208 106.947 101.111 106.648 100.918 106.438C100.728 106.227 100.438 106.121 100.047 106.121C99.6536 106.121 99.3398 106.237 99.1055 106.469C98.8737 106.701 98.7422 106.988 98.7109 107.332H101.211Z" fill="black"/>
<path d="M9.96094 120H9.1875V114.988L7.57031 118.398H7.10938L5.50391 114.988V120H4.78125V114.184H5.83594L7.38672 117.422L8.88672 114.184H9.96094V120ZM12.2539 114.906H11.4258V114.145H12.2539V114.906ZM12.207 120H11.4727V115.637H12.207V120ZM17.3086 120H16.5742V117.516C16.5742 117.315 16.5625 117.128 16.5391 116.953C16.5156 116.776 16.4727 116.638 16.4102 116.539C16.3451 116.43 16.2513 116.349 16.1289 116.297C16.0065 116.242 15.8477 116.215 15.6523 116.215C15.4518 116.215 15.2422 116.264 15.0234 116.363C14.8047 116.462 14.5951 116.589 14.3945 116.742V120H13.6602V115.637H14.3945V116.121C14.6237 115.931 14.8607 115.783 15.1055 115.676C15.3503 115.569 15.6016 115.516 15.8594 115.516C16.3307 115.516 16.6901 115.658 16.9375 115.941C17.1849 116.225 17.3086 116.634 17.3086 117.168V120ZM25.375 117.766C25.375 118.12 25.3242 118.444 25.2227 118.738C25.1211 119.03 24.9779 119.277 24.793 119.48C24.6211 119.673 24.418 119.823 24.1836 119.93C23.9518 120.034 23.7057 120.086 23.4453 120.086C23.2188 120.086 23.013 120.061 22.8281 120.012C22.6458 119.962 22.4596 119.885 22.2695 119.781V121.609H21.5352V115.637H22.2695V116.094C22.4648 115.93 22.6836 115.793 22.9258 115.684C23.1706 115.572 23.431 115.516 23.707 115.516C24.2331 115.516 24.6419 115.715 24.9336 116.113C25.2279 116.509 25.375 117.06 25.375 117.766ZM24.6172 117.785C24.6172 117.259 24.5273 116.866 24.3477 116.605C24.168 116.345 23.8919 116.215 23.5195 116.215C23.3086 116.215 23.0964 116.26 22.8828 116.352C22.6693 116.443 22.4648 116.562 22.2695 116.711V119.184C22.4779 119.277 22.6562 119.341 22.8047 119.375C22.9557 119.409 23.1263 119.426 23.3164 119.426C23.7253 119.426 24.0443 119.288 24.2734 119.012C24.5026 118.736 24.6172 118.327 24.6172 117.785ZM30.2969 120H29.3711L28.1328 118.324L26.8867 120H26.0312L27.7344 117.824L26.0469 115.637H26.9727L28.2031 117.285L29.4375 115.637H30.2969L28.582 117.785L30.2969 120ZM37.5781 120H34.4297V119.406H35.6406V115.508H34.4297V114.977C34.5938 114.977 34.7695 114.964 34.957 114.938C35.1445 114.909 35.2865 114.868 35.3828 114.816C35.5026 114.751 35.5964 114.669 35.6641 114.57C35.7344 114.469 35.7747 114.333 35.7852 114.164H36.3906V119.406H37.5781V120ZM42.9883 117.09C42.9883 118.134 42.8242 118.901 42.4961 119.391C42.1706 119.878 41.6641 120.121 40.9766 120.121C40.2786 120.121 39.7682 119.874 39.4453 119.379C39.125 118.884 38.9648 118.124 38.9648 117.098C38.9648 116.064 39.1276 115.301 39.4531 114.809C39.7786 114.314 40.2865 114.066 40.9766 114.066C41.6745 114.066 42.1836 114.318 42.5039 114.82C42.8268 115.32 42.9883 116.077 42.9883 117.09ZM41.9609 118.863C42.0521 118.652 42.1133 118.405 42.1445 118.121C42.1784 117.835 42.1953 117.491 42.1953 117.09C42.1953 116.694 42.1784 116.35 42.1445 116.059C42.1133 115.767 42.0508 115.52 41.957 115.316C41.8659 115.116 41.7409 114.965 41.582 114.863C41.4258 114.762 41.224 114.711 40.9766 114.711C40.7318 114.711 40.5286 114.762 40.3672 114.863C40.2083 114.965 40.082 115.118 39.9883 115.324C39.8997 115.517 39.8385 115.768 39.8047 116.078C39.7734 116.388 39.7578 116.728 39.7578 117.098C39.7578 117.504 39.7721 117.844 39.8008 118.117C39.8294 118.391 39.8906 118.635 39.9844 118.852C40.0703 119.055 40.1914 119.21 40.3477 119.316C40.5065 119.423 40.7161 119.477 40.9766 119.477C41.2214 119.477 41.4245 119.426 41.5859 119.324C41.7474 119.223 41.8724 119.069 41.9609 118.863ZM48.0742 117.09C48.0742 118.134 47.9102 118.901 47.582 119.391C47.2565 119.878 46.75 120.121 46.0625 120.121C45.3646 120.121 44.8542 119.874 44.5312 119.379C44.2109 118.884 44.0508 118.124 44.0508 117.098C44.0508 116.064 44.2135 115.301 44.5391 114.809C44.8646 114.314 45.3724 114.066 46.0625 114.066C46.7604 114.066 47.2695 114.318 47.5898 114.82C47.9128 115.32 48.0742 116.077 48.0742 117.09ZM47.0469 118.863C47.138 118.652 47.1992 118.405 47.2305 118.121C47.2643 117.835 47.2812 117.491 47.2812 117.09C47.2812 116.694 47.2643 116.35 47.2305 116.059C47.1992 115.767 47.1367 115.52 47.043 115.316C46.9518 115.116 46.8268 114.965 46.668 114.863C46.5117 114.762 46.3099 114.711 46.0625 114.711C45.8177 114.711 45.6146 114.762 45.4531 114.863C45.2943 114.965 45.168 115.118 45.0742 115.324C44.9857 115.517 44.9245 115.768 44.8906 116.078C44.8594 116.388 44.8438 116.728 44.8438 117.098C44.8438 117.504 44.8581 117.844 44.8867 118.117C44.9154 118.391 44.9766 118.635 45.0703 118.852C45.1562 119.055 45.2773 119.21 45.4336 119.316C45.5924 119.423 45.8021 119.477 46.0625 119.477C46.3073 119.477 46.5104 119.426 46.6719 119.324C46.8333 119.223 46.9583 119.069 47.0469 118.863ZM53.043 116.535L52.793 116.965L51.3789 116.133L51.4023 117.539H50.8984L50.918 116.133L49.5078 116.969L49.2539 116.539L50.7422 115.73L49.2539 114.922L49.5078 114.492L50.9219 115.324L50.8984 113.922H51.4023L51.375 115.324L52.793 114.496L53.043 114.926L51.5586 115.727L53.043 116.535ZM57.9219 120H54.7734V119.406H55.9844V115.508H54.7734V114.977C54.9375 114.977 55.1133 114.964 55.3008 114.938C55.4883 114.909 55.6302 114.868 55.7266 114.816C55.8464 114.751 55.9401 114.669 56.0078 114.57C56.0781 114.469 56.1185 114.333 56.1289 114.164H56.7344V119.406H57.9219V120ZM63.332 117.09C63.332 118.134 63.168 118.901 62.8398 119.391C62.5143 119.878 62.0078 120.121 61.3203 120.121C60.6224 120.121 60.112 119.874 59.7891 119.379C59.4688 118.884 59.3086 118.124 59.3086 117.098C59.3086 116.064 59.4714 115.301 59.7969 114.809C60.1224 114.314 60.6302 114.066 61.3203 114.066C62.0182 114.066 62.5273 114.318 62.8477 114.82C63.1706 115.32 63.332 116.077 63.332 117.09ZM62.3047 118.863C62.3958 118.652 62.457 118.405 62.4883 118.121C62.5221 117.835 62.5391 117.491 62.5391 117.09C62.5391 116.694 62.5221 116.35 62.4883 116.059C62.457 115.767 62.3945 115.52 62.3008 115.316C62.2096 115.116 62.0846 114.965 61.9258 114.863C61.7695 114.762 61.5677 114.711 61.3203 114.711C61.0755 114.711 60.8724 114.762 60.7109 114.863C60.5521 114.965 60.4258 115.118 60.332 115.324C60.2435 115.517 60.1823 115.768 60.1484 116.078C60.1172 116.388 60.1016 116.728 60.1016 117.098C60.1016 117.504 60.1159 117.844 60.1445 118.117C60.1732 118.391 60.2344 118.635 60.3281 118.852C60.4141 119.055 60.5352 119.21 60.6914 119.316C60.8503 119.423 61.0599 119.477 61.3203 119.477C61.5651 119.477 61.7682 119.426 61.9297 119.324C62.0911 119.223 62.2161 119.069 62.3047 118.863ZM68.418 117.09C68.418 118.134 68.2539 118.901 67.9258 119.391C67.6003 119.878 67.0938 120.121 66.4062 120.121C65.7083 120.121 65.1979 119.874 64.875 119.379C64.5547 118.884 64.3945 118.124 64.3945 117.098C64.3945 116.064 64.5573 115.301 64.8828 114.809C65.2083 114.314 65.7161 114.066 66.4062 114.066C67.1042 114.066 67.6133 114.318 67.9336 114.82C68.2565 115.32 68.418 116.077 68.418 117.09ZM67.3906 118.863C67.4818 118.652 67.543 118.405 67.5742 118.121C67.6081 117.835 67.625 117.491 67.625 117.09C67.625 116.694 67.6081 116.35 67.5742 116.059C67.543 115.767 67.4805 115.52 67.3867 115.316C67.2956 115.116 67.1706 114.965 67.0117 114.863C66.8555 114.762 66.6536 114.711 66.4062 114.711C66.1615 114.711 65.9583 114.762 65.7969 114.863C65.638 114.965 65.5117 115.118 65.418 115.324C65.3294 115.517 65.2682 115.768 65.2344 116.078C65.2031 116.388 65.1875 116.728 65.1875 117.098C65.1875 117.504 65.2018 117.844 65.2305 118.117C65.2591 118.391 65.3203 118.635 65.4141 118.852C65.5 119.055 65.6211 119.21 65.7773 119.316C65.9362 119.423 66.1458 119.477 66.4062 119.477C66.651 119.477 66.8542 119.426 67.0156 119.324C67.1771 119.223 67.3021 119.069 67.3906 118.863ZM76.2539 114.871H73.3125V116.512H75.8398V117.199H73.3125V120H72.5391V114.184H76.2539V114.871ZM77.8711 114.906H77.043V114.145H77.8711V114.906ZM77.8242 120H77.0898V115.637H77.8242V120ZM80.0195 120H79.2852V113.922H80.0195V120ZM85.125 117.895H81.9102C81.9102 118.163 81.9505 118.397 82.0312 118.598C82.112 118.796 82.2227 118.958 82.3633 119.086C82.4987 119.211 82.6589 119.305 82.8438 119.367C83.0312 119.43 83.237 119.461 83.4609 119.461C83.7578 119.461 84.056 119.402 84.3555 119.285C84.6576 119.165 84.8724 119.048 85 118.934H85.0391V119.734C84.7917 119.839 84.5391 119.926 84.2812 119.996C84.0234 120.066 83.7526 120.102 83.4688 120.102C82.7448 120.102 82.1797 119.906 81.7734 119.516C81.3672 119.122 81.1641 118.565 81.1641 117.844C81.1641 117.13 81.3581 116.564 81.7461 116.145C82.1367 115.725 82.6497 115.516 83.2852 115.516C83.8737 115.516 84.3268 115.688 84.6445 116.031C84.9648 116.375 85.125 116.863 85.125 117.496V117.895ZM84.4102 117.332C84.4076 116.947 84.3099 116.648 84.1172 116.438C83.9271 116.227 83.6367 116.121 83.2461 116.121C82.8529 116.121 82.5391 116.237 82.3047 116.469C82.0729 116.701 81.9414 116.988 81.9102 117.332H84.4102ZM90.25 120H89.3164V118.887H90.25V120ZM93.3242 114.906H92.4961V114.145H93.3242V114.906ZM93.2773 120.105C93.2773 120.616 93.1471 121.001 92.8867 121.262C92.6263 121.522 92.2773 121.652 91.8398 121.652C91.7357 121.652 91.5977 121.642 91.4258 121.621C91.2565 121.6 91.1146 121.574 91 121.543V120.844H91.0391C91.112 120.872 91.2096 120.905 91.332 120.941C91.457 120.978 91.5781 120.996 91.6953 120.996C91.8828 120.996 92.0339 120.97 92.1484 120.918C92.263 120.866 92.349 120.788 92.4062 120.684C92.4635 120.579 92.5 120.453 92.5156 120.305C92.5339 120.159 92.543 119.98 92.543 119.77V116.254H91.6328V115.637H93.2773V120.105ZM98.5625 117.766C98.5625 118.12 98.5117 118.444 98.4102 118.738C98.3086 119.03 98.1654 119.277 97.9805 119.48C97.8086 119.673 97.6055 119.823 97.3711 119.93C97.1393 120.034 96.8932 120.086 96.6328 120.086C96.4062 120.086 96.2005 120.061 96.0156 120.012C95.8333 119.962 95.6471 119.885 95.457 119.781V121.609H94.7227V115.637H95.457V116.094C95.6523 115.93 95.8711 115.793 96.1133 115.684C96.3581 115.572 96.6185 115.516 96.8945 115.516C97.4206 115.516 97.8294 115.715 98.1211 116.113C98.4154 116.509 98.5625 117.06 98.5625 117.766ZM97.8047 117.785C97.8047 117.259 97.7148 116.866 97.5352 116.605C97.3555 116.345 97.0794 116.215 96.707 116.215C96.4961 116.215 96.2839 116.26 96.0703 116.352C95.8568 116.443 95.6523 116.562 95.457 116.711V119.184C95.6654 119.277 95.8438 119.341 95.9922 119.375C96.1432 119.409 96.3138 119.426 96.5039 119.426C96.9128 119.426 97.2318 119.288 97.4609 119.012C97.6901 118.736 97.8047 118.327 97.8047 117.785ZM103.359 117.895H100.145C100.145 118.163 100.185 118.397 100.266 118.598C100.346 118.796 100.457 118.958 100.598 119.086C100.733 119.211 100.893 119.305 101.078 119.367C101.266 119.43 101.471 119.461 101.695 119.461C101.992 119.461 102.29 119.402 102.59 119.285C102.892 119.165 103.107 119.048 103.234 118.934H103.273V119.734C103.026 119.839 102.773 119.926 102.516 119.996C102.258 120.066 101.987 120.102 101.703 120.102C100.979 120.102 100.414 119.906 100.008 119.516C99.6016 119.122 99.3984 118.565 99.3984 117.844C99.3984 117.13 99.5924 116.564 99.9805 116.145C100.371 115.725 100.884 115.516 101.52 115.516C102.108 115.516 102.561 115.688 102.879 116.031C103.199 116.375 103.359 116.863 103.359 117.496V117.895ZM102.645 117.332C102.642 116.947 102.544 116.648 102.352 116.438C102.161 116.227 101.871 116.121 101.48 116.121C101.087 116.121 100.773 116.237 100.539 116.469C100.307 116.701 100.176 116.988 100.145 117.332H102.645ZM108.484 120H107.551V118.887H108.484V120ZM114.039 117.766C114.039 118.12 113.988 118.444 113.887 118.738C113.785 119.03 113.642 119.277 113.457 119.48C113.285 119.673 113.082 119.823 112.848 119.93C112.616 120.034 112.37 120.086 112.109 120.086C111.883 120.086 111.677 120.061 111.492 120.012C111.31 119.962 111.124 119.885 110.934 119.781V121.609H110.199V115.637H110.934V116.094C111.129 115.93 111.348 115.793 111.59 115.684C111.835 115.572 112.095 115.516 112.371 115.516C112.897 115.516 113.306 115.715 113.598 116.113C113.892 116.509 114.039 117.06 114.039 117.766ZM113.281 117.785C113.281 117.259 113.191 116.866 113.012 116.605C112.832 116.345 112.556 116.215 112.184 116.215C111.973 116.215 111.76 116.26 111.547 116.352C111.333 116.443 111.129 116.562 110.934 116.711V119.184C111.142 119.277 111.32 119.341 111.469 119.375C111.62 119.409 111.79 119.426 111.98 119.426C112.389 119.426 112.708 119.288 112.938 119.012C113.167 118.736 113.281 118.327 113.281 117.785ZM118.832 120H118.098V117.516C118.098 117.315 118.086 117.128 118.062 116.953C118.039 116.776 117.996 116.638 117.934 116.539C117.868 116.43 117.775 116.349 117.652 116.297C117.53 116.242 117.371 116.215 117.176 116.215C116.975 116.215 116.766 116.264 116.547 116.363C116.328 116.462 116.118 116.589 115.918 116.742V120H115.184V115.637H115.918V116.121C116.147 115.931 116.384 115.783 116.629 115.676C116.874 115.569 117.125 115.516 117.383 115.516C117.854 115.516 118.214 115.658 118.461 115.941C118.708 116.225 118.832 116.634 118.832 117.168V120ZM123.785 119.504C123.785 120.243 123.617 120.786 123.281 121.133C122.945 121.479 122.428 121.652 121.73 121.652C121.499 121.652 121.272 121.635 121.051 121.602C120.832 121.57 120.616 121.525 120.402 121.465V120.715H120.441C120.561 120.762 120.751 120.819 121.012 120.887C121.272 120.957 121.533 120.992 121.793 120.992C122.043 120.992 122.25 120.962 122.414 120.902C122.578 120.842 122.706 120.759 122.797 120.652C122.888 120.551 122.953 120.428 122.992 120.285C123.031 120.142 123.051 119.982 123.051 119.805V119.406C122.829 119.583 122.617 119.716 122.414 119.805C122.214 119.891 121.957 119.934 121.645 119.934C121.124 119.934 120.71 119.746 120.402 119.371C120.098 118.993 119.945 118.462 119.945 117.777C119.945 117.402 119.997 117.079 120.102 116.809C120.208 116.535 120.353 116.299 120.535 116.102C120.704 115.917 120.91 115.773 121.152 115.672C121.395 115.568 121.635 115.516 121.875 115.516C122.128 115.516 122.339 115.542 122.508 115.594C122.68 115.643 122.861 115.72 123.051 115.824L123.098 115.637H123.785V119.504ZM123.051 118.801V116.422C122.855 116.333 122.673 116.271 122.504 116.234C122.337 116.195 122.171 116.176 122.004 116.176C121.6 116.176 121.283 116.311 121.051 116.582C120.819 116.853 120.703 117.246 120.703 117.762C120.703 118.251 120.789 118.622 120.961 118.875C121.133 119.128 121.418 119.254 121.816 119.254C122.03 119.254 122.243 119.214 122.457 119.133C122.673 119.049 122.871 118.939 123.051 118.801ZM129.242 120H128.309V118.887H129.242V120ZM134.074 118.742C134.074 119.141 133.909 119.467 133.578 119.723C133.25 119.978 132.801 120.105 132.23 120.105C131.908 120.105 131.611 120.068 131.34 119.992C131.072 119.914 130.846 119.829 130.664 119.738V118.914H130.703C130.935 119.089 131.193 119.228 131.477 119.332C131.76 119.434 132.033 119.484 132.293 119.484C132.616 119.484 132.868 119.432 133.051 119.328C133.233 119.224 133.324 119.06 133.324 118.836C133.324 118.664 133.275 118.534 133.176 118.445C133.077 118.357 132.887 118.281 132.605 118.219C132.501 118.195 132.365 118.168 132.195 118.137C132.029 118.105 131.876 118.072 131.738 118.035C131.355 117.934 131.083 117.785 130.922 117.59C130.763 117.392 130.684 117.15 130.684 116.863C130.684 116.684 130.72 116.514 130.793 116.355C130.868 116.197 130.982 116.055 131.133 115.93C131.279 115.807 131.464 115.711 131.688 115.641C131.914 115.568 132.167 115.531 132.445 115.531C132.706 115.531 132.969 115.564 133.234 115.629C133.503 115.691 133.725 115.768 133.902 115.859V116.645H133.863C133.676 116.507 133.448 116.391 133.18 116.297C132.911 116.201 132.648 116.152 132.391 116.152C132.122 116.152 131.896 116.204 131.711 116.309C131.526 116.41 131.434 116.562 131.434 116.766C131.434 116.945 131.49 117.081 131.602 117.172C131.711 117.263 131.888 117.337 132.133 117.395C132.268 117.426 132.419 117.457 132.586 117.488C132.755 117.52 132.896 117.548 133.008 117.574C133.349 117.652 133.612 117.786 133.797 117.977C133.982 118.169 134.074 118.424 134.074 118.742ZM138.902 115.637L137.137 120H136.398L134.645 115.637H135.441L136.793 119.109L138.133 115.637H138.902ZM143.402 119.504C143.402 120.243 143.234 120.786 142.898 121.133C142.562 121.479 142.046 121.652 141.348 121.652C141.116 121.652 140.889 121.635 140.668 121.602C140.449 121.57 140.233 121.525 140.02 121.465V120.715H140.059C140.178 120.762 140.368 120.819 140.629 120.887C140.889 120.957 141.15 120.992 141.41 120.992C141.66 120.992 141.867 120.962 142.031 120.902C142.195 120.842 142.323 120.759 142.414 120.652C142.505 120.551 142.57 120.428 142.609 120.285C142.648 120.142 142.668 119.982 142.668 119.805V119.406C142.447 119.583 142.234 119.716 142.031 119.805C141.831 119.891 141.574 119.934 141.262 119.934C140.741 119.934 140.327 119.746 140.02 119.371C139.715 118.993 139.562 118.462 139.562 117.777C139.562 117.402 139.615 117.079 139.719 116.809C139.826 116.535 139.97 116.299 140.152 116.102C140.322 115.917 140.527 115.773 140.77 115.672C141.012 115.568 141.253 115.516 141.492 115.516C141.745 115.516 141.956 115.542 142.125 115.594C142.297 115.643 142.478 115.72 142.668 115.824L142.715 115.637H143.402V119.504ZM142.668 118.801V116.422C142.473 116.333 142.29 116.271 142.121 116.234C141.954 116.195 141.788 116.176 141.621 116.176C141.217 116.176 140.9 116.311 140.668 116.582C140.436 116.853 140.32 117.246 140.32 117.762C140.32 118.251 140.406 118.622 140.578 118.875C140.75 119.128 141.035 119.254 141.434 119.254C141.647 119.254 141.861 119.214 142.074 119.133C142.29 119.049 142.488 118.939 142.668 118.801Z" fill="black"/>
</g>
</svg>
