<svg width="150" height="150" viewBox="0 0 150 150" fill="none" xmlns="http://www.w3.org/2000/svg">
<g opacity="0.5">
<rect x="0.5" y="0.5" width="149" height="149" rx="19.5" stroke="black" stroke-linecap="round" stroke-linejoin="round" stroke-dasharray="10 10"/>
<path d="M75.1844 57.5965L75.1843 57.5964C74.704 57.1177 74.2312 56.8297 73.7197 56.8297C73.2082 56.8297 72.7357 57.1178 72.2562 57.5965L65.2859 64.5527L65.2859 64.5527L65.2827 64.556C65.0948 64.7505 64.9909 65.011 64.9932 65.2814C64.9956 65.5518 65.104 65.8104 65.2952 66.0016C65.4864 66.1928 65.7451 66.3013 66.0155 66.3036C66.2859 66.306 66.5464 66.202 66.7409 66.0142L66.7409 66.0142L66.7438 66.0113L72.6875 60.0764V80.9062C72.6875 83.9095 73.3564 86.1365 74.8287 87.6088C76.301 89.0811 78.528 89.75 81.5312 89.75H93.25C97.1278 89.75 100.706 87.6621 103.308 84.7501C105.908 81.8393 107.562 78.0713 107.562 74.6562C107.562 70.55 105.885 66.895 103.453 64.2078C101.08 61.5865 97.9755 59.8698 94.9816 59.5641C94.2232 49.2092 86.9657 39.25 73.7188 39.25C61.592 39.25 52.2201 48.2262 51.6393 60.2272C48.3569 61.2979 45.8217 63.5861 44.1019 66.2418C42.3542 68.9405 41.4375 72.0352 41.4375 74.6562C41.4375 82.6892 48.1088 89.75 55.75 89.75H65.9062C66.1798 89.75 66.4421 89.6413 66.6355 89.448C66.8289 89.2546 66.9375 88.9923 66.9375 88.7188C66.9375 88.4452 66.8289 88.1829 66.6355 87.9895C66.4421 87.7962 66.1798 87.6875 65.9062 87.6875H55.75C49.2428 87.6875 43.5 81.6077 43.5 74.6562C43.5 72.3327 44.5232 69.0649 46.5778 66.3799C48.6273 63.7015 51.6848 61.625 55.75 61.625H58.0938C58.3673 61.625 58.6296 61.5164 58.823 61.323C59.0164 61.1296 59.125 60.8673 59.125 60.5938C59.125 60.3202 59.0164 60.0579 58.823 59.8645C58.6296 59.6711 58.3673 59.5625 58.0938 59.5625H55.75C55.0508 59.5625 54.3865 59.6298 53.7429 59.731C54.4855 50.5787 61.493 41.3125 73.7188 41.3125C80.3555 41.3125 85.1673 43.9132 88.3242 47.71C91.4864 51.5133 93 56.5321 93 61.375V63.7188C93 63.9923 93.1087 64.2546 93.302 64.448C93.4954 64.6414 93.7577 64.75 94.0312 64.75C94.3048 64.75 94.5671 64.6414 94.7605 64.448C94.9538 64.2546 95.0625 63.9923 95.0625 63.7188V61.645C99.6268 62.313 105.5 67.2287 105.5 74.6562C105.5 77.5714 104.09 80.8349 101.838 83.3727C99.5865 85.9096 96.5246 87.6875 93.25 87.6875H81.5312C79.0246 87.6875 77.35 87.1973 76.2951 86.1424C75.2402 85.0875 74.75 83.4129 74.75 80.9062V60.0762L80.6918 66.0062C80.6924 66.0069 80.693 66.0075 80.6936 66.0081C80.7883 66.1059 80.9013 66.1839 81.0262 66.2378C81.152 66.292 81.2872 66.3207 81.4242 66.322C81.5611 66.3234 81.6969 66.2975 81.8237 66.2458C81.9505 66.1942 82.0658 66.1178 82.1627 66.0211C82.2597 65.9244 82.3364 65.8094 82.3885 65.6827C82.4405 65.556 82.4668 65.4203 82.4658 65.2834C82.4648 65.1464 82.4365 65.0111 82.3827 64.8852C82.3291 64.7599 82.2511 64.6464 82.1534 64.5514C82.153 64.551 82.1525 64.5505 82.1521 64.5501L75.1844 57.5965Z" fill="#17202C" stroke="black" stroke-width="0.5"/>
<path d="M43.8984 107.664C43.8984 108.086 43.8516 108.454 43.7578 108.77C43.6667 109.082 43.5156 109.342 43.3047 109.551C43.1042 109.749 42.8698 109.893 42.6016 109.984C42.3333 110.076 42.0208 110.121 41.6641 110.121C41.2995 110.121 40.9818 110.073 40.7109 109.977C40.4401 109.88 40.2122 109.738 40.0273 109.551C39.8164 109.337 39.6641 109.079 39.5703 108.777C39.4792 108.475 39.4336 108.104 39.4336 107.664V104.184H40.207V107.703C40.207 108.018 40.2279 108.267 40.2695 108.449C40.3138 108.632 40.3867 108.797 40.4883 108.945C40.6029 109.115 40.7578 109.242 40.9531 109.328C41.151 109.414 41.388 109.457 41.6641 109.457C41.9427 109.457 42.1797 109.415 42.375 109.332C42.5703 109.246 42.7266 109.117 42.8438 108.945C42.9453 108.797 43.0169 108.628 43.0586 108.438C43.1029 108.245 43.125 108.007 43.125 107.723V104.184H43.8984V107.664ZM49.1602 107.766C49.1602 108.12 49.1094 108.444 49.0078 108.738C48.9062 109.03 48.763 109.277 48.5781 109.48C48.4062 109.673 48.2031 109.823 47.9688 109.93C47.737 110.034 47.4909 110.086 47.2305 110.086C47.0039 110.086 46.7982 110.061 46.6133 110.012C46.431 109.962 46.2448 109.885 46.0547 109.781V111.609H45.3203V105.637H46.0547V106.094C46.25 105.93 46.4688 105.793 46.7109 105.684C46.9557 105.572 47.2161 105.516 47.4922 105.516C48.0182 105.516 48.4271 105.715 48.7188 106.113C49.013 106.509 49.1602 107.06 49.1602 107.766ZM48.4023 107.785C48.4023 107.259 48.3125 106.866 48.1328 106.605C47.9531 106.345 47.6771 106.215 47.3047 106.215C47.0938 106.215 46.8815 106.26 46.668 106.352C46.4544 106.443 46.25 106.562 46.0547 106.711V109.184C46.263 109.277 46.4414 109.341 46.5898 109.375C46.7409 109.409 46.9115 109.426 47.1016 109.426C47.5104 109.426 47.8294 109.288 48.0586 109.012C48.2878 108.736 48.4023 108.327 48.4023 107.785ZM51.0469 110H50.3125V103.922H51.0469V110ZM56.2188 107.82C56.2188 108.531 56.0365 109.092 55.6719 109.504C55.3073 109.915 54.819 110.121 54.207 110.121C53.5898 110.121 53.099 109.915 52.7344 109.504C52.3724 109.092 52.1914 108.531 52.1914 107.82C52.1914 107.109 52.3724 106.548 52.7344 106.137C53.099 105.723 53.5898 105.516 54.207 105.516C54.819 105.516 55.3073 105.723 55.6719 106.137C56.0365 106.548 56.2188 107.109 56.2188 107.82ZM55.4609 107.82C55.4609 107.255 55.3503 106.836 55.1289 106.562C54.9076 106.286 54.6003 106.148 54.207 106.148C53.8086 106.148 53.4987 106.286 53.2773 106.562C53.0586 106.836 52.9492 107.255 52.9492 107.82C52.9492 108.367 53.0599 108.783 53.2812 109.066C53.5026 109.348 53.8112 109.488 54.207 109.488C54.5977 109.488 54.9036 109.349 55.125 109.07C55.349 108.789 55.4609 108.372 55.4609 107.82ZM60.75 110H60.0195V109.535C59.9544 109.579 59.8659 109.642 59.7539 109.723C59.6445 109.801 59.5378 109.863 59.4336 109.91C59.3112 109.97 59.1706 110.02 59.0117 110.059C58.8529 110.1 58.6667 110.121 58.4531 110.121C58.0599 110.121 57.7266 109.991 57.4531 109.73C57.1797 109.47 57.043 109.138 57.043 108.734C57.043 108.404 57.1133 108.137 57.2539 107.934C57.3971 107.728 57.6003 107.566 57.8633 107.449C58.1289 107.332 58.4479 107.253 58.8203 107.211C59.1927 107.169 59.5924 107.138 60.0195 107.117V107.004C60.0195 106.837 59.9896 106.699 59.9297 106.59C59.8724 106.48 59.7891 106.395 59.6797 106.332C59.5755 106.272 59.4505 106.232 59.3047 106.211C59.1589 106.19 59.0065 106.18 58.8477 106.18C58.6549 106.18 58.4401 106.206 58.2031 106.258C57.9661 106.307 57.7214 106.38 57.4688 106.477H57.4297V105.73C57.5729 105.691 57.7799 105.648 58.0508 105.602C58.3216 105.555 58.5885 105.531 58.8516 105.531C59.1589 105.531 59.4258 105.557 59.6523 105.609C59.8815 105.659 60.0794 105.745 60.2461 105.867C60.4102 105.987 60.5352 106.142 60.6211 106.332C60.707 106.522 60.75 106.758 60.75 107.039V110ZM60.0195 108.926V107.711C59.7956 107.724 59.5312 107.743 59.2266 107.77C58.9245 107.796 58.6849 107.833 58.5078 107.883C58.2969 107.943 58.1263 108.036 57.9961 108.164C57.8659 108.289 57.8008 108.462 57.8008 108.684C57.8008 108.934 57.8763 109.122 58.0273 109.25C58.1784 109.375 58.4089 109.438 58.7188 109.438C58.9766 109.438 59.2122 109.388 59.4258 109.289C59.6393 109.188 59.8372 109.066 60.0195 108.926ZM65.7031 110H64.9688V109.543C64.7578 109.725 64.5378 109.867 64.3086 109.969C64.0794 110.07 63.8307 110.121 63.5625 110.121C63.0417 110.121 62.6276 109.921 62.3203 109.52C62.0156 109.118 61.8633 108.562 61.8633 107.852C61.8633 107.482 61.9154 107.152 62.0195 106.863C62.1263 106.574 62.2695 106.328 62.4492 106.125C62.6263 105.927 62.832 105.776 63.0664 105.672C63.3034 105.568 63.5482 105.516 63.8008 105.516C64.0299 105.516 64.2331 105.54 64.4102 105.59C64.5872 105.637 64.7734 105.711 64.9688 105.812V103.922H65.7031V110ZM64.9688 108.926V106.422C64.7708 106.333 64.5938 106.272 64.4375 106.238C64.2812 106.204 64.1107 106.188 63.9258 106.188C63.5143 106.188 63.194 106.331 62.9648 106.617C62.7357 106.904 62.6211 107.31 62.6211 107.836C62.6211 108.354 62.7096 108.749 62.8867 109.02C63.0638 109.288 63.3477 109.422 63.7383 109.422C63.9466 109.422 64.1576 109.376 64.3711 109.285C64.5846 109.191 64.7839 109.072 64.9688 108.926ZM74.9336 107.098C74.9336 107.626 74.8177 108.105 74.5859 108.535C74.3568 108.965 74.0508 109.298 73.668 109.535C73.4023 109.699 73.1055 109.818 72.7773 109.891C72.4518 109.964 72.0221 110 71.4883 110H70.0195V104.184H71.4727C72.0404 104.184 72.4909 104.225 72.8242 104.309C73.1602 104.389 73.444 104.501 73.6758 104.645C74.0716 104.892 74.3802 105.221 74.6016 105.633C74.8229 106.044 74.9336 106.533 74.9336 107.098ZM74.125 107.086C74.125 106.63 74.0456 106.246 73.8867 105.934C73.7279 105.621 73.4909 105.375 73.1758 105.195C72.9466 105.065 72.7031 104.975 72.4453 104.926C72.1875 104.874 71.8789 104.848 71.5195 104.848H70.793V109.336H71.5195C71.8919 109.336 72.2161 109.309 72.4922 109.254C72.7708 109.199 73.026 109.098 73.2578 108.949C73.5469 108.764 73.763 108.521 73.9062 108.219C74.0521 107.917 74.125 107.539 74.125 107.086ZM79.8438 107.82C79.8438 108.531 79.6615 109.092 79.2969 109.504C78.9323 109.915 78.444 110.121 77.832 110.121C77.2148 110.121 76.724 109.915 76.3594 109.504C75.9974 109.092 75.8164 108.531 75.8164 107.82C75.8164 107.109 75.9974 106.548 76.3594 106.137C76.724 105.723 77.2148 105.516 77.832 105.516C78.444 105.516 78.9323 105.723 79.2969 106.137C79.6615 106.548 79.8438 107.109 79.8438 107.82ZM79.0859 107.82C79.0859 107.255 78.9753 106.836 78.7539 106.562C78.5326 106.286 78.2253 106.148 77.832 106.148C77.4336 106.148 77.1237 106.286 76.9023 106.562C76.6836 106.836 76.5742 107.255 76.5742 107.82C76.5742 108.367 76.6849 108.783 76.9062 109.066C77.1276 109.348 77.4362 109.488 77.832 109.488C78.2227 109.488 78.5286 109.349 78.75 109.07C78.974 108.789 79.0859 108.372 79.0859 107.82ZM84.2109 109.727C83.9661 109.844 83.7331 109.935 83.5117 110C83.293 110.065 83.0599 110.098 82.8125 110.098C82.4974 110.098 82.2083 110.052 81.9453 109.961C81.6823 109.867 81.457 109.727 81.2695 109.539C81.0794 109.352 80.9323 109.115 80.8281 108.828C80.724 108.542 80.6719 108.207 80.6719 107.824C80.6719 107.111 80.8672 106.551 81.2578 106.145C81.651 105.738 82.1693 105.535 82.8125 105.535C83.0625 105.535 83.3073 105.57 83.5469 105.641C83.7891 105.711 84.0104 105.797 84.2109 105.898V106.715H84.1719C83.9479 106.54 83.7161 106.406 83.4766 106.312C83.2396 106.219 83.0078 106.172 82.7812 106.172C82.3646 106.172 82.0352 106.312 81.793 106.594C81.5534 106.872 81.4336 107.283 81.4336 107.824C81.4336 108.35 81.5508 108.755 81.7852 109.039C82.0221 109.32 82.3542 109.461 82.7812 109.461C82.9297 109.461 83.0807 109.441 83.2344 109.402C83.388 109.363 83.526 109.312 83.6484 109.25C83.7552 109.195 83.8555 109.138 83.9492 109.078C84.043 109.016 84.1172 108.962 84.1719 108.918H84.2109V109.727ZM88.7734 110H88.0391V109.516C87.7917 109.711 87.5547 109.861 87.3281 109.965C87.1016 110.069 86.8516 110.121 86.5781 110.121C86.1198 110.121 85.763 109.982 85.5078 109.703C85.2526 109.422 85.125 109.01 85.125 108.469V105.637H85.8594V108.121C85.8594 108.342 85.8698 108.533 85.8906 108.691C85.9115 108.848 85.9557 108.982 86.0234 109.094C86.0938 109.208 86.1849 109.292 86.2969 109.344C86.4089 109.396 86.5716 109.422 86.7852 109.422C86.9753 109.422 87.1823 109.372 87.4062 109.273C87.6328 109.174 87.8438 109.048 88.0391 108.895V105.637H88.7734V110ZM96.5859 110H95.8516V107.516C95.8516 107.328 95.8424 107.147 95.8242 106.973C95.8086 106.798 95.7734 106.659 95.7188 106.555C95.6589 106.443 95.5729 106.358 95.4609 106.301C95.349 106.243 95.1875 106.215 94.9766 106.215C94.7708 106.215 94.5651 106.267 94.3594 106.371C94.1536 106.473 93.9479 106.603 93.7422 106.762C93.75 106.822 93.7565 106.892 93.7617 106.973C93.7669 107.051 93.7695 107.129 93.7695 107.207V110H93.0352V107.516C93.0352 107.323 93.026 107.141 93.0078 106.969C92.9922 106.794 92.957 106.655 92.9023 106.551C92.8424 106.439 92.7565 106.355 92.6445 106.301C92.5326 106.243 92.3711 106.215 92.1602 106.215C91.9596 106.215 91.7578 106.264 91.5547 106.363C91.3542 106.462 91.1536 106.589 90.9531 106.742V110H90.2188V105.637H90.9531V106.121C91.1823 105.931 91.4102 105.783 91.6367 105.676C91.8659 105.569 92.1094 105.516 92.3672 105.516C92.6641 105.516 92.9154 105.578 93.1211 105.703C93.3294 105.828 93.4844 106.001 93.5859 106.223C93.8828 105.973 94.1536 105.793 94.3984 105.684C94.6432 105.572 94.9049 105.516 95.1836 105.516C95.6628 105.516 96.0156 105.661 96.2422 105.953C96.4714 106.242 96.5859 106.647 96.5859 107.168V110ZM101.652 107.895H98.4375C98.4375 108.163 98.4779 108.397 98.5586 108.598C98.6393 108.796 98.75 108.958 98.8906 109.086C99.026 109.211 99.1862 109.305 99.3711 109.367C99.5586 109.43 99.7643 109.461 99.9883 109.461C100.285 109.461 100.583 109.402 100.883 109.285C101.185 109.165 101.4 109.048 101.527 108.934H101.566V109.734C101.319 109.839 101.066 109.926 100.809 109.996C100.551 110.066 100.28 110.102 99.9961 110.102C99.2721 110.102 98.707 109.906 98.3008 109.516C97.8945 109.122 97.6914 108.565 97.6914 107.844C97.6914 107.13 97.8854 106.564 98.2734 106.145C98.6641 105.725 99.1771 105.516 99.8125 105.516C100.401 105.516 100.854 105.688 101.172 106.031C101.492 106.375 101.652 106.863 101.652 107.496V107.895ZM100.938 107.332C100.935 106.947 100.837 106.648 100.645 106.438C100.454 106.227 100.164 106.121 99.7734 106.121C99.3802 106.121 99.0664 106.237 98.832 106.469C98.6003 106.701 98.4688 106.988 98.4375 107.332H100.938ZM106.414 110H105.68V107.516C105.68 107.315 105.668 107.128 105.645 106.953C105.621 106.776 105.578 106.638 105.516 106.539C105.451 106.43 105.357 106.349 105.234 106.297C105.112 106.242 104.953 106.215 104.758 106.215C104.557 106.215 104.348 106.264 104.129 106.363C103.91 106.462 103.701 106.589 103.5 106.742V110H102.766V105.637H103.5V106.121C103.729 105.931 103.966 105.783 104.211 105.676C104.456 105.569 104.707 105.516 104.965 105.516C105.436 105.516 105.796 105.658 106.043 105.941C106.29 106.225 106.414 106.634 106.414 107.168V110ZM110.094 109.961C109.956 109.997 109.805 110.027 109.641 110.051C109.479 110.074 109.335 110.086 109.207 110.086C108.762 110.086 108.423 109.966 108.191 109.727C107.96 109.487 107.844 109.103 107.844 108.574V106.254H107.348V105.637H107.844V104.383H108.578V105.637H110.094V106.254H108.578V108.242C108.578 108.471 108.583 108.651 108.594 108.781C108.604 108.909 108.641 109.029 108.703 109.141C108.76 109.245 108.839 109.322 108.938 109.371C109.039 109.418 109.193 109.441 109.398 109.441C109.518 109.441 109.643 109.424 109.773 109.391C109.904 109.354 109.997 109.324 110.055 109.301H110.094V109.961Z" fill="black"/>
<path d="M10.4609 120H9.6875V114.988L8.07031 118.398H7.60938L6.00391 114.988V120H5.28125V114.184H6.33594L7.88672 117.422L9.38672 114.184H10.4609V120ZM12.7539 114.906H11.9258V114.145H12.7539V114.906ZM12.707 120H11.9727V115.637H12.707V120ZM17.8086 120H17.0742V117.516C17.0742 117.315 17.0625 117.128 17.0391 116.953C17.0156 116.776 16.9727 116.638 16.9102 116.539C16.8451 116.43 16.7513 116.349 16.6289 116.297C16.5065 116.242 16.3477 116.215 16.1523 116.215C15.9518 116.215 15.7422 116.264 15.5234 116.363C15.3047 116.462 15.0951 116.589 14.8945 116.742V120H14.1602V115.637H14.8945V116.121C15.1237 115.931 15.3607 115.783 15.6055 115.676C15.8503 115.569 16.1016 115.516 16.3594 115.516C16.8307 115.516 17.1901 115.658 17.4375 115.941C17.6849 116.225 17.8086 116.634 17.8086 117.168V120ZM25.875 117.766C25.875 118.12 25.8242 118.444 25.7227 118.738C25.6211 119.03 25.4779 119.277 25.293 119.48C25.1211 119.673 24.918 119.823 24.6836 119.93C24.4518 120.034 24.2057 120.086 23.9453 120.086C23.7188 120.086 23.513 120.061 23.3281 120.012C23.1458 119.962 22.9596 119.885 22.7695 119.781V121.609H22.0352V115.637H22.7695V116.094C22.9648 115.93 23.1836 115.793 23.4258 115.684C23.6706 115.572 23.931 115.516 24.207 115.516C24.7331 115.516 25.1419 115.715 25.4336 116.113C25.7279 116.509 25.875 117.06 25.875 117.766ZM25.1172 117.785C25.1172 117.259 25.0273 116.866 24.8477 116.605C24.668 116.345 24.3919 116.215 24.0195 116.215C23.8086 116.215 23.5964 116.26 23.3828 116.352C23.1693 116.443 22.9648 116.562 22.7695 116.711V119.184C22.9779 119.277 23.1562 119.341 23.3047 119.375C23.4557 119.409 23.6263 119.426 23.8164 119.426C24.2253 119.426 24.5443 119.288 24.7734 119.012C25.0026 118.736 25.1172 118.327 25.1172 117.785ZM30.7969 120H29.8711L28.6328 118.324L27.3867 120H26.5312L28.2344 117.824L26.5469 115.637H27.4727L28.7031 117.285L29.9375 115.637H30.7969L29.082 117.785L30.7969 120ZM38.0781 120H34.9297V119.406H36.1406V115.508H34.9297V114.977C35.0938 114.977 35.2695 114.964 35.457 114.938C35.6445 114.909 35.7865 114.868 35.8828 114.816C36.0026 114.751 36.0964 114.669 36.1641 114.57C36.2344 114.469 36.2747 114.333 36.2852 114.164H36.8906V119.406H38.0781V120ZM43.4883 117.09C43.4883 118.134 43.3242 118.901 42.9961 119.391C42.6706 119.878 42.1641 120.121 41.4766 120.121C40.7786 120.121 40.2682 119.874 39.9453 119.379C39.625 118.884 39.4648 118.124 39.4648 117.098C39.4648 116.064 39.6276 115.301 39.9531 114.809C40.2786 114.314 40.7865 114.066 41.4766 114.066C42.1745 114.066 42.6836 114.318 43.0039 114.82C43.3268 115.32 43.4883 116.077 43.4883 117.09ZM42.4609 118.863C42.5521 118.652 42.6133 118.405 42.6445 118.121C42.6784 117.835 42.6953 117.491 42.6953 117.09C42.6953 116.694 42.6784 116.35 42.6445 116.059C42.6133 115.767 42.5508 115.52 42.457 115.316C42.3659 115.116 42.2409 114.965 42.082 114.863C41.9258 114.762 41.724 114.711 41.4766 114.711C41.2318 114.711 41.0286 114.762 40.8672 114.863C40.7083 114.965 40.582 115.118 40.4883 115.324C40.3997 115.517 40.3385 115.768 40.3047 116.078C40.2734 116.388 40.2578 116.728 40.2578 117.098C40.2578 117.504 40.2721 117.844 40.3008 118.117C40.3294 118.391 40.3906 118.635 40.4844 118.852C40.5703 119.055 40.6914 119.21 40.8477 119.316C41.0065 119.423 41.2161 119.477 41.4766 119.477C41.7214 119.477 41.9245 119.426 42.0859 119.324C42.2474 119.223 42.3724 119.069 42.4609 118.863ZM48.5742 117.09C48.5742 118.134 48.4102 118.901 48.082 119.391C47.7565 119.878 47.25 120.121 46.5625 120.121C45.8646 120.121 45.3542 119.874 45.0312 119.379C44.7109 118.884 44.5508 118.124 44.5508 117.098C44.5508 116.064 44.7135 115.301 45.0391 114.809C45.3646 114.314 45.8724 114.066 46.5625 114.066C47.2604 114.066 47.7695 114.318 48.0898 114.82C48.4128 115.32 48.5742 116.077 48.5742 117.09ZM47.5469 118.863C47.638 118.652 47.6992 118.405 47.7305 118.121C47.7643 117.835 47.7812 117.491 47.7812 117.09C47.7812 116.694 47.7643 116.35 47.7305 116.059C47.6992 115.767 47.6367 115.52 47.543 115.316C47.4518 115.116 47.3268 114.965 47.168 114.863C47.0117 114.762 46.8099 114.711 46.5625 114.711C46.3177 114.711 46.1146 114.762 45.9531 114.863C45.7943 114.965 45.668 115.118 45.5742 115.324C45.4857 115.517 45.4245 115.768 45.3906 116.078C45.3594 116.388 45.3438 116.728 45.3438 117.098C45.3438 117.504 45.3581 117.844 45.3867 118.117C45.4154 118.391 45.4766 118.635 45.5703 118.852C45.6562 119.055 45.7773 119.21 45.9336 119.316C46.0924 119.423 46.3021 119.477 46.5625 119.477C46.8073 119.477 47.0104 119.426 47.1719 119.324C47.3333 119.223 47.4583 119.069 47.5469 118.863ZM53.543 116.535L53.293 116.965L51.8789 116.133L51.9023 117.539H51.3984L51.418 116.133L50.0078 116.969L49.7539 116.539L51.2422 115.73L49.7539 114.922L50.0078 114.492L51.4219 115.324L51.3984 113.922H51.9023L51.875 115.324L53.293 114.496L53.543 114.926L52.0586 115.727L53.543 116.535ZM58.4219 120H55.2734V119.406H56.4844V115.508H55.2734V114.977C55.4375 114.977 55.6133 114.964 55.8008 114.938C55.9883 114.909 56.1302 114.868 56.2266 114.816C56.3464 114.751 56.4401 114.669 56.5078 114.57C56.5781 114.469 56.6185 114.333 56.6289 114.164H57.2344V119.406H58.4219V120ZM63.832 117.09C63.832 118.134 63.668 118.901 63.3398 119.391C63.0143 119.878 62.5078 120.121 61.8203 120.121C61.1224 120.121 60.612 119.874 60.2891 119.379C59.9688 118.884 59.8086 118.124 59.8086 117.098C59.8086 116.064 59.9714 115.301 60.2969 114.809C60.6224 114.314 61.1302 114.066 61.8203 114.066C62.5182 114.066 63.0273 114.318 63.3477 114.82C63.6706 115.32 63.832 116.077 63.832 117.09ZM62.8047 118.863C62.8958 118.652 62.957 118.405 62.9883 118.121C63.0221 117.835 63.0391 117.491 63.0391 117.09C63.0391 116.694 63.0221 116.35 62.9883 116.059C62.957 115.767 62.8945 115.52 62.8008 115.316C62.7096 115.116 62.5846 114.965 62.4258 114.863C62.2695 114.762 62.0677 114.711 61.8203 114.711C61.5755 114.711 61.3724 114.762 61.2109 114.863C61.0521 114.965 60.9258 115.118 60.832 115.324C60.7435 115.517 60.6823 115.768 60.6484 116.078C60.6172 116.388 60.6016 116.728 60.6016 117.098C60.6016 117.504 60.6159 117.844 60.6445 118.117C60.6732 118.391 60.7344 118.635 60.8281 118.852C60.9141 119.055 61.0352 119.21 61.1914 119.316C61.3503 119.423 61.5599 119.477 61.8203 119.477C62.0651 119.477 62.2682 119.426 62.4297 119.324C62.5911 119.223 62.7161 119.069 62.8047 118.863ZM68.918 117.09C68.918 118.134 68.7539 118.901 68.4258 119.391C68.1003 119.878 67.5938 120.121 66.9062 120.121C66.2083 120.121 65.6979 119.874 65.375 119.379C65.0547 118.884 64.8945 118.124 64.8945 117.098C64.8945 116.064 65.0573 115.301 65.3828 114.809C65.7083 114.314 66.2161 114.066 66.9062 114.066C67.6042 114.066 68.1133 114.318 68.4336 114.82C68.7565 115.32 68.918 116.077 68.918 117.09ZM67.8906 118.863C67.9818 118.652 68.043 118.405 68.0742 118.121C68.1081 117.835 68.125 117.491 68.125 117.09C68.125 116.694 68.1081 116.35 68.0742 116.059C68.043 115.767 67.9805 115.52 67.8867 115.316C67.7956 115.116 67.6706 114.965 67.5117 114.863C67.3555 114.762 67.1536 114.711 66.9062 114.711C66.6615 114.711 66.4583 114.762 66.2969 114.863C66.138 114.965 66.0117 115.118 65.918 115.324C65.8294 115.517 65.7682 115.768 65.7344 116.078C65.7031 116.388 65.6875 116.728 65.6875 117.098C65.6875 117.504 65.7018 117.844 65.7305 118.117C65.7591 118.391 65.8203 118.635 65.9141 118.852C66 119.055 66.1211 119.21 66.2773 119.316C66.4362 119.423 66.6458 119.477 66.9062 119.477C67.151 119.477 67.3542 119.426 67.5156 119.324C67.6771 119.223 67.8021 119.069 67.8906 118.863ZM76.7539 114.871H73.8125V116.512H76.3398V117.199H73.8125V120H73.0391V114.184H76.7539V114.871ZM78.3711 114.906H77.543V114.145H78.3711V114.906ZM78.3242 120H77.5898V115.637H78.3242V120ZM80.5195 120H79.7852V113.922H80.5195V120ZM85.625 117.895H82.4102C82.4102 118.163 82.4505 118.397 82.5312 118.598C82.612 118.796 82.7227 118.958 82.8633 119.086C82.9987 119.211 83.1589 119.305 83.3438 119.367C83.5312 119.43 83.737 119.461 83.9609 119.461C84.2578 119.461 84.556 119.402 84.8555 119.285C85.1576 119.165 85.3724 119.048 85.5 118.934H85.5391V119.734C85.2917 119.839 85.0391 119.926 84.7812 119.996C84.5234 120.066 84.2526 120.102 83.9688 120.102C83.2448 120.102 82.6797 119.906 82.2734 119.516C81.8672 119.122 81.6641 118.565 81.6641 117.844C81.6641 117.13 81.8581 116.564 82.2461 116.145C82.6367 115.725 83.1497 115.516 83.7852 115.516C84.3737 115.516 84.8268 115.688 85.1445 116.031C85.4648 116.375 85.625 116.863 85.625 117.496V117.895ZM84.9102 117.332C84.9076 116.947 84.8099 116.648 84.6172 116.438C84.4271 116.227 84.1367 116.121 83.7461 116.121C83.3529 116.121 83.0391 116.237 82.8047 116.469C82.5729 116.701 82.4414 116.988 82.4102 117.332H84.9102ZM90.75 120H89.8164V118.887H90.75V120ZM93.8242 114.906H92.9961V114.145H93.8242V114.906ZM93.7773 120.105C93.7773 120.616 93.6471 121.001 93.3867 121.262C93.1263 121.522 92.7773 121.652 92.3398 121.652C92.2357 121.652 92.0977 121.642 91.9258 121.621C91.7565 121.6 91.6146 121.574 91.5 121.543V120.844H91.5391C91.612 120.872 91.7096 120.905 91.832 120.941C91.957 120.978 92.0781 120.996 92.1953 120.996C92.3828 120.996 92.5339 120.97 92.6484 120.918C92.763 120.866 92.849 120.788 92.9062 120.684C92.9635 120.579 93 120.453 93.0156 120.305C93.0339 120.159 93.043 119.98 93.043 119.77V116.254H92.1328V115.637H93.7773V120.105ZM99.0625 117.766C99.0625 118.12 99.0117 118.444 98.9102 118.738C98.8086 119.03 98.6654 119.277 98.4805 119.48C98.3086 119.673 98.1055 119.823 97.8711 119.93C97.6393 120.034 97.3932 120.086 97.1328 120.086C96.9062 120.086 96.7005 120.061 96.5156 120.012C96.3333 119.962 96.1471 119.885 95.957 119.781V121.609H95.2227V115.637H95.957V116.094C96.1523 115.93 96.3711 115.793 96.6133 115.684C96.8581 115.572 97.1185 115.516 97.3945 115.516C97.9206 115.516 98.3294 115.715 98.6211 116.113C98.9154 116.509 99.0625 117.06 99.0625 117.766ZM98.3047 117.785C98.3047 117.259 98.2148 116.866 98.0352 116.605C97.8555 116.345 97.5794 116.215 97.207 116.215C96.9961 116.215 96.7839 116.26 96.5703 116.352C96.3568 116.443 96.1523 116.562 95.957 116.711V119.184C96.1654 119.277 96.3438 119.341 96.4922 119.375C96.6432 119.409 96.8138 119.426 97.0039 119.426C97.4128 119.426 97.7318 119.288 97.9609 119.012C98.1901 118.736 98.3047 118.327 98.3047 117.785ZM103.859 117.895H100.645C100.645 118.163 100.685 118.397 100.766 118.598C100.846 118.796 100.957 118.958 101.098 119.086C101.233 119.211 101.393 119.305 101.578 119.367C101.766 119.43 101.971 119.461 102.195 119.461C102.492 119.461 102.79 119.402 103.09 119.285C103.392 119.165 103.607 119.048 103.734 118.934H103.773V119.734C103.526 119.839 103.273 119.926 103.016 119.996C102.758 120.066 102.487 120.102 102.203 120.102C101.479 120.102 100.914 119.906 100.508 119.516C100.102 119.122 99.8984 118.565 99.8984 117.844C99.8984 117.13 100.092 116.564 100.48 116.145C100.871 115.725 101.384 115.516 102.02 115.516C102.608 115.516 103.061 115.688 103.379 116.031C103.699 116.375 103.859 116.863 103.859 117.496V117.895ZM103.145 117.332C103.142 116.947 103.044 116.648 102.852 116.438C102.661 116.227 102.371 116.121 101.98 116.121C101.587 116.121 101.273 116.237 101.039 116.469C100.807 116.701 100.676 116.988 100.645 117.332H103.145ZM108.984 120H108.051V118.887H108.984V120ZM114.539 117.766C114.539 118.12 114.488 118.444 114.387 118.738C114.285 119.03 114.142 119.277 113.957 119.48C113.785 119.673 113.582 119.823 113.348 119.93C113.116 120.034 112.87 120.086 112.609 120.086C112.383 120.086 112.177 120.061 111.992 120.012C111.81 119.962 111.624 119.885 111.434 119.781V121.609H110.699V115.637H111.434V116.094C111.629 115.93 111.848 115.793 112.09 115.684C112.335 115.572 112.595 115.516 112.871 115.516C113.397 115.516 113.806 115.715 114.098 116.113C114.392 116.509 114.539 117.06 114.539 117.766ZM113.781 117.785C113.781 117.259 113.691 116.866 113.512 116.605C113.332 116.345 113.056 116.215 112.684 116.215C112.473 116.215 112.26 116.26 112.047 116.352C111.833 116.443 111.629 116.562 111.434 116.711V119.184C111.642 119.277 111.82 119.341 111.969 119.375C112.12 119.409 112.29 119.426 112.48 119.426C112.889 119.426 113.208 119.288 113.438 119.012C113.667 118.736 113.781 118.327 113.781 117.785ZM119.332 120H118.598V117.516C118.598 117.315 118.586 117.128 118.562 116.953C118.539 116.776 118.496 116.638 118.434 116.539C118.368 116.43 118.275 116.349 118.152 116.297C118.03 116.242 117.871 116.215 117.676 116.215C117.475 116.215 117.266 116.264 117.047 116.363C116.828 116.462 116.618 116.589 116.418 116.742V120H115.684V115.637H116.418V116.121C116.647 115.931 116.884 115.783 117.129 115.676C117.374 115.569 117.625 115.516 117.883 115.516C118.354 115.516 118.714 115.658 118.961 115.941C119.208 116.225 119.332 116.634 119.332 117.168V120ZM124.285 119.504C124.285 120.243 124.117 120.786 123.781 121.133C123.445 121.479 122.928 121.652 122.23 121.652C121.999 121.652 121.772 121.635 121.551 121.602C121.332 121.57 121.116 121.525 120.902 121.465V120.715H120.941C121.061 120.762 121.251 120.819 121.512 120.887C121.772 120.957 122.033 120.992 122.293 120.992C122.543 120.992 122.75 120.962 122.914 120.902C123.078 120.842 123.206 120.759 123.297 120.652C123.388 120.551 123.453 120.428 123.492 120.285C123.531 120.142 123.551 119.982 123.551 119.805V119.406C123.329 119.583 123.117 119.716 122.914 119.805C122.714 119.891 122.457 119.934 122.145 119.934C121.624 119.934 121.21 119.746 120.902 119.371C120.598 118.993 120.445 118.462 120.445 117.777C120.445 117.402 120.497 117.079 120.602 116.809C120.708 116.535 120.853 116.299 121.035 116.102C121.204 115.917 121.41 115.773 121.652 115.672C121.895 115.568 122.135 115.516 122.375 115.516C122.628 115.516 122.839 115.542 123.008 115.594C123.18 115.643 123.361 115.72 123.551 115.824L123.598 115.637H124.285V119.504ZM123.551 118.801V116.422C123.355 116.333 123.173 116.271 123.004 116.234C122.837 116.195 122.671 116.176 122.504 116.176C122.1 116.176 121.783 116.311 121.551 116.582C121.319 116.853 121.203 117.246 121.203 117.762C121.203 118.251 121.289 118.622 121.461 118.875C121.633 119.128 121.918 119.254 122.316 119.254C122.53 119.254 122.743 119.214 122.957 119.133C123.173 119.049 123.371 118.939 123.551 118.801ZM129.742 120H128.809V118.887H129.742V120ZM135.297 117.766C135.297 118.12 135.246 118.444 135.145 118.738C135.043 119.03 134.9 119.277 134.715 119.48C134.543 119.673 134.34 119.823 134.105 119.93C133.874 120.034 133.628 120.086 133.367 120.086C133.141 120.086 132.935 120.061 132.75 120.012C132.568 119.962 132.382 119.885 132.191 119.781V121.609H131.457V115.637H132.191V116.094C132.387 115.93 132.605 115.793 132.848 115.684C133.092 115.572 133.353 115.516 133.629 115.516C134.155 115.516 134.564 115.715 134.855 116.113C135.15 116.509 135.297 117.06 135.297 117.766ZM134.539 117.785C134.539 117.259 134.449 116.866 134.27 116.605C134.09 116.345 133.814 116.215 133.441 116.215C133.23 116.215 133.018 116.26 132.805 116.352C132.591 116.443 132.387 116.562 132.191 116.711V119.184C132.4 119.277 132.578 119.341 132.727 119.375C132.878 119.409 133.048 119.426 133.238 119.426C133.647 119.426 133.966 119.288 134.195 119.012C134.424 118.736 134.539 118.327 134.539 117.785ZM139.98 120H139.246V119.543C139.035 119.725 138.815 119.867 138.586 119.969C138.357 120.07 138.108 120.121 137.84 120.121C137.319 120.121 136.905 119.921 136.598 119.52C136.293 119.118 136.141 118.562 136.141 117.852C136.141 117.482 136.193 117.152 136.297 116.863C136.404 116.574 136.547 116.328 136.727 116.125C136.904 115.927 137.109 115.776 137.344 115.672C137.581 115.568 137.826 115.516 138.078 115.516C138.307 115.516 138.51 115.54 138.688 115.59C138.865 115.637 139.051 115.711 139.246 115.812V113.922H139.98V120ZM139.246 118.926V116.422C139.048 116.333 138.871 116.272 138.715 116.238C138.559 116.204 138.388 116.188 138.203 116.188C137.792 116.188 137.471 116.331 137.242 116.617C137.013 116.904 136.898 117.31 136.898 117.836C136.898 118.354 136.987 118.749 137.164 119.02C137.341 119.288 137.625 119.422 138.016 119.422C138.224 119.422 138.435 119.376 138.648 119.285C138.862 119.191 139.061 119.072 139.246 118.926ZM143.773 114.633H143.734C143.654 114.609 143.548 114.586 143.418 114.562C143.288 114.536 143.173 114.523 143.074 114.523C142.759 114.523 142.53 114.594 142.387 114.734C142.246 114.872 142.176 115.124 142.176 115.488V115.637H143.5V116.254H142.199V120H141.465V116.254H140.969V115.637H141.465V115.492C141.465 114.974 141.594 114.577 141.852 114.301C142.109 114.022 142.482 113.883 142.969 113.883C143.133 113.883 143.28 113.891 143.41 113.906C143.543 113.922 143.664 113.94 143.773 113.961V114.633Z" fill="black"/>
</g>
</svg>
