<svg width="17" height="17" viewBox="0 0 17 17" fill="none" xmlns="http://www.w3.org/2000/svg">
<path d="M16.1167 7.04682L15.7455 7.96516C15.6283 8.27779 15.6283 8.60996 15.7455 8.92259L16.1167 9.84093C16.3317 10.388 16.1558 11.0133 15.6673 11.365L14.8467 11.9316C14.5731 12.127 14.3973 12.4201 14.3191 12.7327L14.1433 13.7097C14.026 14.2959 13.5376 14.7257 12.9514 14.7453L11.9549 14.7844C11.6227 14.8039 11.3101 14.9407 11.0756 15.1752L10.3917 15.8981C9.98141 16.328 9.33662 16.4257 8.8286 16.1326L7.96887 15.6246C7.67578 15.4487 7.34361 15.4096 7.01144 15.4878L6.03448 15.7223C5.46784 15.859 4.86212 15.5855 4.58857 15.0579L4.13917 14.1591C3.98286 13.866 3.72885 13.6315 3.41622 13.5339L2.47833 13.2212C1.9117 13.0258 1.55999 12.4787 1.61861 11.8926L1.7163 10.8961C1.75538 10.5639 1.65769 10.2317 1.44275 9.97771L0.817497 9.19614C0.446251 8.72719 0.446251 8.0824 0.817497 7.61346L1.44275 6.83189C1.65769 6.57788 1.75538 6.24571 1.7163 5.91354L1.61861 4.91704C1.55999 4.33086 1.9117 3.78376 2.47833 3.58837L3.41622 3.27574C3.72885 3.17804 3.98286 2.94357 4.13917 2.65048L4.58857 1.75168C4.86212 1.22412 5.4483 0.950568 6.03448 1.08734L7.01144 1.32181C7.32407 1.39997 7.67578 1.36089 7.96887 1.18504L8.8286 0.677019C9.33662 0.38393 9.98141 0.462086 10.3917 0.91149L11.0756 1.63444C11.3101 1.86891 11.6227 2.02523 11.9549 2.02523L12.9514 2.06431C13.5376 2.08385 14.0456 2.51371 14.1433 3.09989L14.3191 4.07685C14.3777 4.40902 14.5731 4.70211 14.8467 4.87796L15.6673 5.4446C16.1558 5.87446 16.3512 6.49972 16.1167 7.04682Z" fill="#00D566"/>
<g opacity="0.15">
<path d="M5.15521 14.9993L4.70581 14.1005C4.5495 13.8074 4.29549 13.573 3.98286 13.4753L3.04497 13.1627C2.47833 12.9673 2.12663 12.4202 2.18525 11.834L2.28294 10.8375C2.32202 10.5053 2.22432 10.1731 2.00939 9.91913L1.38414 9.13756C1.01289 8.66862 1.01289 8.02382 1.38414 7.55488L2.00939 6.77331C2.22432 6.5193 2.32202 6.18713 2.28294 5.85497L2.18525 4.85846C2.12663 4.27229 2.47833 3.72519 3.04497 3.52979L3.98286 3.21717C4.29549 3.11947 4.5495 2.885 4.70581 2.59191L5.15521 1.6931C5.31153 1.38047 5.58508 1.16554 5.87817 1.06785C5.35061 0.98969 4.82305 1.26324 4.58857 1.75172L4.13917 2.65053C3.98286 2.94362 3.72885 3.17809 3.41622 3.27578L2.47833 3.58841C1.9117 3.7838 1.55999 4.3309 1.61861 4.91708L1.7163 5.91358C1.75538 6.24575 1.65769 6.57792 1.44275 6.83193L0.817497 7.6135C0.446251 8.08244 0.446251 8.72724 0.817497 9.19618L1.44275 9.97775C1.65769 10.2318 1.75538 10.5639 1.7163 10.8961L1.61861 11.8926C1.55999 12.4788 1.9117 13.0259 2.47833 13.2213L3.41622 13.5339C3.72885 13.6316 3.98286 13.8661 4.13917 14.1592L4.58857 15.058C4.86212 15.5855 5.4483 15.8591 6.03448 15.7223L6.15172 15.7028C5.72185 15.6246 5.35061 15.3901 5.15521 14.9993Z" fill="black"/>
<path d="M8.51595 1.12657L9.37568 0.618553C9.45384 0.579475 9.53199 0.540396 9.61015 0.520857C9.3366 0.481778 9.04351 0.540396 8.80904 0.677171L7.94932 1.18519C7.87116 1.22427 7.793 1.26335 7.71484 1.28289C7.98839 1.32197 8.26194 1.28289 8.51595 1.12657Z" fill="black"/>
<path d="M12.504 14.7063C12.4063 14.7063 12.3086 14.7258 12.2305 14.7453L12.9339 14.7063C13.0316 14.7063 13.1097 14.6867 13.2074 14.6672L12.504 14.7063Z" fill="black"/>
<path d="M9.37579 16.0545L8.51607 15.5464C8.22298 15.3706 7.89081 15.3315 7.55864 15.4097L7.44141 15.4292C7.61726 15.4487 7.77357 15.5074 7.92989 15.5855L8.78962 16.0935C9.12178 16.2889 9.49303 16.3085 9.84474 16.1912C9.68842 16.1912 9.53211 16.1522 9.37579 16.0545Z" fill="black"/>
</g>
<path d="M5.27344 7.20314L7.71585 9.99726L12.7179 5.97217" fill="#00D566"/>
<path d="M7.13302 11.4433C6.85947 11.4433 6.58592 11.3261 6.39053 11.1111L3.94812 8.31703C3.59641 7.90671 3.63549 7.30099 4.02628 6.92974C4.4366 6.57804 5.04232 6.61712 5.41357 7.0079L7.25026 9.0986L11.5294 5.65969C11.9397 5.32752 12.5649 5.38614 12.8971 5.81601C13.2293 6.24587 13.1707 6.85159 12.7408 7.18375L7.73874 11.2284C7.56288 11.3652 7.34795 11.4433 7.13302 11.4433Z" fill="white"/>
</svg>
